<mxfile host="drawio-plugin" modified="2024-07-08T12:28:12.012Z" agent="Mozilla/5.0 (X11; Linux x86_64) AppleWebKit/537.36 (KHTML, like Gecko) Chrome/122.0.0.0 Safari/537.36" etag="soOjjOpHKYrn-DyDLZLC" version="22.1.22" type="embed">
  <diagram name="Page-1" id="7hiu1xFrt5itlZQtS7pO">
    <mxGraphModel dx="1393" dy="1897" grid="1" gridSize="10" guides="1" tooltips="1" connect="1" arrows="1" fold="1" page="0" pageScale="1" pageWidth="850" pageHeight="1100" math="0" shadow="0">
      <root>
        <mxCell id="0" />
        <mxCell id="1" parent="0" />
        <mxCell id="EM1Qpl2ietJLJwzB0dMG-68" value="" style="endArrow=none;html=1;rounded=0;" parent="1" edge="1">
          <mxGeometry width="50" height="50" relative="1" as="geometry">
            <mxPoint x="170" y="500" as="sourcePoint" />
            <mxPoint x="650" y="500" as="targetPoint" />
          </mxGeometry>
        </mxCell>
        <mxCell id="EM1Qpl2ietJLJwzB0dMG-24" value="" style="endArrow=none;html=1;rounded=0;" parent="1" edge="1">
          <mxGeometry width="50" height="50" relative="1" as="geometry">
            <mxPoint x="130" y="790" as="sourcePoint" />
            <mxPoint x="440" y="790" as="targetPoint" />
          </mxGeometry>
        </mxCell>
        <mxCell id="EM1Qpl2ietJLJwzB0dMG-63" value="DECORATED_BY" style="edgeLabel;html=1;align=center;verticalAlign=middle;resizable=0;points=[];" parent="EM1Qpl2ietJLJwzB0dMG-24" vertex="1" connectable="0">
          <mxGeometry x="0.2991" y="-1" relative="1" as="geometry">
            <mxPoint x="11" y="-1" as="offset" />
          </mxGeometry>
        </mxCell>
        <mxCell id="ialg9z_gfWiT8zl5qz28-12" value="" style="endArrow=none;html=1;rounded=0;edgeStyle=orthogonalEdgeStyle;exitX=1;exitY=0.964;exitDx=0;exitDy=0;exitPerimeter=0;" parent="1" source="_oEkzCHgtPR4eLIxIRUh-290" edge="1">
          <mxGeometry width="50" height="50" relative="1" as="geometry">
            <mxPoint x="520" y="890" as="sourcePoint" />
            <mxPoint x="920" y="570" as="targetPoint" />
            <Array as="points">
              <mxPoint x="860" y="891" />
              <mxPoint x="860" y="640" />
              <mxPoint x="920" y="640" />
            </Array>
          </mxGeometry>
        </mxCell>
        <mxCell id="ialg9z_gfWiT8zl5qz28-16" value="OF_TYPE" style="edgeLabel;html=1;align=center;verticalAlign=middle;resizable=0;points=[];" parent="ialg9z_gfWiT8zl5qz28-12" vertex="1" connectable="0">
          <mxGeometry x="-0.9007" y="1" relative="1" as="geometry">
            <mxPoint x="19" as="offset" />
          </mxGeometry>
        </mxCell>
        <mxCell id="ialg9z_gfWiT8zl5qz28-17" value="1" style="edgeLabel;html=1;align=center;verticalAlign=middle;resizable=0;points=[];" parent="ialg9z_gfWiT8zl5qz28-12" vertex="1" connectable="0">
          <mxGeometry x="-0.9756" y="-2" relative="1" as="geometry">
            <mxPoint x="3" y="-12" as="offset" />
          </mxGeometry>
        </mxCell>
        <mxCell id="_oEkzCHgtPR4eLIxIRUh-412" value="" style="endArrow=none;html=1;rounded=0;" parent="1" edge="1">
          <mxGeometry width="50" height="50" relative="1" as="geometry">
            <mxPoint y="750" as="sourcePoint" />
            <mxPoint x="190" y="750" as="targetPoint" />
          </mxGeometry>
        </mxCell>
        <mxCell id="_oEkzCHgtPR4eLIxIRUh-413" value="1" style="edgeLabel;html=1;align=center;verticalAlign=middle;resizable=0;points=[];" parent="_oEkzCHgtPR4eLIxIRUh-412" vertex="1" connectable="0">
          <mxGeometry x="-0.8625" y="1" relative="1" as="geometry">
            <mxPoint x="-4" y="-8" as="offset" />
          </mxGeometry>
        </mxCell>
        <mxCell id="4Z44cfPewrelUsEEWlHX-20" value="HAS" style="edgeLabel;html=1;align=center;verticalAlign=middle;resizable=0;points=[];" parent="_oEkzCHgtPR4eLIxIRUh-412" vertex="1" connectable="0">
          <mxGeometry x="-0.707" relative="1" as="geometry">
            <mxPoint x="-2" as="offset" />
          </mxGeometry>
        </mxCell>
        <mxCell id="_oEkzCHgtPR4eLIxIRUh-342" value="" style="endArrow=none;html=1;rounded=0;edgeStyle=orthogonalEdgeStyle;jumpStyle=arc;endFill=0;" parent="1" edge="1">
          <mxGeometry width="50" height="50" relative="1" as="geometry">
            <mxPoint x="320" y="290" as="sourcePoint" />
            <mxPoint x="400" y="1010" as="targetPoint" />
            <Array as="points">
              <mxPoint x="120" y="290" />
              <mxPoint x="120" y="1010" />
              <mxPoint x="400" y="1010" />
            </Array>
          </mxGeometry>
        </mxCell>
        <mxCell id="_oEkzCHgtPR4eLIxIRUh-344" value="1" style="edgeLabel;html=1;align=center;verticalAlign=middle;resizable=0;points=[];" parent="_oEkzCHgtPR4eLIxIRUh-342" vertex="1" connectable="0">
          <mxGeometry x="-0.9786" y="-1" relative="1" as="geometry">
            <mxPoint y="-8" as="offset" />
          </mxGeometry>
        </mxCell>
        <mxCell id="EM1Qpl2ietJLJwzB0dMG-64" value="DECORATED_BY" style="edgeLabel;html=1;align=center;verticalAlign=middle;resizable=0;points=[];rotation=-90;" parent="_oEkzCHgtPR4eLIxIRUh-342" vertex="1" connectable="0">
          <mxGeometry x="0.3002" relative="1" as="geometry">
            <mxPoint y="-10" as="offset" />
          </mxGeometry>
        </mxCell>
        <mxCell id="EM1Qpl2ietJLJwzB0dMG-65" value="DECORATED_BY" style="edgeLabel;html=1;align=center;verticalAlign=middle;resizable=0;points=[];" parent="_oEkzCHgtPR4eLIxIRUh-342" vertex="1" connectable="0">
          <mxGeometry x="-0.7765" relative="1" as="geometry">
            <mxPoint as="offset" />
          </mxGeometry>
        </mxCell>
        <mxCell id="_oEkzCHgtPR4eLIxIRUh-368" value="" style="endArrow=none;html=1;rounded=0;edgeStyle=orthogonalEdgeStyle;endFill=0;jumpStyle=arc;" parent="1" edge="1">
          <mxGeometry width="50" height="50" relative="1" as="geometry">
            <mxPoint x="760" y="400" as="sourcePoint" />
            <mxPoint x="290" y="810" as="targetPoint" />
            <Array as="points">
              <mxPoint x="760" y="398" />
              <mxPoint x="760" y="480" />
              <mxPoint x="190" y="480" />
              <mxPoint x="190" y="810" />
            </Array>
          </mxGeometry>
        </mxCell>
        <mxCell id="EM1Qpl2ietJLJwzB0dMG-28" value="HAS" style="edgeLabel;html=1;align=center;verticalAlign=middle;resizable=0;points=[];" parent="_oEkzCHgtPR4eLIxIRUh-368" vertex="1" connectable="0">
          <mxGeometry x="-0.9739" relative="1" as="geometry">
            <mxPoint y="10" as="offset" />
          </mxGeometry>
        </mxCell>
        <mxCell id="EM1Qpl2ietJLJwzB0dMG-29" value="1" style="edgeLabel;html=1;align=center;verticalAlign=middle;resizable=0;points=[];" parent="_oEkzCHgtPR4eLIxIRUh-368" vertex="1" connectable="0">
          <mxGeometry x="-0.9876" relative="1" as="geometry">
            <mxPoint x="7" y="4" as="offset" />
          </mxGeometry>
        </mxCell>
        <mxCell id="_oEkzCHgtPR4eLIxIRUh-1" value=":Type" style="swimlane;fontStyle=0;childLayout=stackLayout;horizontal=1;startSize=26;fillColor=#f8cecc;horizontalStack=0;resizeParent=1;resizeParentMax=0;resizeLast=0;collapsible=1;marginBottom=0;html=1;strokeColor=#b85450;" parent="1" vertex="1">
          <mxGeometry x="1100" y="40" width="140" height="50" as="geometry" />
        </mxCell>
        <mxCell id="_oEkzCHgtPR4eLIxIRUh-9" style="edgeStyle=orthogonalEdgeStyle;rounded=0;orthogonalLoop=1;jettySize=auto;html=1;exitX=0;exitY=0.25;exitDx=0;exitDy=0;endArrow=block;endFill=0;dashed=1;" parent="1" source="_oEkzCHgtPR4eLIxIRUh-5" edge="1">
          <mxGeometry relative="1" as="geometry">
            <mxPoint x="1120" y="90" as="targetPoint" />
            <Array as="points">
              <mxPoint x="1140" y="130" />
              <mxPoint x="1120" y="130" />
            </Array>
          </mxGeometry>
        </mxCell>
        <mxCell id="_oEkzCHgtPR4eLIxIRUh-5" value=":Type:Primitive" style="swimlane;fontStyle=0;childLayout=stackLayout;horizontal=1;startSize=26;fillColor=#f8cecc;horizontalStack=0;resizeParent=1;resizeParentMax=0;resizeLast=0;collapsible=1;marginBottom=0;html=1;strokeColor=#b85450;" parent="1" vertex="1">
          <mxGeometry x="1140" y="120" width="140" height="52" as="geometry" />
        </mxCell>
        <mxCell id="_oEkzCHgtPR4eLIxIRUh-6" value="+ name: String" style="text;strokeColor=none;fillColor=none;align=left;verticalAlign=top;spacingLeft=4;spacingRight=4;overflow=hidden;rotatable=0;points=[[0,0.5],[1,0.5]];portConstraint=eastwest;whiteSpace=wrap;html=1;" parent="_oEkzCHgtPR4eLIxIRUh-5" vertex="1">
          <mxGeometry y="26" width="140" height="26" as="geometry" />
        </mxCell>
        <mxCell id="_oEkzCHgtPR4eLIxIRUh-15" style="edgeStyle=orthogonalEdgeStyle;rounded=0;orthogonalLoop=1;jettySize=auto;html=1;exitX=0;exitY=0.25;exitDx=0;exitDy=0;endArrow=none;endFill=0;dashed=1;" parent="1" source="_oEkzCHgtPR4eLIxIRUh-10" edge="1">
          <mxGeometry relative="1" as="geometry">
            <mxPoint x="1120" y="130" as="targetPoint" />
            <Array as="points">
              <mxPoint x="1140" y="200" />
              <mxPoint x="1110" y="200" />
              <mxPoint x="1110" y="130" />
            </Array>
          </mxGeometry>
        </mxCell>
        <mxCell id="_oEkzCHgtPR4eLIxIRUh-16" style="edgeStyle=orthogonalEdgeStyle;rounded=0;orthogonalLoop=1;jettySize=auto;html=1;endArrow=ERmany;endFill=0;jumpStyle=arc;startArrow=none;startFill=0;exitX=0.222;exitY=0.994;exitDx=0;exitDy=0;exitPerimeter=0;" parent="1" source="_oEkzCHgtPR4eLIxIRUh-11" edge="1">
          <mxGeometry relative="1" as="geometry">
            <mxPoint x="990" y="280" as="targetPoint" />
            <mxPoint x="1180" y="270" as="sourcePoint" />
            <Array as="points">
              <mxPoint x="1180" y="280" />
            </Array>
          </mxGeometry>
        </mxCell>
        <mxCell id="_oEkzCHgtPR4eLIxIRUh-17" value="REFERENCES" style="edgeLabel;html=1;align=center;verticalAlign=middle;resizable=0;points=[];" parent="_oEkzCHgtPR4eLIxIRUh-16" vertex="1" connectable="0">
          <mxGeometry x="-0.0262" relative="1" as="geometry">
            <mxPoint x="-29" as="offset" />
          </mxGeometry>
        </mxCell>
        <mxCell id="_oEkzCHgtPR4eLIxIRUh-18" value="N" style="edgeLabel;html=1;align=center;verticalAlign=middle;resizable=0;points=[];" parent="_oEkzCHgtPR4eLIxIRUh-16" vertex="1" connectable="0">
          <mxGeometry x="-0.7295" y="1" relative="1" as="geometry">
            <mxPoint x="10" y="-19" as="offset" />
          </mxGeometry>
        </mxCell>
        <mxCell id="4Z44cfPewrelUsEEWlHX-1" value="1" style="edgeLabel;html=1;align=center;verticalAlign=middle;resizable=0;points=[];" parent="_oEkzCHgtPR4eLIxIRUh-16" vertex="1" connectable="0">
          <mxGeometry x="0.8019" relative="1" as="geometry">
            <mxPoint x="-3" y="-8" as="offset" />
          </mxGeometry>
        </mxCell>
        <mxCell id="_oEkzCHgtPR4eLIxIRUh-10" value=":Type:Declared" style="swimlane;fontStyle=0;childLayout=stackLayout;horizontal=1;startSize=26;fillColor=#f8cecc;horizontalStack=0;resizeParent=1;resizeParentMax=0;resizeLast=0;collapsible=1;marginBottom=0;html=1;strokeColor=#b85450;" parent="1" vertex="1">
          <mxGeometry x="1140" y="190" width="180" height="60" as="geometry">
            <mxRectangle x="560" y="190" width="120" height="30" as="alternateBounds" />
          </mxGeometry>
        </mxCell>
        <mxCell id="Lfl8hkbjUXuFjadJsUI8-26" style="edgeStyle=orthogonalEdgeStyle;rounded=0;orthogonalLoop=1;jettySize=auto;html=1;exitX=1;exitY=0.5;exitDx=0;exitDy=0;endArrow=none;endFill=0;" parent="_oEkzCHgtPR4eLIxIRUh-10" edge="1">
          <mxGeometry relative="1" as="geometry">
            <mxPoint x="230" y="-110" as="targetPoint" />
            <mxPoint x="180" y="39" as="sourcePoint" />
          </mxGeometry>
        </mxCell>
        <mxCell id="Lfl8hkbjUXuFjadJsUI8-27" value="1" style="edgeLabel;html=1;align=center;verticalAlign=middle;resizable=0;points=[];" parent="Lfl8hkbjUXuFjadJsUI8-26" vertex="1" connectable="0">
          <mxGeometry x="-0.9061" y="-1" relative="1" as="geometry">
            <mxPoint x="-3" y="-9" as="offset" />
          </mxGeometry>
        </mxCell>
        <mxCell id="_oEkzCHgtPR4eLIxIRUh-11" value="+ referencedGlobalFqn: String" style="text;strokeColor=none;fillColor=none;align=left;verticalAlign=top;spacingLeft=4;spacingRight=4;overflow=hidden;rotatable=0;points=[[0,0.5],[1,0.5]];portConstraint=eastwest;whiteSpace=wrap;html=1;" parent="_oEkzCHgtPR4eLIxIRUh-10" vertex="1">
          <mxGeometry y="26" width="180" height="34" as="geometry" />
        </mxCell>
        <mxCell id="_oEkzCHgtPR4eLIxIRUh-20" style="edgeStyle=orthogonalEdgeStyle;rounded=0;orthogonalLoop=1;jettySize=auto;html=1;endArrow=classic;endFill=1;entryX=1;entryY=1;entryDx=0;entryDy=0;" parent="1" edge="1">
          <mxGeometry relative="1" as="geometry">
            <mxPoint x="1240" y="80.00999999999995" as="targetPoint" />
            <mxPoint x="1450" y="230" as="sourcePoint" />
            <Array as="points">
              <mxPoint x="1450" y="230" />
              <mxPoint x="1450" y="80" />
            </Array>
          </mxGeometry>
        </mxCell>
        <mxCell id="_oEkzCHgtPR4eLIxIRUh-23" value="N" style="edgeLabel;html=1;align=center;verticalAlign=middle;resizable=0;points=[];" parent="_oEkzCHgtPR4eLIxIRUh-20" vertex="1" connectable="0">
          <mxGeometry x="0.7945" relative="1" as="geometry">
            <mxPoint x="-19" y="-8" as="offset" />
          </mxGeometry>
        </mxCell>
        <mxCell id="_oEkzCHgtPR4eLIxIRUh-24" value=":Type:Union" style="swimlane;fontStyle=0;childLayout=stackLayout;horizontal=1;startSize=26;fillColor=#f8cecc;horizontalStack=0;resizeParent=1;resizeParentMax=0;resizeLast=0;collapsible=1;marginBottom=0;html=1;strokeColor=#b85450;" parent="1" vertex="1">
          <mxGeometry x="1140" y="290" width="140" height="50" as="geometry">
            <mxRectangle x="560" y="190" width="120" height="30" as="alternateBounds" />
          </mxGeometry>
        </mxCell>
        <mxCell id="_oEkzCHgtPR4eLIxIRUh-28" style="edgeStyle=orthogonalEdgeStyle;rounded=0;orthogonalLoop=1;jettySize=auto;html=1;endArrow=none;endFill=0;" parent="1" edge="1">
          <mxGeometry relative="1" as="geometry">
            <mxPoint x="1450" y="220" as="targetPoint" />
            <mxPoint x="1280" y="300" as="sourcePoint" />
            <Array as="points">
              <mxPoint x="1450" y="300" />
            </Array>
          </mxGeometry>
        </mxCell>
        <mxCell id="_oEkzCHgtPR4eLIxIRUh-29" value="CONTAINS" style="edgeLabel;html=1;align=center;verticalAlign=middle;resizable=0;points=[];" parent="_oEkzCHgtPR4eLIxIRUh-28" vertex="1" connectable="0">
          <mxGeometry x="-0.0262" relative="1" as="geometry">
            <mxPoint x="-72" as="offset" />
          </mxGeometry>
        </mxCell>
        <mxCell id="_oEkzCHgtPR4eLIxIRUh-30" value="1" style="edgeLabel;html=1;align=center;verticalAlign=middle;resizable=0;points=[];" parent="_oEkzCHgtPR4eLIxIRUh-28" vertex="1" connectable="0">
          <mxGeometry x="-0.7295" y="1" relative="1" as="geometry">
            <mxPoint x="-24" y="-7" as="offset" />
          </mxGeometry>
        </mxCell>
        <mxCell id="_oEkzCHgtPR4eLIxIRUh-33" value=":Type:Intersection" style="swimlane;fontStyle=0;childLayout=stackLayout;horizontal=1;startSize=26;fillColor=#f8cecc;horizontalStack=0;resizeParent=1;resizeParentMax=0;resizeLast=0;collapsible=1;marginBottom=0;html=1;strokeColor=#b85450;" parent="1" vertex="1">
          <mxGeometry x="1140" y="360" width="140" height="50" as="geometry">
            <mxRectangle x="560" y="190" width="120" height="30" as="alternateBounds" />
          </mxGeometry>
        </mxCell>
        <mxCell id="_oEkzCHgtPR4eLIxIRUh-34" style="edgeStyle=orthogonalEdgeStyle;rounded=0;orthogonalLoop=1;jettySize=auto;html=1;endArrow=none;endFill=0;dashed=1;" parent="1" edge="1">
          <mxGeometry relative="1" as="geometry">
            <mxPoint x="1110" y="300" as="targetPoint" />
            <mxPoint x="1140" y="370" as="sourcePoint" />
            <Array as="points">
              <mxPoint x="1110" y="370" />
              <mxPoint x="1110" y="300" />
            </Array>
          </mxGeometry>
        </mxCell>
        <mxCell id="_oEkzCHgtPR4eLIxIRUh-35" style="edgeStyle=orthogonalEdgeStyle;rounded=0;orthogonalLoop=1;jettySize=auto;html=1;endArrow=none;endFill=0;" parent="1" edge="1">
          <mxGeometry relative="1" as="geometry">
            <mxPoint x="1450" y="290" as="targetPoint" />
            <mxPoint x="1280" y="370" as="sourcePoint" />
            <Array as="points">
              <mxPoint x="1450" y="370" />
            </Array>
          </mxGeometry>
        </mxCell>
        <mxCell id="_oEkzCHgtPR4eLIxIRUh-36" value="CONTAINS" style="edgeLabel;html=1;align=center;verticalAlign=middle;resizable=0;points=[];" parent="_oEkzCHgtPR4eLIxIRUh-35" vertex="1" connectable="0">
          <mxGeometry x="-0.0262" relative="1" as="geometry">
            <mxPoint x="-72" as="offset" />
          </mxGeometry>
        </mxCell>
        <mxCell id="_oEkzCHgtPR4eLIxIRUh-37" value="1" style="edgeLabel;html=1;align=center;verticalAlign=middle;resizable=0;points=[];" parent="_oEkzCHgtPR4eLIxIRUh-35" vertex="1" connectable="0">
          <mxGeometry x="-0.7295" y="1" relative="1" as="geometry">
            <mxPoint x="-24" y="-7" as="offset" />
          </mxGeometry>
        </mxCell>
        <mxCell id="_oEkzCHgtPR4eLIxIRUh-45" style="edgeStyle=orthogonalEdgeStyle;rounded=0;orthogonalLoop=1;jettySize=auto;html=1;exitX=0.5;exitY=1;exitDx=0;exitDy=0;entryX=0.5;entryY=0;entryDx=0;entryDy=0;" parent="1" source="_oEkzCHgtPR4eLIxIRUh-38" target="_oEkzCHgtPR4eLIxIRUh-40" edge="1">
          <mxGeometry relative="1" as="geometry" />
        </mxCell>
        <mxCell id="_oEkzCHgtPR4eLIxIRUh-46" value="HAS_MEMBER" style="edgeLabel;html=1;align=center;verticalAlign=middle;resizable=0;points=[];" parent="_oEkzCHgtPR4eLIxIRUh-45" vertex="1" connectable="0">
          <mxGeometry x="-0.1533" y="1" relative="1" as="geometry">
            <mxPoint y="2" as="offset" />
          </mxGeometry>
        </mxCell>
        <mxCell id="_oEkzCHgtPR4eLIxIRUh-47" value="1" style="edgeLabel;html=1;align=center;verticalAlign=middle;resizable=0;points=[];" parent="_oEkzCHgtPR4eLIxIRUh-45" vertex="1" connectable="0">
          <mxGeometry x="-0.7367" y="1" relative="1" as="geometry">
            <mxPoint x="9" as="offset" />
          </mxGeometry>
        </mxCell>
        <mxCell id="_oEkzCHgtPR4eLIxIRUh-48" value="N" style="edgeLabel;html=1;align=center;verticalAlign=middle;resizable=0;points=[];" parent="_oEkzCHgtPR4eLIxIRUh-45" vertex="1" connectable="0">
          <mxGeometry x="0.3633" relative="1" as="geometry">
            <mxPoint x="10" y="4" as="offset" />
          </mxGeometry>
        </mxCell>
        <mxCell id="_oEkzCHgtPR4eLIxIRUh-38" value=":Type:Object" style="swimlane;fontStyle=0;childLayout=stackLayout;horizontal=1;startSize=26;fillColor=#f8cecc;horizontalStack=0;resizeParent=1;resizeParentMax=0;resizeLast=0;collapsible=1;marginBottom=0;html=1;strokeColor=#b85450;" parent="1" vertex="1">
          <mxGeometry x="1140" y="430" width="140" height="50" as="geometry">
            <mxRectangle x="560" y="190" width="120" height="30" as="alternateBounds" />
          </mxGeometry>
        </mxCell>
        <mxCell id="_oEkzCHgtPR4eLIxIRUh-39" style="edgeStyle=orthogonalEdgeStyle;rounded=0;orthogonalLoop=1;jettySize=auto;html=1;endArrow=none;endFill=0;dashed=1;" parent="1" edge="1">
          <mxGeometry relative="1" as="geometry">
            <mxPoint x="1110" y="370" as="targetPoint" />
            <mxPoint x="1140" y="440" as="sourcePoint" />
            <Array as="points">
              <mxPoint x="1110" y="440" />
              <mxPoint x="1110" y="370" />
            </Array>
          </mxGeometry>
        </mxCell>
        <mxCell id="_oEkzCHgtPR4eLIxIRUh-40" value=":Type:ObjectMember" style="swimlane;fontStyle=0;childLayout=stackLayout;horizontal=1;startSize=26;fillColor=#f8cecc;horizontalStack=0;resizeParent=1;resizeParentMax=0;resizeLast=0;collapsible=1;marginBottom=0;html=1;strokeColor=#b85450;" parent="1" vertex="1">
          <mxGeometry x="1140" y="530" width="140" height="104" as="geometry" />
        </mxCell>
        <mxCell id="_oEkzCHgtPR4eLIxIRUh-41" value="+ name: String" style="text;strokeColor=none;fillColor=none;align=left;verticalAlign=top;spacingLeft=4;spacingRight=4;overflow=hidden;rotatable=0;points=[[0,0.5],[1,0.5]];portConstraint=eastwest;whiteSpace=wrap;html=1;" parent="_oEkzCHgtPR4eLIxIRUh-40" vertex="1">
          <mxGeometry y="26" width="140" height="26" as="geometry" />
        </mxCell>
        <mxCell id="zInr6bAMee9AeBLMC2Gt-2" value="+ optional: Boolean" style="text;strokeColor=none;fillColor=none;align=left;verticalAlign=top;spacingLeft=4;spacingRight=4;overflow=hidden;rotatable=0;points=[[0,0.5],[1,0.5]];portConstraint=eastwest;whiteSpace=wrap;html=1;" parent="_oEkzCHgtPR4eLIxIRUh-40" vertex="1">
          <mxGeometry y="52" width="140" height="26" as="geometry" />
        </mxCell>
        <mxCell id="zInr6bAMee9AeBLMC2Gt-3" value="+ readonly: Boolean" style="text;strokeColor=none;fillColor=none;align=left;verticalAlign=top;spacingLeft=4;spacingRight=4;overflow=hidden;rotatable=0;points=[[0,0.5],[1,0.5]];portConstraint=eastwest;whiteSpace=wrap;html=1;" parent="_oEkzCHgtPR4eLIxIRUh-40" vertex="1">
          <mxGeometry y="78" width="140" height="26" as="geometry" />
        </mxCell>
        <mxCell id="_oEkzCHgtPR4eLIxIRUh-49" style="edgeStyle=orthogonalEdgeStyle;rounded=0;orthogonalLoop=1;jettySize=auto;html=1;endArrow=classic;endFill=1;exitX=1.004;exitY=0.526;exitDx=0;exitDy=0;exitPerimeter=0;entryX=1;entryY=0.25;entryDx=0;entryDy=0;jumpStyle=arc;" parent="1" target="_oEkzCHgtPR4eLIxIRUh-1" edge="1">
          <mxGeometry relative="1" as="geometry">
            <mxPoint x="1460" y="360" as="targetPoint" />
            <mxPoint x="1281" y="540" as="sourcePoint" />
            <Array as="points">
              <mxPoint x="1470" y="540" />
              <mxPoint x="1470" y="53" />
            </Array>
          </mxGeometry>
        </mxCell>
        <mxCell id="_oEkzCHgtPR4eLIxIRUh-50" value="OF_TYPE" style="edgeLabel;html=1;align=center;verticalAlign=middle;resizable=0;points=[];" parent="_oEkzCHgtPR4eLIxIRUh-49" vertex="1" connectable="0">
          <mxGeometry x="-0.0262" relative="1" as="geometry">
            <mxPoint x="-140" y="253" as="offset" />
          </mxGeometry>
        </mxCell>
        <mxCell id="_oEkzCHgtPR4eLIxIRUh-51" value="1" style="edgeLabel;html=1;align=center;verticalAlign=middle;resizable=0;points=[];" parent="_oEkzCHgtPR4eLIxIRUh-49" vertex="1" connectable="0">
          <mxGeometry x="-0.7295" y="1" relative="1" as="geometry">
            <mxPoint x="-114" y="-7" as="offset" />
          </mxGeometry>
        </mxCell>
        <mxCell id="_oEkzCHgtPR4eLIxIRUh-52" value="1" style="edgeLabel;html=1;align=center;verticalAlign=middle;resizable=0;points=[];" parent="_oEkzCHgtPR4eLIxIRUh-49" vertex="1" connectable="0">
          <mxGeometry x="0.7945" relative="1" as="geometry">
            <mxPoint x="-74" y="-8" as="offset" />
          </mxGeometry>
        </mxCell>
        <mxCell id="_oEkzCHgtPR4eLIxIRUh-54" value=":Type:Function" style="swimlane;fontStyle=0;childLayout=stackLayout;horizontal=1;startSize=26;fillColor=#f8cecc;horizontalStack=0;resizeParent=1;resizeParentMax=0;resizeLast=0;collapsible=1;marginBottom=0;html=1;strokeColor=#b85450;" parent="1" vertex="1">
          <mxGeometry x="1140" y="660" width="140" height="52" as="geometry" />
        </mxCell>
        <mxCell id="2" value="+ async: Boolean" style="text;strokeColor=none;fillColor=none;align=left;verticalAlign=top;spacingLeft=4;spacingRight=4;overflow=hidden;rotatable=0;points=[[0,0.5],[1,0.5]];portConstraint=eastwest;whiteSpace=wrap;html=1;" parent="_oEkzCHgtPR4eLIxIRUh-54" vertex="1">
          <mxGeometry y="26" width="140" height="26" as="geometry" />
        </mxCell>
        <mxCell id="_oEkzCHgtPR4eLIxIRUh-56" style="edgeStyle=orthogonalEdgeStyle;rounded=0;orthogonalLoop=1;jettySize=auto;html=1;endArrow=none;endFill=0;jumpStyle=none;" parent="1" edge="1">
          <mxGeometry relative="1" as="geometry">
            <mxPoint x="1470" y="540" as="targetPoint" />
            <mxPoint x="1280" y="680" as="sourcePoint" />
            <Array as="points">
              <mxPoint x="1280" y="680" />
              <mxPoint x="1470" y="680" />
            </Array>
          </mxGeometry>
        </mxCell>
        <mxCell id="_oEkzCHgtPR4eLIxIRUh-57" value="RETURNS" style="edgeLabel;html=1;align=center;verticalAlign=middle;resizable=0;points=[];" parent="_oEkzCHgtPR4eLIxIRUh-56" vertex="1" connectable="0">
          <mxGeometry x="-0.0262" relative="1" as="geometry">
            <mxPoint x="-107" as="offset" />
          </mxGeometry>
        </mxCell>
        <mxCell id="_oEkzCHgtPR4eLIxIRUh-58" value="1" style="edgeLabel;html=1;align=center;verticalAlign=middle;resizable=0;points=[];" parent="_oEkzCHgtPR4eLIxIRUh-56" vertex="1" connectable="0">
          <mxGeometry x="-0.7295" y="1" relative="1" as="geometry">
            <mxPoint x="-34" y="-8" as="offset" />
          </mxGeometry>
        </mxCell>
        <mxCell id="_oEkzCHgtPR4eLIxIRUh-61" style="edgeStyle=orthogonalEdgeStyle;rounded=0;orthogonalLoop=1;jettySize=auto;html=1;exitX=0.572;exitY=-0.012;exitDx=0;exitDy=0;entryX=0;entryY=0.75;entryDx=0;entryDy=0;exitPerimeter=0;" parent="1" source="_oEkzCHgtPR4eLIxIRUh-59" target="_oEkzCHgtPR4eLIxIRUh-1" edge="1">
          <mxGeometry relative="1" as="geometry">
            <mxPoint x="1139.9999999999998" y="470.005" as="targetPoint" />
            <mxPoint x="1010" y="470" as="sourcePoint" />
            <Array as="points">
              <mxPoint x="970" y="78" />
            </Array>
          </mxGeometry>
        </mxCell>
        <mxCell id="_oEkzCHgtPR4eLIxIRUh-62" value="CONSTRAINED_BY" style="edgeLabel;html=1;align=center;verticalAlign=middle;resizable=0;points=[];" parent="_oEkzCHgtPR4eLIxIRUh-61" vertex="1" connectable="0">
          <mxGeometry x="0.0662" relative="1" as="geometry">
            <mxPoint x="9" y="-1" as="offset" />
          </mxGeometry>
        </mxCell>
        <mxCell id="_oEkzCHgtPR4eLIxIRUh-63" value="1" style="edgeLabel;html=1;align=center;verticalAlign=middle;resizable=0;points=[];" parent="_oEkzCHgtPR4eLIxIRUh-61" vertex="1" connectable="0">
          <mxGeometry x="-0.8675" y="-1" relative="1" as="geometry">
            <mxPoint x="6" y="3" as="offset" />
          </mxGeometry>
        </mxCell>
        <mxCell id="_oEkzCHgtPR4eLIxIRUh-64" value="1" style="edgeLabel;html=1;align=center;verticalAlign=middle;resizable=0;points=[];" parent="_oEkzCHgtPR4eLIxIRUh-61" vertex="1" connectable="0">
          <mxGeometry x="0.83" relative="1" as="geometry">
            <mxPoint x="1" y="-9" as="offset" />
          </mxGeometry>
        </mxCell>
        <mxCell id="_oEkzCHgtPR4eLIxIRUh-59" value=":TypeParameter" style="swimlane;fontStyle=0;childLayout=stackLayout;horizontal=1;startSize=26;fillColor=#f8cecc;horizontalStack=0;resizeParent=1;resizeParentMax=0;resizeLast=0;collapsible=1;marginBottom=0;html=1;strokeColor=#b85450;" parent="1" vertex="1">
          <mxGeometry x="890" y="120" width="140" height="78" as="geometry" />
        </mxCell>
        <mxCell id="_oEkzCHgtPR4eLIxIRUh-60" value="+ name: String" style="text;strokeColor=none;fillColor=none;align=left;verticalAlign=top;spacingLeft=4;spacingRight=4;overflow=hidden;rotatable=0;points=[[0,0.5],[1,0.5]];portConstraint=eastwest;whiteSpace=wrap;html=1;" parent="_oEkzCHgtPR4eLIxIRUh-59" vertex="1">
          <mxGeometry y="26" width="140" height="26" as="geometry" />
        </mxCell>
        <mxCell id="_oEkzCHgtPR4eLIxIRUh-97" value="+ index: Integer" style="text;strokeColor=none;fillColor=none;align=left;verticalAlign=top;spacingLeft=4;spacingRight=4;overflow=hidden;rotatable=0;points=[[0,0.5],[1,0.5]];portConstraint=eastwest;whiteSpace=wrap;html=1;" parent="_oEkzCHgtPR4eLIxIRUh-59" vertex="1">
          <mxGeometry y="52" width="140" height="26" as="geometry" />
        </mxCell>
        <mxCell id="_oEkzCHgtPR4eLIxIRUh-53" style="edgeStyle=orthogonalEdgeStyle;rounded=0;orthogonalLoop=1;jettySize=auto;html=1;endArrow=none;endFill=0;jumpStyle=arc;dashed=1;" parent="1" edge="1">
          <mxGeometry relative="1" as="geometry">
            <mxPoint x="1110" y="440" as="targetPoint" />
            <mxPoint x="1140" y="540" as="sourcePoint" />
            <Array as="points">
              <mxPoint x="1110" y="540" />
              <mxPoint x="1110" y="440" />
            </Array>
          </mxGeometry>
        </mxCell>
        <mxCell id="_oEkzCHgtPR4eLIxIRUh-70" value=":Type:FunctionParameter" style="swimlane;fontStyle=0;childLayout=stackLayout;horizontal=1;startSize=26;fillColor=#f8cecc;horizontalStack=0;resizeParent=1;resizeParentMax=0;resizeLast=0;collapsible=1;marginBottom=0;html=1;strokeColor=#b85450;" parent="1" vertex="1">
          <mxGeometry x="1140" y="760" width="180" height="104" as="geometry" />
        </mxCell>
        <mxCell id="_oEkzCHgtPR4eLIxIRUh-71" value="+ index: Integer" style="text;strokeColor=none;fillColor=none;align=left;verticalAlign=top;spacingLeft=4;spacingRight=4;overflow=hidden;rotatable=0;points=[[0,0.5],[1,0.5]];portConstraint=eastwest;whiteSpace=wrap;html=1;" parent="_oEkzCHgtPR4eLIxIRUh-70" vertex="1">
          <mxGeometry y="26" width="180" height="26" as="geometry" />
        </mxCell>
        <mxCell id="_oEkzCHgtPR4eLIxIRUh-72" value="+ name: String" style="text;strokeColor=none;fillColor=none;align=left;verticalAlign=top;spacingLeft=4;spacingRight=4;overflow=hidden;rotatable=0;points=[[0,0.5],[1,0.5]];portConstraint=eastwest;whiteSpace=wrap;html=1;" parent="_oEkzCHgtPR4eLIxIRUh-70" vertex="1">
          <mxGeometry y="52" width="180" height="26" as="geometry" />
        </mxCell>
        <mxCell id="_oEkzCHgtPR4eLIxIRUh-73" value="+ optional: Boolean" style="text;strokeColor=none;fillColor=none;align=left;verticalAlign=top;spacingLeft=4;spacingRight=4;overflow=hidden;rotatable=0;points=[[0,0.5],[1,0.5]];portConstraint=eastwest;whiteSpace=wrap;html=1;" parent="_oEkzCHgtPR4eLIxIRUh-70" vertex="1">
          <mxGeometry y="78" width="180" height="26" as="geometry" />
        </mxCell>
        <mxCell id="_oEkzCHgtPR4eLIxIRUh-79" style="edgeStyle=orthogonalEdgeStyle;rounded=0;orthogonalLoop=1;jettySize=auto;html=1;endArrow=none;endFill=0;jumpStyle=none;" parent="1" edge="1">
          <mxGeometry relative="1" as="geometry">
            <mxPoint x="1470" y="670" as="targetPoint" />
            <mxPoint x="1320" y="770" as="sourcePoint" />
            <Array as="points">
              <mxPoint x="1470" y="770" />
              <mxPoint x="1470" y="670" />
            </Array>
          </mxGeometry>
        </mxCell>
        <mxCell id="_oEkzCHgtPR4eLIxIRUh-80" value="OF_TYPE" style="edgeLabel;html=1;align=center;verticalAlign=middle;resizable=0;points=[];" parent="_oEkzCHgtPR4eLIxIRUh-79" vertex="1" connectable="0">
          <mxGeometry x="-0.0262" relative="1" as="geometry">
            <mxPoint x="-77" as="offset" />
          </mxGeometry>
        </mxCell>
        <mxCell id="_oEkzCHgtPR4eLIxIRUh-81" value="1" style="edgeLabel;html=1;align=center;verticalAlign=middle;resizable=0;points=[];" parent="_oEkzCHgtPR4eLIxIRUh-79" vertex="1" connectable="0">
          <mxGeometry x="-0.7295" y="1" relative="1" as="geometry">
            <mxPoint x="-25" y="-7" as="offset" />
          </mxGeometry>
        </mxCell>
        <mxCell id="_oEkzCHgtPR4eLIxIRUh-82" style="edgeStyle=orthogonalEdgeStyle;rounded=0;orthogonalLoop=1;jettySize=auto;html=1;entryX=0.388;entryY=0;entryDx=0;entryDy=0;entryPerimeter=0;" parent="1" target="_oEkzCHgtPR4eLIxIRUh-70" edge="1">
          <mxGeometry relative="1" as="geometry">
            <mxPoint x="1209.86" y="712" as="sourcePoint" />
            <mxPoint x="1209.86" y="752" as="targetPoint" />
          </mxGeometry>
        </mxCell>
        <mxCell id="_oEkzCHgtPR4eLIxIRUh-83" value="HAS_PARAMETER" style="edgeLabel;html=1;align=center;verticalAlign=middle;resizable=0;points=[];" parent="_oEkzCHgtPR4eLIxIRUh-82" vertex="1" connectable="0">
          <mxGeometry x="-0.1533" y="1" relative="1" as="geometry">
            <mxPoint y="2" as="offset" />
          </mxGeometry>
        </mxCell>
        <mxCell id="_oEkzCHgtPR4eLIxIRUh-84" value="1" style="edgeLabel;html=1;align=center;verticalAlign=middle;resizable=0;points=[];" parent="_oEkzCHgtPR4eLIxIRUh-82" vertex="1" connectable="0">
          <mxGeometry x="-0.7367" y="1" relative="1" as="geometry">
            <mxPoint x="8" y="1" as="offset" />
          </mxGeometry>
        </mxCell>
        <mxCell id="_oEkzCHgtPR4eLIxIRUh-85" value="N" style="edgeLabel;html=1;align=center;verticalAlign=middle;resizable=0;points=[];" parent="_oEkzCHgtPR4eLIxIRUh-82" vertex="1" connectable="0">
          <mxGeometry x="0.3633" relative="1" as="geometry">
            <mxPoint x="10" y="4" as="offset" />
          </mxGeometry>
        </mxCell>
        <mxCell id="_oEkzCHgtPR4eLIxIRUh-86" style="edgeStyle=orthogonalEdgeStyle;rounded=0;orthogonalLoop=1;jettySize=auto;html=1;endArrow=none;endFill=0;jumpStyle=arc;dashed=1;entryX=-0.014;entryY=0.18;entryDx=0;entryDy=0;entryPerimeter=0;" parent="1" target="_oEkzCHgtPR4eLIxIRUh-54" edge="1">
          <mxGeometry relative="1" as="geometry">
            <mxPoint x="1110" y="670" as="targetPoint" />
            <mxPoint x="1110" y="540" as="sourcePoint" />
            <Array as="points">
              <mxPoint x="1110" y="669" />
            </Array>
          </mxGeometry>
        </mxCell>
        <mxCell id="_oEkzCHgtPR4eLIxIRUh-88" value=":Type:Literal" style="swimlane;fontStyle=0;childLayout=stackLayout;horizontal=1;startSize=26;fillColor=#f8cecc;horizontalStack=0;resizeParent=1;resizeParentMax=0;resizeLast=0;collapsible=1;marginBottom=0;html=1;strokeColor=#b85450;" parent="1" vertex="1">
          <mxGeometry x="1140" y="880" width="140" height="52" as="geometry" />
        </mxCell>
        <mxCell id="_oEkzCHgtPR4eLIxIRUh-89" value="+ value: Object" style="text;strokeColor=none;fillColor=none;align=left;verticalAlign=top;spacingLeft=4;spacingRight=4;overflow=hidden;rotatable=0;points=[[0,0.5],[1,0.5]];portConstraint=eastwest;whiteSpace=wrap;html=1;" parent="_oEkzCHgtPR4eLIxIRUh-88" vertex="1">
          <mxGeometry y="26" width="140" height="26" as="geometry" />
        </mxCell>
        <mxCell id="_oEkzCHgtPR4eLIxIRUh-90" style="edgeStyle=orthogonalEdgeStyle;rounded=0;orthogonalLoop=1;jettySize=auto;html=1;endArrow=none;endFill=0;jumpStyle=arc;dashed=1;" parent="1" edge="1">
          <mxGeometry relative="1" as="geometry">
            <mxPoint x="1110" y="770" as="targetPoint" />
            <mxPoint x="1140" y="890" as="sourcePoint" />
            <Array as="points">
              <mxPoint x="1110" y="890" />
              <mxPoint x="1110" y="770" />
            </Array>
          </mxGeometry>
        </mxCell>
        <mxCell id="_oEkzCHgtPR4eLIxIRUh-91" value=":Type:Tuple" style="swimlane;fontStyle=0;childLayout=stackLayout;horizontal=1;startSize=26;fillColor=#f8cecc;horizontalStack=0;resizeParent=1;resizeParentMax=0;resizeLast=0;collapsible=1;marginBottom=0;html=1;strokeColor=#b85450;" parent="1" vertex="1">
          <mxGeometry x="1140" y="950" width="140" height="50" as="geometry" />
        </mxCell>
        <mxCell id="_oEkzCHgtPR4eLIxIRUh-92" style="edgeStyle=orthogonalEdgeStyle;rounded=0;orthogonalLoop=1;jettySize=auto;html=1;endArrow=none;endFill=0;jumpStyle=arc;dashed=1;" parent="1" edge="1">
          <mxGeometry relative="1" as="geometry">
            <mxPoint x="1110" y="890" as="targetPoint" />
            <mxPoint x="1140" y="960" as="sourcePoint" />
            <Array as="points">
              <mxPoint x="1110" y="960" />
              <mxPoint x="1110" y="890" />
            </Array>
          </mxGeometry>
        </mxCell>
        <mxCell id="_oEkzCHgtPR4eLIxIRUh-93" style="edgeStyle=orthogonalEdgeStyle;rounded=0;orthogonalLoop=1;jettySize=auto;html=1;endArrow=none;endFill=0;jumpStyle=arc;startArrow=none;startFill=0;" parent="1" edge="1">
          <mxGeometry relative="1" as="geometry">
            <mxPoint x="1450" y="370" as="targetPoint" />
            <mxPoint x="1280" y="980" as="sourcePoint" />
            <Array as="points">
              <mxPoint x="1280" y="980" />
              <mxPoint x="1450" y="980" />
            </Array>
          </mxGeometry>
        </mxCell>
        <mxCell id="_oEkzCHgtPR4eLIxIRUh-95" value="1" style="edgeLabel;html=1;align=center;verticalAlign=middle;resizable=0;points=[];" parent="_oEkzCHgtPR4eLIxIRUh-93" vertex="1" connectable="0">
          <mxGeometry x="-0.7295" y="1" relative="1" as="geometry">
            <mxPoint x="-98" y="-8" as="offset" />
          </mxGeometry>
        </mxCell>
        <mxCell id="_oEkzCHgtPR4eLIxIRUh-96" value="CONTAINS&lt;br&gt;+ index: Integer" style="rounded=0;whiteSpace=wrap;html=1;dashed=1;dashPattern=1 1;" parent="1" vertex="1">
          <mxGeometry x="1320" y="966" width="90" height="30" as="geometry" />
        </mxCell>
        <mxCell id="_oEkzCHgtPR4eLIxIRUh-101" value=":Type:NotIdentified" style="swimlane;fontStyle=0;childLayout=stackLayout;horizontal=1;startSize=26;fillColor=#f8cecc;horizontalStack=0;resizeParent=1;resizeParentMax=0;resizeLast=0;collapsible=1;marginBottom=0;html=1;strokeColor=#b85450;" parent="1" vertex="1">
          <mxGeometry x="1140" y="1020" width="140" height="52" as="geometry" />
        </mxCell>
        <mxCell id="_oEkzCHgtPR4eLIxIRUh-102" value="+ identifier: String" style="text;strokeColor=none;fillColor=none;align=left;verticalAlign=top;spacingLeft=4;spacingRight=4;overflow=hidden;rotatable=0;points=[[0,0.5],[1,0.5]];portConstraint=eastwest;whiteSpace=wrap;html=1;" parent="_oEkzCHgtPR4eLIxIRUh-101" vertex="1">
          <mxGeometry y="26" width="140" height="26" as="geometry" />
        </mxCell>
        <mxCell id="_oEkzCHgtPR4eLIxIRUh-103" style="edgeStyle=orthogonalEdgeStyle;rounded=0;orthogonalLoop=1;jettySize=auto;html=1;endArrow=none;endFill=0;jumpStyle=arc;dashed=1;" parent="1" edge="1">
          <mxGeometry relative="1" as="geometry">
            <mxPoint x="1110" y="960" as="targetPoint" />
            <mxPoint x="1140" y="1030" as="sourcePoint" />
            <Array as="points">
              <mxPoint x="1110" y="1030" />
              <mxPoint x="1110" y="960" />
            </Array>
          </mxGeometry>
        </mxCell>
        <mxCell id="Lfl8hkbjUXuFjadJsUI8-8" style="edgeStyle=orthogonalEdgeStyle;rounded=0;orthogonalLoop=1;jettySize=auto;html=1;exitX=0.5;exitY=0;exitDx=0;exitDy=0;entryX=0.811;entryY=1.026;entryDx=0;entryDy=0;entryPerimeter=0;" parent="1" target="6X9Y526NMBtAlw3n-G0Q-5" edge="1">
          <mxGeometry relative="1" as="geometry">
            <mxPoint x="540" y="-70" as="sourcePoint" />
            <mxPoint x="440" y="-130" as="targetPoint" />
            <Array as="points">
              <mxPoint x="540" y="-120" />
              <mxPoint x="440" y="-120" />
            </Array>
          </mxGeometry>
        </mxCell>
        <mxCell id="Lfl8hkbjUXuFjadJsUI8-9" value="HAS_ROOT" style="edgeLabel;html=1;align=center;verticalAlign=middle;resizable=0;points=[];" parent="Lfl8hkbjUXuFjadJsUI8-8" vertex="1" connectable="0">
          <mxGeometry x="0.0745" y="1" relative="1" as="geometry">
            <mxPoint y="-1" as="offset" />
          </mxGeometry>
        </mxCell>
        <mxCell id="Lfl8hkbjUXuFjadJsUI8-10" value="N" style="edgeLabel;html=1;align=center;verticalAlign=middle;resizable=0;points=[];" parent="Lfl8hkbjUXuFjadJsUI8-8" vertex="1" connectable="0">
          <mxGeometry x="-0.6957" relative="1" as="geometry">
            <mxPoint x="7" y="18" as="offset" />
          </mxGeometry>
        </mxCell>
        <mxCell id="Lfl8hkbjUXuFjadJsUI8-11" value="1" style="edgeLabel;html=1;align=center;verticalAlign=middle;resizable=0;points=[];" parent="Lfl8hkbjUXuFjadJsUI8-8" vertex="1" connectable="0">
          <mxGeometry x="0.6335" y="1" relative="1" as="geometry">
            <mxPoint x="-2" y="-11" as="offset" />
          </mxGeometry>
        </mxCell>
        <mxCell id="dm0H9T0WZqMc4V13grVB-6" style="edgeStyle=orthogonalEdgeStyle;rounded=0;orthogonalLoop=1;jettySize=auto;html=1;exitX=0.25;exitY=0;exitDx=0;exitDy=0;entryX=0.5;entryY=1;entryDx=0;entryDy=0;" parent="1" source="_oEkzCHgtPR4eLIxIRUh-104" target="6X9Y526NMBtAlw3n-G0Q-4" edge="1">
          <mxGeometry relative="1" as="geometry">
            <mxPoint x="360" y="-140" as="targetPoint" />
            <Array as="points">
              <mxPoint x="475" y="-100" />
              <mxPoint x="390" y="-100" />
            </Array>
          </mxGeometry>
        </mxCell>
        <mxCell id="dm0H9T0WZqMc4V13grVB-7" value="HAS_CONFIG" style="edgeLabel;html=1;align=center;verticalAlign=middle;resizable=0;points=[];" parent="dm0H9T0WZqMc4V13grVB-6" vertex="1" connectable="0">
          <mxGeometry x="0.0568" y="1" relative="1" as="geometry">
            <mxPoint x="10" y="-1" as="offset" />
          </mxGeometry>
        </mxCell>
        <mxCell id="dm0H9T0WZqMc4V13grVB-8" value="1" style="edgeLabel;html=1;align=center;verticalAlign=middle;resizable=0;points=[];" parent="dm0H9T0WZqMc4V13grVB-6" vertex="1" connectable="0">
          <mxGeometry x="-0.9318" relative="1" as="geometry">
            <mxPoint x="7" y="-2" as="offset" />
          </mxGeometry>
        </mxCell>
        <mxCell id="dm0H9T0WZqMc4V13grVB-9" value="1" style="edgeLabel;html=1;align=center;verticalAlign=middle;resizable=0;points=[];" parent="dm0H9T0WZqMc4V13grVB-6" vertex="1" connectable="0">
          <mxGeometry x="0.9144" y="1" relative="1" as="geometry">
            <mxPoint x="11" y="3" as="offset" />
          </mxGeometry>
        </mxCell>
        <mxCell id="_oEkzCHgtPR4eLIxIRUh-104" value=":Project" style="swimlane;fontStyle=0;childLayout=stackLayout;horizontal=1;startSize=26;fillColor=#dae8fc;horizontalStack=0;resizeParent=1;resizeParentMax=0;resizeLast=0;collapsible=1;marginBottom=0;html=1;strokeColor=#6c8ebf;" parent="1" vertex="1">
          <mxGeometry x="440" y="-70" width="140" height="50" as="geometry" />
        </mxCell>
        <mxCell id="Lfl8hkbjUXuFjadJsUI8-5" style="edgeStyle=orthogonalEdgeStyle;rounded=0;orthogonalLoop=1;jettySize=auto;html=1;exitX=0.5;exitY=0;exitDx=0;exitDy=0;endArrow=block;endFill=0;dashed=1;entryX=0.13;entryY=0.999;entryDx=0;entryDy=0;entryPerimeter=0;" parent="1" source="_oEkzCHgtPR4eLIxIRUh-105" target="6X9Y526NMBtAlw3n-G0Q-5" edge="1">
          <mxGeometry relative="1" as="geometry">
            <mxPoint x="250" y="-110" as="targetPoint" />
            <mxPoint x="228.75" y="-70" as="sourcePoint" />
          </mxGeometry>
        </mxCell>
        <mxCell id="_oEkzCHgtPR4eLIxIRUh-105" value=":Module" style="swimlane;fontStyle=0;childLayout=stackLayout;horizontal=1;startSize=26;fillColor=#dae8fc;horizontalStack=0;resizeParent=1;resizeParentMax=0;resizeLast=0;collapsible=1;marginBottom=0;html=1;strokeColor=#6c8ebf;" parent="1" vertex="1">
          <mxGeometry x="190" y="-70" width="140" height="52" as="geometry" />
        </mxCell>
        <mxCell id="OVr4s_sfS-ipXp2ctWE3-1" value="+ global/localFqn: String" style="text;strokeColor=none;fillColor=none;align=left;verticalAlign=top;spacingLeft=4;spacingRight=4;overflow=hidden;rotatable=0;points=[[0,0.5],[1,0.5]];portConstraint=eastwest;whiteSpace=wrap;html=1;" parent="_oEkzCHgtPR4eLIxIRUh-105" vertex="1">
          <mxGeometry y="26" width="140" height="26" as="geometry" />
        </mxCell>
        <mxCell id="_oEkzCHgtPR4eLIxIRUh-106" style="edgeStyle=orthogonalEdgeStyle;rounded=0;orthogonalLoop=1;jettySize=auto;html=1;" parent="1" edge="1">
          <mxGeometry relative="1" as="geometry">
            <mxPoint x="440" y="-50" as="sourcePoint" />
            <mxPoint x="330" y="-50" as="targetPoint" />
          </mxGeometry>
        </mxCell>
        <mxCell id="_oEkzCHgtPR4eLIxIRUh-107" value="CONTAINS" style="edgeLabel;html=1;align=center;verticalAlign=middle;resizable=0;points=[];" parent="_oEkzCHgtPR4eLIxIRUh-106" vertex="1" connectable="0">
          <mxGeometry x="-0.1533" y="1" relative="1" as="geometry">
            <mxPoint x="-9" as="offset" />
          </mxGeometry>
        </mxCell>
        <mxCell id="_oEkzCHgtPR4eLIxIRUh-108" value="1" style="edgeLabel;html=1;align=center;verticalAlign=middle;resizable=0;points=[];" parent="_oEkzCHgtPR4eLIxIRUh-106" vertex="1" connectable="0">
          <mxGeometry x="-0.7367" y="1" relative="1" as="geometry">
            <mxPoint x="5" y="-9" as="offset" />
          </mxGeometry>
        </mxCell>
        <mxCell id="_oEkzCHgtPR4eLIxIRUh-109" value="N" style="edgeLabel;html=1;align=center;verticalAlign=middle;resizable=0;points=[];" parent="_oEkzCHgtPR4eLIxIRUh-106" vertex="1" connectable="0">
          <mxGeometry x="0.3633" relative="1" as="geometry">
            <mxPoint x="-21" y="-9" as="offset" />
          </mxGeometry>
        </mxCell>
        <mxCell id="_oEkzCHgtPR4eLIxIRUh-117" style="edgeStyle=orthogonalEdgeStyle;rounded=0;orthogonalLoop=1;jettySize=auto;html=1;entryX=0;entryY=0.25;entryDx=0;entryDy=0;" parent="1" target="_oEkzCHgtPR4eLIxIRUh-59" edge="1">
          <mxGeometry relative="1" as="geometry">
            <mxPoint x="460" y="140" as="sourcePoint" />
            <Array as="points">
              <mxPoint x="460" y="140" />
            </Array>
          </mxGeometry>
        </mxCell>
        <mxCell id="_oEkzCHgtPR4eLIxIRUh-118" value="1" style="edgeLabel;html=1;align=center;verticalAlign=middle;resizable=0;points=[];" parent="_oEkzCHgtPR4eLIxIRUh-117" vertex="1" connectable="0">
          <mxGeometry x="-0.7724" y="-1" relative="1" as="geometry">
            <mxPoint x="-40" y="-1" as="offset" />
          </mxGeometry>
        </mxCell>
        <mxCell id="_oEkzCHgtPR4eLIxIRUh-119" value="DECLARES" style="edgeLabel;html=1;align=center;verticalAlign=middle;resizable=0;points=[];" parent="_oEkzCHgtPR4eLIxIRUh-117" vertex="1" connectable="0">
          <mxGeometry x="-0.8783" relative="1" as="geometry">
            <mxPoint x="24" as="offset" />
          </mxGeometry>
        </mxCell>
        <mxCell id="_oEkzCHgtPR4eLIxIRUh-120" value="N" style="edgeLabel;html=1;align=center;verticalAlign=middle;resizable=0;points=[];" parent="_oEkzCHgtPR4eLIxIRUh-117" vertex="1" connectable="0">
          <mxGeometry x="0.9084" y="2" relative="1" as="geometry">
            <mxPoint x="3" y="-7" as="offset" />
          </mxGeometry>
        </mxCell>
        <mxCell id="_oEkzCHgtPR4eLIxIRUh-110" value=":Class" style="swimlane;fontStyle=0;childLayout=stackLayout;horizontal=1;startSize=26;fillColor=#dae8fc;horizontalStack=0;resizeParent=1;resizeParentMax=0;resizeLast=0;collapsible=1;marginBottom=0;html=1;strokeColor=#6c8ebf;" parent="1" vertex="1">
          <mxGeometry x="320" y="184" width="140" height="130" as="geometry" />
        </mxCell>
        <mxCell id="_oEkzCHgtPR4eLIxIRUh-131" value="+ global/localFqn: String" style="text;strokeColor=none;fillColor=none;align=left;verticalAlign=top;spacingLeft=4;spacingRight=4;overflow=hidden;rotatable=0;points=[[0,0.5],[1,0.5]];portConstraint=eastwest;whiteSpace=wrap;html=1;" parent="_oEkzCHgtPR4eLIxIRUh-110" vertex="1">
          <mxGeometry y="26" width="140" height="26" as="geometry" />
        </mxCell>
        <mxCell id="_oEkzCHgtPR4eLIxIRUh-111" value="+ name: String" style="text;strokeColor=none;fillColor=none;align=left;verticalAlign=top;spacingLeft=4;spacingRight=4;overflow=hidden;rotatable=0;points=[[0,0.5],[1,0.5]];portConstraint=eastwest;whiteSpace=wrap;html=1;" parent="_oEkzCHgtPR4eLIxIRUh-110" vertex="1">
          <mxGeometry y="52" width="140" height="26" as="geometry" />
        </mxCell>
        <mxCell id="_oEkzCHgtPR4eLIxIRUh-112" value="+ abstract: Boolean" style="text;strokeColor=none;fillColor=none;align=left;verticalAlign=top;spacingLeft=4;spacingRight=4;overflow=hidden;rotatable=0;points=[[0,0.5],[1,0.5]];portConstraint=eastwest;whiteSpace=wrap;html=1;" parent="_oEkzCHgtPR4eLIxIRUh-110" vertex="1">
          <mxGeometry y="78" width="140" height="26" as="geometry" />
        </mxCell>
        <mxCell id="_oEkzCHgtPR4eLIxIRUh-132" value="&lt;i&gt;+ coordinates&lt;/i&gt;" style="text;strokeColor=none;fillColor=none;align=left;verticalAlign=top;spacingLeft=4;spacingRight=4;overflow=hidden;rotatable=0;points=[[0,0.5],[1,0.5]];portConstraint=eastwest;whiteSpace=wrap;html=1;" parent="_oEkzCHgtPR4eLIxIRUh-110" vertex="1">
          <mxGeometry y="104" width="140" height="26" as="geometry" />
        </mxCell>
        <mxCell id="_oEkzCHgtPR4eLIxIRUh-121" value="" style="endArrow=classic;html=1;rounded=0;edgeStyle=orthogonalEdgeStyle;entryX=-0.004;entryY=0.157;entryDx=0;entryDy=0;entryPerimeter=0;" parent="1" edge="1">
          <mxGeometry width="50" height="50" relative="1" as="geometry">
            <mxPoint x="460" y="220" as="sourcePoint" />
            <mxPoint x="1139.2800000000002" y="220.08199999999988" as="targetPoint" />
            <Array as="points">
              <mxPoint x="460" y="220" />
            </Array>
          </mxGeometry>
        </mxCell>
        <mxCell id="_oEkzCHgtPR4eLIxIRUh-122" value="EXTENDS" style="edgeLabel;html=1;align=center;verticalAlign=middle;resizable=0;points=[];" parent="_oEkzCHgtPR4eLIxIRUh-121" vertex="1" connectable="0">
          <mxGeometry x="-0.4819" y="-1" relative="1" as="geometry">
            <mxPoint x="-122" y="-1" as="offset" />
          </mxGeometry>
        </mxCell>
        <mxCell id="_oEkzCHgtPR4eLIxIRUh-123" value="1" style="edgeLabel;html=1;align=center;verticalAlign=middle;resizable=0;points=[];" parent="_oEkzCHgtPR4eLIxIRUh-121" vertex="1" connectable="0">
          <mxGeometry x="-0.9176" relative="1" as="geometry">
            <mxPoint x="-18" as="offset" />
          </mxGeometry>
        </mxCell>
        <mxCell id="_oEkzCHgtPR4eLIxIRUh-127" value="0..1" style="edgeLabel;html=1;align=center;verticalAlign=middle;resizable=0;points=[];" parent="_oEkzCHgtPR4eLIxIRUh-121" vertex="1" connectable="0">
          <mxGeometry x="0.9707" y="-1" relative="1" as="geometry">
            <mxPoint x="-40" y="-1" as="offset" />
          </mxGeometry>
        </mxCell>
        <mxCell id="_oEkzCHgtPR4eLIxIRUh-124" value="" style="endArrow=classic;html=1;rounded=0;edgeStyle=orthogonalEdgeStyle;entryX=-0.004;entryY=0.157;entryDx=0;entryDy=0;entryPerimeter=0;" parent="1" edge="1">
          <mxGeometry width="50" height="50" relative="1" as="geometry">
            <mxPoint x="460" y="240" as="sourcePoint" />
            <mxPoint x="1140" y="240" as="targetPoint" />
            <Array as="points">
              <mxPoint x="460" y="240" />
            </Array>
          </mxGeometry>
        </mxCell>
        <mxCell id="_oEkzCHgtPR4eLIxIRUh-125" value="IMPLEMENTS" style="edgeLabel;html=1;align=center;verticalAlign=middle;resizable=0;points=[];" parent="_oEkzCHgtPR4eLIxIRUh-124" vertex="1" connectable="0">
          <mxGeometry x="-0.4819" y="-1" relative="1" as="geometry">
            <mxPoint x="-112" y="-1" as="offset" />
          </mxGeometry>
        </mxCell>
        <mxCell id="_oEkzCHgtPR4eLIxIRUh-126" value="1" style="edgeLabel;html=1;align=center;verticalAlign=middle;resizable=0;points=[];" parent="_oEkzCHgtPR4eLIxIRUh-124" vertex="1" connectable="0">
          <mxGeometry x="-0.9176" relative="1" as="geometry">
            <mxPoint x="-18" as="offset" />
          </mxGeometry>
        </mxCell>
        <mxCell id="_oEkzCHgtPR4eLIxIRUh-128" value="N" style="edgeLabel;html=1;align=center;verticalAlign=middle;resizable=0;points=[];" parent="_oEkzCHgtPR4eLIxIRUh-124" vertex="1" connectable="0">
          <mxGeometry x="0.9647" y="-1" relative="1" as="geometry">
            <mxPoint x="-39" y="-1" as="offset" />
          </mxGeometry>
        </mxCell>
        <mxCell id="_oEkzCHgtPR4eLIxIRUh-27" style="edgeStyle=orthogonalEdgeStyle;rounded=0;orthogonalLoop=1;jettySize=auto;html=1;endArrow=none;endFill=0;jumpStyle=arc;dashed=1;" parent="1" edge="1">
          <mxGeometry relative="1" as="geometry">
            <mxPoint x="1110" y="200" as="targetPoint" />
            <mxPoint x="1140" y="300" as="sourcePoint" />
            <Array as="points">
              <mxPoint x="1110" y="300" />
              <mxPoint x="1110" y="200" />
            </Array>
          </mxGeometry>
        </mxCell>
        <mxCell id="_oEkzCHgtPR4eLIxIRUh-133" value=":Property" style="swimlane;fontStyle=0;childLayout=stackLayout;horizontal=1;startSize=26;fillColor=#dae8fc;horizontalStack=0;resizeParent=1;resizeParentMax=0;resizeLast=0;collapsible=1;marginBottom=0;html=1;strokeColor=#6c8ebf;" parent="1" vertex="1">
          <mxGeometry x="700" y="560" width="140" height="260" as="geometry" />
        </mxCell>
        <mxCell id="_oEkzCHgtPR4eLIxIRUh-134" value="+ global/localFqn: String" style="text;strokeColor=none;fillColor=none;align=left;verticalAlign=top;spacingLeft=4;spacingRight=4;overflow=hidden;rotatable=0;points=[[0,0.5],[1,0.5]];portConstraint=eastwest;whiteSpace=wrap;html=1;" parent="_oEkzCHgtPR4eLIxIRUh-133" vertex="1">
          <mxGeometry y="26" width="140" height="26" as="geometry" />
        </mxCell>
        <mxCell id="_oEkzCHgtPR4eLIxIRUh-135" value="+ name: String" style="text;strokeColor=none;fillColor=none;align=left;verticalAlign=top;spacingLeft=4;spacingRight=4;overflow=hidden;rotatable=0;points=[[0,0.5],[1,0.5]];portConstraint=eastwest;whiteSpace=wrap;html=1;" parent="_oEkzCHgtPR4eLIxIRUh-133" vertex="1">
          <mxGeometry y="52" width="140" height="26" as="geometry" />
        </mxCell>
        <mxCell id="_oEkzCHgtPR4eLIxIRUh-139" value="+ optional: Boolean" style="text;strokeColor=none;fillColor=none;align=left;verticalAlign=top;spacingLeft=4;spacingRight=4;overflow=hidden;rotatable=0;points=[[0,0.5],[1,0.5]];portConstraint=eastwest;whiteSpace=wrap;html=1;" parent="_oEkzCHgtPR4eLIxIRUh-133" vertex="1">
          <mxGeometry y="78" width="140" height="26" as="geometry" />
        </mxCell>
        <mxCell id="_oEkzCHgtPR4eLIxIRUh-140" value="+ readonly: Boolean" style="text;strokeColor=none;fillColor=none;align=left;verticalAlign=top;spacingLeft=4;spacingRight=4;overflow=hidden;rotatable=0;points=[[0,0.5],[1,0.5]];portConstraint=eastwest;whiteSpace=wrap;html=1;" parent="_oEkzCHgtPR4eLIxIRUh-133" vertex="1">
          <mxGeometry y="104" width="140" height="26" as="geometry" />
        </mxCell>
        <mxCell id="_oEkzCHgtPR4eLIxIRUh-141" value="+ visibility: String" style="text;strokeColor=none;fillColor=none;align=left;verticalAlign=top;spacingLeft=4;spacingRight=4;overflow=hidden;rotatable=0;points=[[0,0.5],[1,0.5]];portConstraint=eastwest;whiteSpace=wrap;html=1;" parent="_oEkzCHgtPR4eLIxIRUh-133" vertex="1">
          <mxGeometry y="130" width="140" height="26" as="geometry" />
        </mxCell>
        <mxCell id="_oEkzCHgtPR4eLIxIRUh-142" value="+ static: Boolean" style="text;strokeColor=none;fillColor=none;align=left;verticalAlign=top;spacingLeft=4;spacingRight=4;overflow=hidden;rotatable=0;points=[[0,0.5],[1,0.5]];portConstraint=eastwest;whiteSpace=wrap;html=1;" parent="_oEkzCHgtPR4eLIxIRUh-133" vertex="1">
          <mxGeometry y="156" width="140" height="26" as="geometry" />
        </mxCell>
        <mxCell id="_oEkzCHgtPR4eLIxIRUh-136" value="+ abstract: Boolean" style="text;strokeColor=none;fillColor=none;align=left;verticalAlign=top;spacingLeft=4;spacingRight=4;overflow=hidden;rotatable=0;points=[[0,0.5],[1,0.5]];portConstraint=eastwest;whiteSpace=wrap;html=1;" parent="_oEkzCHgtPR4eLIxIRUh-133" vertex="1">
          <mxGeometry y="182" width="140" height="26" as="geometry" />
        </mxCell>
        <mxCell id="_oEkzCHgtPR4eLIxIRUh-143" value="+ override: Boolean" style="text;strokeColor=none;fillColor=none;align=left;verticalAlign=top;spacingLeft=4;spacingRight=4;overflow=hidden;rotatable=0;points=[[0,0.5],[1,0.5]];portConstraint=eastwest;whiteSpace=wrap;html=1;" parent="_oEkzCHgtPR4eLIxIRUh-133" vertex="1">
          <mxGeometry y="208" width="140" height="26" as="geometry" />
        </mxCell>
        <mxCell id="_oEkzCHgtPR4eLIxIRUh-137" value="&lt;i&gt;+ coordinates&lt;/i&gt;" style="text;strokeColor=none;fillColor=none;align=left;verticalAlign=top;spacingLeft=4;spacingRight=4;overflow=hidden;rotatable=0;points=[[0,0.5],[1,0.5]];portConstraint=eastwest;whiteSpace=wrap;html=1;" parent="_oEkzCHgtPR4eLIxIRUh-133" vertex="1">
          <mxGeometry y="234" width="140" height="26" as="geometry" />
        </mxCell>
        <mxCell id="_oEkzCHgtPR4eLIxIRUh-224" style="edgeStyle=orthogonalEdgeStyle;rounded=0;orthogonalLoop=1;jettySize=auto;html=1;endArrow=none;endFill=0;exitX=0.996;exitY=0.196;exitDx=0;exitDy=0;exitPerimeter=0;" parent="1" source="_oEkzCHgtPR4eLIxIRUh-138" edge="1">
          <mxGeometry relative="1" as="geometry">
            <mxPoint x="1470" y="710" as="targetPoint" />
            <mxPoint x="450" y="1050" as="sourcePoint" />
            <Array as="points">
              <mxPoint x="940" y="1060" />
              <mxPoint x="940" y="1120" />
              <mxPoint x="1470" y="1120" />
            </Array>
          </mxGeometry>
        </mxCell>
        <mxCell id="_oEkzCHgtPR4eLIxIRUh-280" value="1" style="edgeLabel;html=1;align=center;verticalAlign=middle;resizable=0;points=[];" parent="_oEkzCHgtPR4eLIxIRUh-224" vertex="1" connectable="0">
          <mxGeometry x="-0.9897" relative="1" as="geometry">
            <mxPoint x="9" y="-8" as="offset" />
          </mxGeometry>
        </mxCell>
        <mxCell id="_oEkzCHgtPR4eLIxIRUh-281" value="OF_TYPE" style="edgeLabel;html=1;align=center;verticalAlign=middle;resizable=0;points=[];" parent="_oEkzCHgtPR4eLIxIRUh-224" vertex="1" connectable="0">
          <mxGeometry x="-0.934" relative="1" as="geometry">
            <mxPoint x="9" as="offset" />
          </mxGeometry>
        </mxCell>
        <mxCell id="_oEkzCHgtPR4eLIxIRUh-138" value=":Value" style="swimlane;fontStyle=0;childLayout=stackLayout;horizontal=1;startSize=26;fillColor=#d5e8d4;horizontalStack=0;resizeParent=1;resizeParentMax=0;resizeLast=0;collapsible=1;marginBottom=0;html=1;strokeColor=#82b366;" parent="1" vertex="1">
          <mxGeometry x="299" y="1050" width="140" height="50" as="geometry" />
        </mxCell>
        <mxCell id="_oEkzCHgtPR4eLIxIRUh-144" value=":Method" style="swimlane;fontStyle=0;childLayout=stackLayout;horizontal=1;startSize=26;fillColor=#dae8fc;horizontalStack=0;resizeParent=1;resizeParentMax=0;resizeLast=0;collapsible=1;marginBottom=0;html=1;strokeColor=#6c8ebf;" parent="1" vertex="1">
          <mxGeometry x="540" y="540" width="140" height="234" as="geometry">
            <mxRectangle x="460" y="320" width="80" height="30" as="alternateBounds" />
          </mxGeometry>
        </mxCell>
        <mxCell id="_oEkzCHgtPR4eLIxIRUh-145" value="+ global/localFqn: String" style="text;strokeColor=none;fillColor=none;align=left;verticalAlign=top;spacingLeft=4;spacingRight=4;overflow=hidden;rotatable=0;points=[[0,0.5],[1,0.5]];portConstraint=eastwest;whiteSpace=wrap;html=1;" parent="_oEkzCHgtPR4eLIxIRUh-144" vertex="1">
          <mxGeometry y="26" width="140" height="26" as="geometry" />
        </mxCell>
        <mxCell id="_oEkzCHgtPR4eLIxIRUh-146" value="+ name: String" style="text;strokeColor=none;fillColor=none;align=left;verticalAlign=top;spacingLeft=4;spacingRight=4;overflow=hidden;rotatable=0;points=[[0,0.5],[1,0.5]];portConstraint=eastwest;whiteSpace=wrap;html=1;" parent="_oEkzCHgtPR4eLIxIRUh-144" vertex="1">
          <mxGeometry y="52" width="140" height="26" as="geometry" />
        </mxCell>
        <mxCell id="_oEkzCHgtPR4eLIxIRUh-149" value="+ visibility: String" style="text;strokeColor=none;fillColor=none;align=left;verticalAlign=top;spacingLeft=4;spacingRight=4;overflow=hidden;rotatable=0;points=[[0,0.5],[1,0.5]];portConstraint=eastwest;whiteSpace=wrap;html=1;" parent="_oEkzCHgtPR4eLIxIRUh-144" vertex="1">
          <mxGeometry y="78" width="140" height="26" as="geometry" />
        </mxCell>
        <mxCell id="NBsu10wtON6rSxCpaWwA-2" value="+ async: Boolean" style="text;strokeColor=none;fillColor=none;align=left;verticalAlign=top;spacingLeft=4;spacingRight=4;overflow=hidden;rotatable=0;points=[[0,0.5],[1,0.5]];portConstraint=eastwest;whiteSpace=wrap;html=1;" parent="_oEkzCHgtPR4eLIxIRUh-144" vertex="1">
          <mxGeometry y="104" width="140" height="26" as="geometry" />
        </mxCell>
        <mxCell id="_oEkzCHgtPR4eLIxIRUh-150" value="+ static: Boolean" style="text;strokeColor=none;fillColor=none;align=left;verticalAlign=top;spacingLeft=4;spacingRight=4;overflow=hidden;rotatable=0;points=[[0,0.5],[1,0.5]];portConstraint=eastwest;whiteSpace=wrap;html=1;" parent="_oEkzCHgtPR4eLIxIRUh-144" vertex="1">
          <mxGeometry y="130" width="140" height="26" as="geometry" />
        </mxCell>
        <mxCell id="_oEkzCHgtPR4eLIxIRUh-151" value="+ abstract: Boolean" style="text;strokeColor=none;fillColor=none;align=left;verticalAlign=top;spacingLeft=4;spacingRight=4;overflow=hidden;rotatable=0;points=[[0,0.5],[1,0.5]];portConstraint=eastwest;whiteSpace=wrap;html=1;" parent="_oEkzCHgtPR4eLIxIRUh-144" vertex="1">
          <mxGeometry y="156" width="140" height="26" as="geometry" />
        </mxCell>
        <mxCell id="_oEkzCHgtPR4eLIxIRUh-152" value="+ override: Boolean" style="text;strokeColor=none;fillColor=none;align=left;verticalAlign=top;spacingLeft=4;spacingRight=4;overflow=hidden;rotatable=0;points=[[0,0.5],[1,0.5]];portConstraint=eastwest;whiteSpace=wrap;html=1;" parent="_oEkzCHgtPR4eLIxIRUh-144" vertex="1">
          <mxGeometry y="182" width="140" height="26" as="geometry" />
        </mxCell>
        <mxCell id="_oEkzCHgtPR4eLIxIRUh-153" value="&lt;i&gt;+ coordinates&lt;/i&gt;" style="text;strokeColor=none;fillColor=none;align=left;verticalAlign=top;spacingLeft=4;spacingRight=4;overflow=hidden;rotatable=0;points=[[0,0.5],[1,0.5]];portConstraint=eastwest;whiteSpace=wrap;html=1;" parent="_oEkzCHgtPR4eLIxIRUh-144" vertex="1">
          <mxGeometry y="208" width="140" height="26" as="geometry" />
        </mxCell>
        <mxCell id="_oEkzCHgtPR4eLIxIRUh-154" value=":Constructor" style="swimlane;fontStyle=0;childLayout=stackLayout;horizontal=1;startSize=26;fillColor=#dae8fc;horizontalStack=0;resizeParent=1;resizeParentMax=0;resizeLast=0;collapsible=1;marginBottom=0;html=1;strokeColor=#6c8ebf;" parent="1" vertex="1">
          <mxGeometry x="700" y="320" width="140" height="78" as="geometry" />
        </mxCell>
        <mxCell id="_oEkzCHgtPR4eLIxIRUh-155" value="+ global/localFqn: String" style="text;strokeColor=none;fillColor=none;align=left;verticalAlign=top;spacingLeft=4;spacingRight=4;overflow=hidden;rotatable=0;points=[[0,0.5],[1,0.5]];portConstraint=eastwest;whiteSpace=wrap;html=1;" parent="_oEkzCHgtPR4eLIxIRUh-154" vertex="1">
          <mxGeometry y="26" width="140" height="26" as="geometry" />
        </mxCell>
        <mxCell id="_oEkzCHgtPR4eLIxIRUh-161" value="&lt;i&gt;+ coordinates&lt;/i&gt;" style="text;strokeColor=none;fillColor=none;align=left;verticalAlign=top;spacingLeft=4;spacingRight=4;overflow=hidden;rotatable=0;points=[[0,0.5],[1,0.5]];portConstraint=eastwest;whiteSpace=wrap;html=1;" parent="_oEkzCHgtPR4eLIxIRUh-154" vertex="1">
          <mxGeometry y="52" width="140" height="26" as="geometry" />
        </mxCell>
        <mxCell id="_oEkzCHgtPR4eLIxIRUh-166" value=":Getter" style="swimlane;fontStyle=0;childLayout=stackLayout;horizontal=1;startSize=26;fillColor=#dae8fc;horizontalStack=0;resizeParent=1;resizeParentMax=0;resizeLast=0;collapsible=1;marginBottom=0;html=1;strokeColor=#6c8ebf;" parent="1" vertex="1">
          <mxGeometry x="159" y="840" width="140" height="156" as="geometry">
            <mxRectangle x="460" y="320" width="80" height="30" as="alternateBounds" />
          </mxGeometry>
        </mxCell>
        <mxCell id="_oEkzCHgtPR4eLIxIRUh-169" value="+ visibility: String" style="text;strokeColor=none;fillColor=none;align=left;verticalAlign=top;spacingLeft=4;spacingRight=4;overflow=hidden;rotatable=0;points=[[0,0.5],[1,0.5]];portConstraint=eastwest;whiteSpace=wrap;html=1;" parent="_oEkzCHgtPR4eLIxIRUh-166" vertex="1">
          <mxGeometry y="26" width="140" height="26" as="geometry" />
        </mxCell>
        <mxCell id="_oEkzCHgtPR4eLIxIRUh-170" value="+ static: Boolean" style="text;strokeColor=none;fillColor=none;align=left;verticalAlign=top;spacingLeft=4;spacingRight=4;overflow=hidden;rotatable=0;points=[[0,0.5],[1,0.5]];portConstraint=eastwest;whiteSpace=wrap;html=1;" parent="_oEkzCHgtPR4eLIxIRUh-166" vertex="1">
          <mxGeometry y="52" width="140" height="26" as="geometry" />
        </mxCell>
        <mxCell id="_oEkzCHgtPR4eLIxIRUh-171" value="+ abstract: Boolean" style="text;strokeColor=none;fillColor=none;align=left;verticalAlign=top;spacingLeft=4;spacingRight=4;overflow=hidden;rotatable=0;points=[[0,0.5],[1,0.5]];portConstraint=eastwest;whiteSpace=wrap;html=1;" parent="_oEkzCHgtPR4eLIxIRUh-166" vertex="1">
          <mxGeometry y="78" width="140" height="26" as="geometry" />
        </mxCell>
        <mxCell id="_oEkzCHgtPR4eLIxIRUh-172" value="+ override: Boolean" style="text;strokeColor=none;fillColor=none;align=left;verticalAlign=top;spacingLeft=4;spacingRight=4;overflow=hidden;rotatable=0;points=[[0,0.5],[1,0.5]];portConstraint=eastwest;whiteSpace=wrap;html=1;" parent="_oEkzCHgtPR4eLIxIRUh-166" vertex="1">
          <mxGeometry y="104" width="140" height="26" as="geometry" />
        </mxCell>
        <mxCell id="_oEkzCHgtPR4eLIxIRUh-173" value="&lt;i&gt;+ coordinates&lt;/i&gt;" style="text;strokeColor=none;fillColor=none;align=left;verticalAlign=top;spacingLeft=4;spacingRight=4;overflow=hidden;rotatable=0;points=[[0,0.5],[1,0.5]];portConstraint=eastwest;whiteSpace=wrap;html=1;" parent="_oEkzCHgtPR4eLIxIRUh-166" vertex="1">
          <mxGeometry y="130" width="140" height="26" as="geometry" />
        </mxCell>
        <mxCell id="_oEkzCHgtPR4eLIxIRUh-174" value=":Setter" style="swimlane;fontStyle=0;childLayout=stackLayout;horizontal=1;startSize=26;fillColor=#dae8fc;horizontalStack=0;resizeParent=1;resizeParentMax=0;resizeLast=0;collapsible=1;marginBottom=0;html=1;strokeColor=#6c8ebf;" parent="1" vertex="1">
          <mxGeometry x="319" y="840" width="140" height="156" as="geometry">
            <mxRectangle x="460" y="320" width="80" height="30" as="alternateBounds" />
          </mxGeometry>
        </mxCell>
        <mxCell id="_oEkzCHgtPR4eLIxIRUh-177" value="+ visibility: String" style="text;strokeColor=none;fillColor=none;align=left;verticalAlign=top;spacingLeft=4;spacingRight=4;overflow=hidden;rotatable=0;points=[[0,0.5],[1,0.5]];portConstraint=eastwest;whiteSpace=wrap;html=1;" parent="_oEkzCHgtPR4eLIxIRUh-174" vertex="1">
          <mxGeometry y="26" width="140" height="26" as="geometry" />
        </mxCell>
        <mxCell id="_oEkzCHgtPR4eLIxIRUh-178" value="+ static: Boolean" style="text;strokeColor=none;fillColor=none;align=left;verticalAlign=top;spacingLeft=4;spacingRight=4;overflow=hidden;rotatable=0;points=[[0,0.5],[1,0.5]];portConstraint=eastwest;whiteSpace=wrap;html=1;" parent="_oEkzCHgtPR4eLIxIRUh-174" vertex="1">
          <mxGeometry y="52" width="140" height="26" as="geometry" />
        </mxCell>
        <mxCell id="_oEkzCHgtPR4eLIxIRUh-179" value="+ abstract: Boolean" style="text;strokeColor=none;fillColor=none;align=left;verticalAlign=top;spacingLeft=4;spacingRight=4;overflow=hidden;rotatable=0;points=[[0,0.5],[1,0.5]];portConstraint=eastwest;whiteSpace=wrap;html=1;" parent="_oEkzCHgtPR4eLIxIRUh-174" vertex="1">
          <mxGeometry y="78" width="140" height="26" as="geometry" />
        </mxCell>
        <mxCell id="_oEkzCHgtPR4eLIxIRUh-180" value="+ override: Boolean" style="text;strokeColor=none;fillColor=none;align=left;verticalAlign=top;spacingLeft=4;spacingRight=4;overflow=hidden;rotatable=0;points=[[0,0.5],[1,0.5]];portConstraint=eastwest;whiteSpace=wrap;html=1;" parent="_oEkzCHgtPR4eLIxIRUh-174" vertex="1">
          <mxGeometry y="104" width="140" height="26" as="geometry" />
        </mxCell>
        <mxCell id="_oEkzCHgtPR4eLIxIRUh-181" value="&lt;i&gt;+ coordinates&lt;/i&gt;" style="text;strokeColor=none;fillColor=none;align=left;verticalAlign=top;spacingLeft=4;spacingRight=4;overflow=hidden;rotatable=0;points=[[0,0.5],[1,0.5]];portConstraint=eastwest;whiteSpace=wrap;html=1;" parent="_oEkzCHgtPR4eLIxIRUh-174" vertex="1">
          <mxGeometry y="130" width="140" height="26" as="geometry" />
        </mxCell>
        <mxCell id="_oEkzCHgtPR4eLIxIRUh-191" value=":Interface" style="swimlane;fontStyle=0;childLayout=stackLayout;horizontal=1;startSize=26;fillColor=#dae8fc;horizontalStack=0;resizeParent=1;resizeParentMax=0;resizeLast=0;collapsible=1;marginBottom=0;html=1;strokeColor=#6c8ebf;" parent="1" vertex="1">
          <mxGeometry x="320" y="342" width="140" height="104" as="geometry" />
        </mxCell>
        <mxCell id="_oEkzCHgtPR4eLIxIRUh-192" value="+ global/localFqn: String" style="text;strokeColor=none;fillColor=none;align=left;verticalAlign=top;spacingLeft=4;spacingRight=4;overflow=hidden;rotatable=0;points=[[0,0.5],[1,0.5]];portConstraint=eastwest;whiteSpace=wrap;html=1;" parent="_oEkzCHgtPR4eLIxIRUh-191" vertex="1">
          <mxGeometry y="26" width="140" height="26" as="geometry" />
        </mxCell>
        <mxCell id="_oEkzCHgtPR4eLIxIRUh-193" value="+ name: String" style="text;strokeColor=none;fillColor=none;align=left;verticalAlign=top;spacingLeft=4;spacingRight=4;overflow=hidden;rotatable=0;points=[[0,0.5],[1,0.5]];portConstraint=eastwest;whiteSpace=wrap;html=1;" parent="_oEkzCHgtPR4eLIxIRUh-191" vertex="1">
          <mxGeometry y="52" width="140" height="26" as="geometry" />
        </mxCell>
        <mxCell id="_oEkzCHgtPR4eLIxIRUh-195" value="&lt;i&gt;+ coordinates&lt;/i&gt;" style="text;strokeColor=none;fillColor=none;align=left;verticalAlign=top;spacingLeft=4;spacingRight=4;overflow=hidden;rotatable=0;points=[[0,0.5],[1,0.5]];portConstraint=eastwest;whiteSpace=wrap;html=1;" parent="_oEkzCHgtPR4eLIxIRUh-191" vertex="1">
          <mxGeometry y="78" width="140" height="26" as="geometry" />
        </mxCell>
        <mxCell id="_oEkzCHgtPR4eLIxIRUh-196" value=":TypeAlias" style="swimlane;fontStyle=0;childLayout=stackLayout;horizontal=1;startSize=26;fillColor=#dae8fc;horizontalStack=0;resizeParent=1;resizeParentMax=0;resizeLast=0;collapsible=1;marginBottom=0;html=1;strokeColor=#6c8ebf;" parent="1" vertex="1">
          <mxGeometry x="320" y="66" width="140" height="104" as="geometry" />
        </mxCell>
        <mxCell id="_oEkzCHgtPR4eLIxIRUh-197" value="+ global/localFqn: String" style="text;strokeColor=none;fillColor=none;align=left;verticalAlign=top;spacingLeft=4;spacingRight=4;overflow=hidden;rotatable=0;points=[[0,0.5],[1,0.5]];portConstraint=eastwest;whiteSpace=wrap;html=1;" parent="_oEkzCHgtPR4eLIxIRUh-196" vertex="1">
          <mxGeometry y="26" width="140" height="26" as="geometry" />
        </mxCell>
        <mxCell id="_oEkzCHgtPR4eLIxIRUh-198" value="+ name: String" style="text;strokeColor=none;fillColor=none;align=left;verticalAlign=top;spacingLeft=4;spacingRight=4;overflow=hidden;rotatable=0;points=[[0,0.5],[1,0.5]];portConstraint=eastwest;whiteSpace=wrap;html=1;" parent="_oEkzCHgtPR4eLIxIRUh-196" vertex="1">
          <mxGeometry y="52" width="140" height="26" as="geometry" />
        </mxCell>
        <mxCell id="_oEkzCHgtPR4eLIxIRUh-199" value="&lt;i&gt;+ coordinates&lt;/i&gt;" style="text;strokeColor=none;fillColor=none;align=left;verticalAlign=top;spacingLeft=4;spacingRight=4;overflow=hidden;rotatable=0;points=[[0,0.5],[1,0.5]];portConstraint=eastwest;whiteSpace=wrap;html=1;" parent="_oEkzCHgtPR4eLIxIRUh-196" vertex="1">
          <mxGeometry y="78" width="140" height="26" as="geometry" />
        </mxCell>
        <mxCell id="_oEkzCHgtPR4eLIxIRUh-200" value=":Enum" style="swimlane;fontStyle=0;childLayout=stackLayout;horizontal=1;startSize=26;fillColor=#dae8fc;horizontalStack=0;resizeParent=1;resizeParentMax=0;resizeLast=0;collapsible=1;marginBottom=0;html=1;strokeColor=#6c8ebf;" parent="1" vertex="1">
          <mxGeometry x="-140" y="250" width="140" height="156" as="geometry" />
        </mxCell>
        <mxCell id="_oEkzCHgtPR4eLIxIRUh-201" value="+ global/localFqn: String" style="text;strokeColor=none;fillColor=none;align=left;verticalAlign=top;spacingLeft=4;spacingRight=4;overflow=hidden;rotatable=0;points=[[0,0.5],[1,0.5]];portConstraint=eastwest;whiteSpace=wrap;html=1;" parent="_oEkzCHgtPR4eLIxIRUh-200" vertex="1">
          <mxGeometry y="26" width="140" height="26" as="geometry" />
        </mxCell>
        <mxCell id="_oEkzCHgtPR4eLIxIRUh-202" value="+ name: String" style="text;strokeColor=none;fillColor=none;align=left;verticalAlign=top;spacingLeft=4;spacingRight=4;overflow=hidden;rotatable=0;points=[[0,0.5],[1,0.5]];portConstraint=eastwest;whiteSpace=wrap;html=1;" parent="_oEkzCHgtPR4eLIxIRUh-200" vertex="1">
          <mxGeometry y="52" width="140" height="26" as="geometry" />
        </mxCell>
        <mxCell id="_oEkzCHgtPR4eLIxIRUh-204" value="+ constant: Boolean" style="text;strokeColor=none;fillColor=none;align=left;verticalAlign=top;spacingLeft=4;spacingRight=4;overflow=hidden;rotatable=0;points=[[0,0.5],[1,0.5]];portConstraint=eastwest;whiteSpace=wrap;html=1;" parent="_oEkzCHgtPR4eLIxIRUh-200" vertex="1">
          <mxGeometry y="78" width="140" height="26" as="geometry" />
        </mxCell>
        <mxCell id="_oEkzCHgtPR4eLIxIRUh-205" value="+ declared: Boolean" style="text;strokeColor=none;fillColor=none;align=left;verticalAlign=top;spacingLeft=4;spacingRight=4;overflow=hidden;rotatable=0;points=[[0,0.5],[1,0.5]];portConstraint=eastwest;whiteSpace=wrap;html=1;" parent="_oEkzCHgtPR4eLIxIRUh-200" vertex="1">
          <mxGeometry y="104" width="140" height="26" as="geometry" />
        </mxCell>
        <mxCell id="_oEkzCHgtPR4eLIxIRUh-203" value="&lt;i&gt;+ coordinates&lt;/i&gt;" style="text;strokeColor=none;fillColor=none;align=left;verticalAlign=top;spacingLeft=4;spacingRight=4;overflow=hidden;rotatable=0;points=[[0,0.5],[1,0.5]];portConstraint=eastwest;whiteSpace=wrap;html=1;" parent="_oEkzCHgtPR4eLIxIRUh-200" vertex="1">
          <mxGeometry y="130" width="140" height="26" as="geometry" />
        </mxCell>
        <mxCell id="_oEkzCHgtPR4eLIxIRUh-206" value=":EnumMember" style="swimlane;fontStyle=0;childLayout=stackLayout;horizontal=1;startSize=26;fillColor=#dae8fc;horizontalStack=0;resizeParent=1;resizeParentMax=0;resizeLast=0;collapsible=1;marginBottom=0;html=1;strokeColor=#6c8ebf;" parent="1" vertex="1">
          <mxGeometry x="-140" y="456" width="140" height="104" as="geometry" />
        </mxCell>
        <mxCell id="_oEkzCHgtPR4eLIxIRUh-207" value="+ global/localFqn: String" style="text;strokeColor=none;fillColor=none;align=left;verticalAlign=top;spacingLeft=4;spacingRight=4;overflow=hidden;rotatable=0;points=[[0,0.5],[1,0.5]];portConstraint=eastwest;whiteSpace=wrap;html=1;" parent="_oEkzCHgtPR4eLIxIRUh-206" vertex="1">
          <mxGeometry y="26" width="140" height="26" as="geometry" />
        </mxCell>
        <mxCell id="_oEkzCHgtPR4eLIxIRUh-208" value="+ name: String" style="text;strokeColor=none;fillColor=none;align=left;verticalAlign=top;spacingLeft=4;spacingRight=4;overflow=hidden;rotatable=0;points=[[0,0.5],[1,0.5]];portConstraint=eastwest;whiteSpace=wrap;html=1;" parent="_oEkzCHgtPR4eLIxIRUh-206" vertex="1">
          <mxGeometry y="52" width="140" height="26" as="geometry" />
        </mxCell>
        <mxCell id="_oEkzCHgtPR4eLIxIRUh-211" value="&lt;i&gt;+ coordinates&lt;/i&gt;" style="text;strokeColor=none;fillColor=none;align=left;verticalAlign=top;spacingLeft=4;spacingRight=4;overflow=hidden;rotatable=0;points=[[0,0.5],[1,0.5]];portConstraint=eastwest;whiteSpace=wrap;html=1;" parent="_oEkzCHgtPR4eLIxIRUh-206" vertex="1">
          <mxGeometry y="78" width="140" height="26" as="geometry" />
        </mxCell>
        <mxCell id="_oEkzCHgtPR4eLIxIRUh-212" value=":Variable" style="swimlane;fontStyle=0;childLayout=stackLayout;horizontal=1;startSize=26;fillColor=#dae8fc;horizontalStack=0;resizeParent=1;resizeParentMax=0;resizeLast=0;collapsible=1;marginBottom=0;html=1;strokeColor=#6c8ebf;" parent="1" vertex="1">
          <mxGeometry x="-140" y="840" width="140" height="130" as="geometry" />
        </mxCell>
        <mxCell id="_oEkzCHgtPR4eLIxIRUh-213" value="+ global/localFqn: String" style="text;strokeColor=none;fillColor=none;align=left;verticalAlign=top;spacingLeft=4;spacingRight=4;overflow=hidden;rotatable=0;points=[[0,0.5],[1,0.5]];portConstraint=eastwest;whiteSpace=wrap;html=1;" parent="_oEkzCHgtPR4eLIxIRUh-212" vertex="1">
          <mxGeometry y="26" width="140" height="26" as="geometry" />
        </mxCell>
        <mxCell id="_oEkzCHgtPR4eLIxIRUh-214" value="+ name: String" style="text;strokeColor=none;fillColor=none;align=left;verticalAlign=top;spacingLeft=4;spacingRight=4;overflow=hidden;rotatable=0;points=[[0,0.5],[1,0.5]];portConstraint=eastwest;whiteSpace=wrap;html=1;" parent="_oEkzCHgtPR4eLIxIRUh-212" vertex="1">
          <mxGeometry y="52" width="140" height="26" as="geometry" />
        </mxCell>
        <mxCell id="_oEkzCHgtPR4eLIxIRUh-216" value="+ kind: String" style="text;strokeColor=none;fillColor=none;align=left;verticalAlign=top;spacingLeft=4;spacingRight=4;overflow=hidden;rotatable=0;points=[[0,0.5],[1,0.5]];portConstraint=eastwest;whiteSpace=wrap;html=1;" parent="_oEkzCHgtPR4eLIxIRUh-212" vertex="1">
          <mxGeometry y="78" width="140" height="26" as="geometry" />
        </mxCell>
        <mxCell id="_oEkzCHgtPR4eLIxIRUh-215" value="&lt;i&gt;+ coordinates&lt;/i&gt;" style="text;strokeColor=none;fillColor=none;align=left;verticalAlign=top;spacingLeft=4;spacingRight=4;overflow=hidden;rotatable=0;points=[[0,0.5],[1,0.5]];portConstraint=eastwest;whiteSpace=wrap;html=1;" parent="_oEkzCHgtPR4eLIxIRUh-212" vertex="1">
          <mxGeometry y="104" width="140" height="26" as="geometry" />
        </mxCell>
        <mxCell id="_oEkzCHgtPR4eLIxIRUh-217" value=":Function" style="swimlane;fontStyle=0;childLayout=stackLayout;horizontal=1;startSize=26;fillColor=#dae8fc;horizontalStack=0;resizeParent=1;resizeParentMax=0;resizeLast=0;collapsible=1;marginBottom=0;html=1;strokeColor=#6c8ebf;" parent="1" vertex="1">
          <mxGeometry x="-140" y="680" width="140" height="130" as="geometry" />
        </mxCell>
        <mxCell id="_oEkzCHgtPR4eLIxIRUh-405" style="edgeStyle=orthogonalEdgeStyle;rounded=0;orthogonalLoop=1;jettySize=auto;html=1;exitX=0;exitY=0.5;exitDx=0;exitDy=0;endArrow=none;endFill=0;" parent="_oEkzCHgtPR4eLIxIRUh-217" source="_oEkzCHgtPR4eLIxIRUh-218" edge="1">
          <mxGeometry relative="1" as="geometry">
            <mxPoint x="1000" y="-630" as="targetPoint" />
            <Array as="points">
              <mxPoint y="40" />
              <mxPoint x="-100" y="40" />
              <mxPoint x="-100" y="-630" />
            </Array>
          </mxGeometry>
        </mxCell>
        <mxCell id="_oEkzCHgtPR4eLIxIRUh-410" value="RETURNS" style="edgeLabel;html=1;align=center;verticalAlign=middle;resizable=0;points=[];" parent="_oEkzCHgtPR4eLIxIRUh-405" vertex="1" connectable="0">
          <mxGeometry x="-0.9273" relative="1" as="geometry">
            <mxPoint x="5" as="offset" />
          </mxGeometry>
        </mxCell>
        <mxCell id="_oEkzCHgtPR4eLIxIRUh-411" value="1" style="edgeLabel;html=1;align=center;verticalAlign=middle;resizable=0;points=[];" parent="_oEkzCHgtPR4eLIxIRUh-405" vertex="1" connectable="0">
          <mxGeometry x="-0.9818" y="-1" relative="1" as="geometry">
            <mxPoint x="8" y="-7" as="offset" />
          </mxGeometry>
        </mxCell>
        <mxCell id="_oEkzCHgtPR4eLIxIRUh-218" value="+ global/localFqn: String" style="text;strokeColor=none;fillColor=none;align=left;verticalAlign=top;spacingLeft=4;spacingRight=4;overflow=hidden;rotatable=0;points=[[0,0.5],[1,0.5]];portConstraint=eastwest;whiteSpace=wrap;html=1;" parent="_oEkzCHgtPR4eLIxIRUh-217" vertex="1">
          <mxGeometry y="26" width="140" height="26" as="geometry" />
        </mxCell>
        <mxCell id="_oEkzCHgtPR4eLIxIRUh-219" value="+ name: String" style="text;strokeColor=none;fillColor=none;align=left;verticalAlign=top;spacingLeft=4;spacingRight=4;overflow=hidden;rotatable=0;points=[[0,0.5],[1,0.5]];portConstraint=eastwest;whiteSpace=wrap;html=1;" parent="_oEkzCHgtPR4eLIxIRUh-217" vertex="1">
          <mxGeometry y="52" width="140" height="26" as="geometry" />
        </mxCell>
        <mxCell id="NBsu10wtON6rSxCpaWwA-3" value="+ async: Boolean" style="text;strokeColor=none;fillColor=none;align=left;verticalAlign=top;spacingLeft=4;spacingRight=4;overflow=hidden;rotatable=0;points=[[0,0.5],[1,0.5]];portConstraint=eastwest;whiteSpace=wrap;html=1;" parent="_oEkzCHgtPR4eLIxIRUh-217" vertex="1">
          <mxGeometry y="78" width="140" height="26" as="geometry" />
        </mxCell>
        <mxCell id="_oEkzCHgtPR4eLIxIRUh-221" value="&lt;i&gt;+ coordinates&lt;/i&gt;" style="text;strokeColor=none;fillColor=none;align=left;verticalAlign=top;spacingLeft=4;spacingRight=4;overflow=hidden;rotatable=0;points=[[0,0.5],[1,0.5]];portConstraint=eastwest;whiteSpace=wrap;html=1;" parent="_oEkzCHgtPR4eLIxIRUh-217" vertex="1">
          <mxGeometry y="104" width="140" height="26" as="geometry" />
        </mxCell>
        <mxCell id="_oEkzCHgtPR4eLIxIRUh-222" value=":Value:Null" style="swimlane;fontStyle=0;childLayout=stackLayout;horizontal=1;startSize=26;fillColor=#d5e8d4;horizontalStack=0;resizeParent=1;resizeParentMax=0;resizeLast=0;collapsible=1;marginBottom=0;html=1;strokeColor=#82b366;" parent="1" vertex="1">
          <mxGeometry x="998" y="1180" width="140" height="52" as="geometry" />
        </mxCell>
        <mxCell id="_oEkzCHgtPR4eLIxIRUh-223" value="+ kind: String" style="text;strokeColor=none;fillColor=none;align=left;verticalAlign=top;spacingLeft=4;spacingRight=4;overflow=hidden;rotatable=0;points=[[0,0.5],[1,0.5]];portConstraint=eastwest;whiteSpace=wrap;html=1;" parent="_oEkzCHgtPR4eLIxIRUh-222" vertex="1">
          <mxGeometry y="26" width="140" height="26" as="geometry" />
        </mxCell>
        <mxCell id="_oEkzCHgtPR4eLIxIRUh-225" value=":Value:Literal" style="swimlane;fontStyle=0;childLayout=stackLayout;horizontal=1;startSize=26;fillColor=#d5e8d4;horizontalStack=0;resizeParent=1;resizeParentMax=0;resizeLast=0;collapsible=1;marginBottom=0;html=1;strokeColor=#82b366;" parent="1" vertex="1">
          <mxGeometry x="1158" y="1180" width="140" height="52" as="geometry" />
        </mxCell>
        <mxCell id="_oEkzCHgtPR4eLIxIRUh-226" value="+ value: Object" style="text;strokeColor=none;fillColor=none;align=left;verticalAlign=top;spacingLeft=4;spacingRight=4;overflow=hidden;rotatable=0;points=[[0,0.5],[1,0.5]];portConstraint=eastwest;whiteSpace=wrap;html=1;" parent="_oEkzCHgtPR4eLIxIRUh-225" vertex="1">
          <mxGeometry y="26" width="140" height="26" as="geometry" />
        </mxCell>
        <mxCell id="_oEkzCHgtPR4eLIxIRUh-227" value=":Value:Declared" style="swimlane;fontStyle=0;childLayout=stackLayout;horizontal=1;startSize=26;fillColor=#d5e8d4;horizontalStack=0;resizeParent=1;resizeParentMax=0;resizeLast=0;collapsible=1;marginBottom=0;html=1;strokeColor=#82b366;" parent="1" vertex="1">
          <mxGeometry x="-220" y="1180" width="179" height="52" as="geometry" />
        </mxCell>
        <mxCell id="_oEkzCHgtPR4eLIxIRUh-228" value="+ referencedGlobalFqn: String" style="text;strokeColor=none;fillColor=none;align=left;verticalAlign=top;spacingLeft=4;spacingRight=4;overflow=hidden;rotatable=0;points=[[0,0.5],[1,0.5]];portConstraint=eastwest;whiteSpace=wrap;html=1;" parent="_oEkzCHgtPR4eLIxIRUh-227" vertex="1">
          <mxGeometry y="26" width="179" height="26" as="geometry" />
        </mxCell>
        <mxCell id="_oEkzCHgtPR4eLIxIRUh-230" value=":Value:Member" style="swimlane;fontStyle=0;childLayout=stackLayout;horizontal=1;startSize=26;fillColor=#d5e8d4;horizontalStack=0;resizeParent=1;resizeParentMax=0;resizeLast=0;collapsible=1;marginBottom=0;html=1;strokeColor=#82b366;" parent="1" vertex="1">
          <mxGeometry x="-21" y="1180" width="140" height="50" as="geometry" />
        </mxCell>
        <mxCell id="_oEkzCHgtPR4eLIxIRUh-234" value=":Value:Object" style="swimlane;fontStyle=0;childLayout=stackLayout;horizontal=1;startSize=26;fillColor=#d5e8d4;horizontalStack=0;resizeParent=1;resizeParentMax=0;resizeLast=0;collapsible=1;marginBottom=0;html=1;strokeColor=#82b366;" parent="1" vertex="1">
          <mxGeometry x="139" y="1180" width="140" height="50" as="geometry" />
        </mxCell>
        <mxCell id="_oEkzCHgtPR4eLIxIRUh-243" style="edgeStyle=orthogonalEdgeStyle;rounded=0;orthogonalLoop=1;jettySize=auto;html=1;exitX=0.5;exitY=0;exitDx=0;exitDy=0;entryX=0.5;entryY=1;entryDx=0;entryDy=0;endArrow=block;endFill=0;dashed=1;" parent="1" edge="1">
          <mxGeometry relative="1" as="geometry">
            <mxPoint x="338.66000000000025" y="1180" as="sourcePoint" />
            <mxPoint x="338.66000000000025" y="1100" as="targetPoint" />
          </mxGeometry>
        </mxCell>
        <mxCell id="_oEkzCHgtPR4eLIxIRUh-235" value=":Value:Array" style="swimlane;fontStyle=0;childLayout=stackLayout;horizontal=1;startSize=26;fillColor=#d5e8d4;horizontalStack=0;resizeParent=1;resizeParentMax=0;resizeLast=0;collapsible=1;marginBottom=0;html=1;strokeColor=#82b366;" parent="1" vertex="1">
          <mxGeometry x="299" y="1180" width="140" height="50" as="geometry" />
        </mxCell>
        <mxCell id="_oEkzCHgtPR4eLIxIRUh-283" style="edgeStyle=orthogonalEdgeStyle;rounded=0;orthogonalLoop=1;jettySize=auto;html=1;endArrow=none;endFill=0;jumpStyle=arc;" parent="1" edge="1">
          <mxGeometry relative="1" as="geometry">
            <mxPoint x="1450" y="980" as="targetPoint" />
            <Array as="points">
              <mxPoint x="520" y="1260" />
              <mxPoint x="1480" y="1260" />
              <mxPoint x="1480" y="1160" />
              <mxPoint x="1450" y="1160" />
            </Array>
            <mxPoint x="520" y="1230" as="sourcePoint" />
          </mxGeometry>
        </mxCell>
        <mxCell id="_oEkzCHgtPR4eLIxIRUh-284" value="1" style="edgeLabel;html=1;align=center;verticalAlign=middle;resizable=0;points=[];" parent="_oEkzCHgtPR4eLIxIRUh-283" vertex="1" connectable="0">
          <mxGeometry x="-0.9855" y="1" relative="1" as="geometry">
            <mxPoint x="5" as="offset" />
          </mxGeometry>
        </mxCell>
        <mxCell id="_oEkzCHgtPR4eLIxIRUh-236" value=":Value:Call" style="swimlane;fontStyle=0;childLayout=stackLayout;horizontal=1;startSize=26;fillColor=#d5e8d4;horizontalStack=0;resizeParent=1;resizeParentMax=0;resizeLast=0;collapsible=1;marginBottom=0;html=1;strokeColor=#82b366;" parent="1" vertex="1">
          <mxGeometry x="459" y="1180" width="140" height="50" as="geometry" />
        </mxCell>
        <mxCell id="_oEkzCHgtPR4eLIxIRUh-237" value=":Value:Function" style="swimlane;fontStyle=0;childLayout=stackLayout;horizontal=1;startSize=26;fillColor=#d5e8d4;horizontalStack=0;resizeParent=1;resizeParentMax=0;resizeLast=0;collapsible=1;marginBottom=0;html=1;strokeColor=#82b366;" parent="1" vertex="1">
          <mxGeometry x="659" y="1180" width="160" height="52" as="geometry" />
        </mxCell>
        <mxCell id="_oEkzCHgtPR4eLIxIRUh-238" value="+ arrowFunction: Boolean" style="text;strokeColor=none;fillColor=none;align=left;verticalAlign=top;spacingLeft=4;spacingRight=4;overflow=hidden;rotatable=0;points=[[0,0.5],[1,0.5]];portConstraint=eastwest;whiteSpace=wrap;html=1;" parent="_oEkzCHgtPR4eLIxIRUh-237" vertex="1">
          <mxGeometry y="26" width="160" height="26" as="geometry" />
        </mxCell>
        <mxCell id="_oEkzCHgtPR4eLIxIRUh-239" value=":Value:Class" style="swimlane;fontStyle=0;childLayout=stackLayout;horizontal=1;startSize=26;fillColor=#d5e8d4;horizontalStack=0;resizeParent=1;resizeParentMax=0;resizeLast=0;collapsible=1;marginBottom=0;html=1;strokeColor=#82b366;" parent="1" vertex="1">
          <mxGeometry x="839" y="1180" width="140" height="50" as="geometry" />
        </mxCell>
        <mxCell id="_oEkzCHgtPR4eLIxIRUh-240" value=":Value:Complex" style="swimlane;fontStyle=0;childLayout=stackLayout;horizontal=1;startSize=26;fillColor=#d5e8d4;horizontalStack=0;resizeParent=1;resizeParentMax=0;resizeLast=0;collapsible=1;marginBottom=0;html=1;strokeColor=#82b366;" parent="1" vertex="1">
          <mxGeometry x="1320" y="1180" width="140" height="52" as="geometry" />
        </mxCell>
        <mxCell id="_oEkzCHgtPR4eLIxIRUh-241" value="+ expression: String" style="text;strokeColor=none;fillColor=none;align=left;verticalAlign=top;spacingLeft=4;spacingRight=4;overflow=hidden;rotatable=0;points=[[0,0.5],[1,0.5]];portConstraint=eastwest;whiteSpace=wrap;html=1;" parent="_oEkzCHgtPR4eLIxIRUh-240" vertex="1">
          <mxGeometry y="26" width="140" height="26" as="geometry" />
        </mxCell>
        <mxCell id="_oEkzCHgtPR4eLIxIRUh-245" value="" style="endArrow=none;html=1;rounded=0;edgeStyle=orthogonalEdgeStyle;dashed=1;" parent="1" edge="1">
          <mxGeometry width="50" height="50" relative="1" as="geometry">
            <mxPoint x="479" y="1180" as="sourcePoint" />
            <mxPoint x="339" y="1120" as="targetPoint" />
            <Array as="points">
              <mxPoint x="479" y="1180" />
              <mxPoint x="479" y="1120" />
            </Array>
          </mxGeometry>
        </mxCell>
        <mxCell id="_oEkzCHgtPR4eLIxIRUh-246" value="" style="endArrow=none;html=1;rounded=0;edgeStyle=orthogonalEdgeStyle;dashed=1;" parent="1" edge="1">
          <mxGeometry width="50" height="50" relative="1" as="geometry">
            <mxPoint x="740" y="1180" as="sourcePoint" />
            <mxPoint x="479" y="1120" as="targetPoint" />
            <Array as="points">
              <mxPoint x="740" y="1180" />
              <mxPoint x="740" y="1120" />
            </Array>
          </mxGeometry>
        </mxCell>
        <mxCell id="_oEkzCHgtPR4eLIxIRUh-247" value="" style="endArrow=none;html=1;rounded=0;exitX=0.5;exitY=0;exitDx=0;exitDy=0;edgeStyle=orthogonalEdgeStyle;dashed=1;" parent="1" edge="1">
          <mxGeometry width="50" height="50" relative="1" as="geometry">
            <mxPoint x="909" y="1180" as="sourcePoint" />
            <mxPoint x="739" y="1140" as="targetPoint" />
            <Array as="points">
              <mxPoint x="909" y="1140" />
              <mxPoint x="809" y="1140" />
            </Array>
          </mxGeometry>
        </mxCell>
        <mxCell id="_oEkzCHgtPR4eLIxIRUh-248" value="" style="endArrow=none;html=1;rounded=0;exitX=0.5;exitY=0;exitDx=0;exitDy=0;edgeStyle=orthogonalEdgeStyle;dashed=1;" parent="1" edge="1">
          <mxGeometry width="50" height="50" relative="1" as="geometry">
            <mxPoint x="1069" y="1180" as="sourcePoint" />
            <mxPoint x="909" y="1140" as="targetPoint" />
            <Array as="points">
              <mxPoint x="1069" y="1140" />
              <mxPoint x="969" y="1140" />
            </Array>
          </mxGeometry>
        </mxCell>
        <mxCell id="_oEkzCHgtPR4eLIxIRUh-249" value="" style="endArrow=none;html=1;rounded=0;exitX=0.5;exitY=0;exitDx=0;exitDy=0;edgeStyle=orthogonalEdgeStyle;dashed=1;" parent="1" edge="1">
          <mxGeometry width="50" height="50" relative="1" as="geometry">
            <mxPoint x="209" y="1180" as="sourcePoint" />
            <mxPoint x="339" y="1140" as="targetPoint" />
            <Array as="points">
              <mxPoint x="209" y="1140" />
            </Array>
          </mxGeometry>
        </mxCell>
        <mxCell id="_oEkzCHgtPR4eLIxIRUh-250" value="" style="endArrow=none;html=1;rounded=0;exitX=0.5;exitY=0;exitDx=0;exitDy=0;edgeStyle=orthogonalEdgeStyle;dashed=1;" parent="1" edge="1">
          <mxGeometry width="50" height="50" relative="1" as="geometry">
            <mxPoint x="49" y="1180" as="sourcePoint" />
            <mxPoint x="209" y="1140" as="targetPoint" />
            <Array as="points">
              <mxPoint x="49" y="1140" />
            </Array>
          </mxGeometry>
        </mxCell>
        <mxCell id="_oEkzCHgtPR4eLIxIRUh-251" value="" style="endArrow=none;html=1;rounded=0;edgeStyle=orthogonalEdgeStyle;jumpStyle=none;dashed=1;" parent="1" edge="1">
          <mxGeometry width="50" height="50" relative="1" as="geometry">
            <mxPoint x="-130" y="1180" as="sourcePoint" />
            <mxPoint x="49" y="1140" as="targetPoint" />
            <Array as="points">
              <mxPoint x="-130" y="1180" />
              <mxPoint x="-130" y="1140" />
            </Array>
          </mxGeometry>
        </mxCell>
        <mxCell id="_oEkzCHgtPR4eLIxIRUh-254" style="edgeStyle=orthogonalEdgeStyle;rounded=0;orthogonalLoop=1;jettySize=auto;html=1;exitX=0.75;exitY=0;exitDx=0;exitDy=0;endArrow=ERmany;endFill=0;jumpStyle=arc;" parent="1" source="_oEkzCHgtPR4eLIxIRUh-227" edge="1">
          <mxGeometry relative="1" as="geometry">
            <mxPoint x="-86" y="1050" as="targetPoint" />
            <Array as="points">
              <mxPoint x="-86" y="1050" />
            </Array>
          </mxGeometry>
        </mxCell>
        <mxCell id="_oEkzCHgtPR4eLIxIRUh-255" value="N" style="edgeLabel;html=1;align=center;verticalAlign=middle;resizable=0;points=[];" parent="_oEkzCHgtPR4eLIxIRUh-254" vertex="1" connectable="0">
          <mxGeometry x="-0.6754" y="-1" relative="1" as="geometry">
            <mxPoint x="4" y="11" as="offset" />
          </mxGeometry>
        </mxCell>
        <mxCell id="_oEkzCHgtPR4eLIxIRUh-256" value="REFERENCES" style="edgeLabel;html=1;align=center;verticalAlign=middle;resizable=0;points=[];" parent="_oEkzCHgtPR4eLIxIRUh-254" vertex="1" connectable="0">
          <mxGeometry x="0.0673" y="1" relative="1" as="geometry">
            <mxPoint y="-11" as="offset" />
          </mxGeometry>
        </mxCell>
        <mxCell id="4Z44cfPewrelUsEEWlHX-2" value="1" style="edgeLabel;html=1;align=center;verticalAlign=middle;resizable=0;points=[];" parent="_oEkzCHgtPR4eLIxIRUh-254" vertex="1" connectable="0">
          <mxGeometry x="0.7561" relative="1" as="geometry">
            <mxPoint x="7" as="offset" />
          </mxGeometry>
        </mxCell>
        <mxCell id="_oEkzCHgtPR4eLIxIRUh-257" style="edgeStyle=orthogonalEdgeStyle;rounded=0;orthogonalLoop=1;jettySize=auto;html=1;jumpStyle=arc;endArrow=classic;endFill=1;" parent="1" edge="1">
          <mxGeometry relative="1" as="geometry">
            <mxPoint x="99" y="1180" as="sourcePoint" />
            <mxPoint x="300" y="1060" as="targetPoint" />
            <Array as="points">
              <mxPoint x="99" y="1060" />
              <mxPoint x="299" y="1060" />
            </Array>
          </mxGeometry>
        </mxCell>
        <mxCell id="_oEkzCHgtPR4eLIxIRUh-260" value="1" style="edgeLabel;html=1;align=center;verticalAlign=middle;resizable=0;points=[];" parent="_oEkzCHgtPR4eLIxIRUh-257" vertex="1" connectable="0">
          <mxGeometry x="0.8881" y="1" relative="1" as="geometry">
            <mxPoint x="1" y="-8" as="offset" />
          </mxGeometry>
        </mxCell>
        <mxCell id="_oEkzCHgtPR4eLIxIRUh-262" value="1" style="edgeLabel;html=1;align=center;verticalAlign=middle;resizable=0;points=[];" parent="_oEkzCHgtPR4eLIxIRUh-257" vertex="1" connectable="0">
          <mxGeometry x="-0.9358" y="-1" relative="1" as="geometry">
            <mxPoint x="4" y="1" as="offset" />
          </mxGeometry>
        </mxCell>
        <mxCell id="_oEkzCHgtPR4eLIxIRUh-264" value="MEMBER" style="edgeLabel;html=1;align=center;verticalAlign=middle;resizable=0;points=[];" parent="_oEkzCHgtPR4eLIxIRUh-257" vertex="1" connectable="0">
          <mxGeometry x="-0.5645" relative="1" as="geometry">
            <mxPoint y="10" as="offset" />
          </mxGeometry>
        </mxCell>
        <mxCell id="_oEkzCHgtPR4eLIxIRUh-258" value="" style="endArrow=none;html=1;rounded=0;edgeStyle=orthogonalEdgeStyle;jumpStyle=arc;" parent="1" edge="1">
          <mxGeometry width="50" height="50" relative="1" as="geometry">
            <mxPoint x="99" y="1090" as="sourcePoint" />
            <mxPoint x="-1" y="1180" as="targetPoint" />
            <Array as="points">
              <mxPoint x="99" y="1060" />
              <mxPoint x="-1" y="1060" />
            </Array>
          </mxGeometry>
        </mxCell>
        <mxCell id="_oEkzCHgtPR4eLIxIRUh-261" value="1" style="edgeLabel;html=1;align=center;verticalAlign=middle;resizable=0;points=[];" parent="_oEkzCHgtPR4eLIxIRUh-258" vertex="1" connectable="0">
          <mxGeometry x="0.902" relative="1" as="geometry">
            <mxPoint x="5" y="3" as="offset" />
          </mxGeometry>
        </mxCell>
        <mxCell id="_oEkzCHgtPR4eLIxIRUh-263" value="PARENT" style="edgeLabel;html=1;align=center;verticalAlign=middle;resizable=0;points=[];" parent="_oEkzCHgtPR4eLIxIRUh-258" vertex="1" connectable="0">
          <mxGeometry x="0.4283" y="-1" relative="1" as="geometry">
            <mxPoint y="11" as="offset" />
          </mxGeometry>
        </mxCell>
        <mxCell id="_oEkzCHgtPR4eLIxIRUh-274" style="edgeStyle=orthogonalEdgeStyle;rounded=0;orthogonalLoop=1;jettySize=auto;html=1;exitX=0.5;exitY=0;exitDx=0;exitDy=0;entryX=0.5;entryY=1;entryDx=0;entryDy=0;endArrow=classic;endFill=1;jumpStyle=arc;" parent="1" edge="1">
          <mxGeometry relative="1" as="geometry">
            <mxPoint x="399.0000000000002" y="1180" as="sourcePoint" />
            <mxPoint x="399.0000000000002" y="1100" as="targetPoint" />
          </mxGeometry>
        </mxCell>
        <mxCell id="_oEkzCHgtPR4eLIxIRUh-275" value="1" style="edgeLabel;html=1;align=center;verticalAlign=middle;resizable=0;points=[];" parent="_oEkzCHgtPR4eLIxIRUh-274" vertex="1" connectable="0">
          <mxGeometry x="-0.8106" y="-1" relative="1" as="geometry">
            <mxPoint x="6" y="-1" as="offset" />
          </mxGeometry>
        </mxCell>
        <mxCell id="_oEkzCHgtPR4eLIxIRUh-276" value="N" style="edgeLabel;html=1;align=center;verticalAlign=middle;resizable=0;points=[];" parent="_oEkzCHgtPR4eLIxIRUh-274" vertex="1" connectable="0">
          <mxGeometry x="0.6301" relative="1" as="geometry">
            <mxPoint x="9" y="-6" as="offset" />
          </mxGeometry>
        </mxCell>
        <mxCell id="_oEkzCHgtPR4eLIxIRUh-273" value="CONTAINS&lt;br&gt;+ index: Integer" style="rounded=0;whiteSpace=wrap;html=1;dashed=1;dashPattern=1 1;" parent="1" vertex="1">
          <mxGeometry x="359" y="1135" width="90" height="30" as="geometry" />
        </mxCell>
        <mxCell id="_oEkzCHgtPR4eLIxIRUh-277" style="edgeStyle=orthogonalEdgeStyle;rounded=0;orthogonalLoop=1;jettySize=auto;html=1;exitX=0.5;exitY=0;exitDx=0;exitDy=0;endArrow=classic;endFill=1;jumpStyle=arc;" parent="1" edge="1">
          <mxGeometry relative="1" as="geometry">
            <mxPoint x="519.0000000000002" y="1180" as="sourcePoint" />
            <mxPoint x="439" y="1092" as="targetPoint" />
            <Array as="points">
              <mxPoint x="519" y="1092" />
              <mxPoint x="439" y="1092" />
            </Array>
          </mxGeometry>
        </mxCell>
        <mxCell id="_oEkzCHgtPR4eLIxIRUh-279" value="N" style="edgeLabel;html=1;align=center;verticalAlign=middle;resizable=0;points=[];" parent="_oEkzCHgtPR4eLIxIRUh-277" vertex="1" connectable="0">
          <mxGeometry x="0.6301" relative="1" as="geometry">
            <mxPoint x="-15" y="-8" as="offset" />
          </mxGeometry>
        </mxCell>
        <mxCell id="_oEkzCHgtPR4eLIxIRUh-278" value="1" style="edgeLabel;html=1;align=center;verticalAlign=middle;resizable=0;points=[];" parent="_oEkzCHgtPR4eLIxIRUh-277" vertex="1" connectable="0">
          <mxGeometry x="-0.8106" y="-1" relative="1" as="geometry">
            <mxPoint x="6" y="8" as="offset" />
          </mxGeometry>
        </mxCell>
        <mxCell id="_oEkzCHgtPR4eLIxIRUh-282" value="HAS_ARGUMENT&lt;br&gt;+ index: Integer" style="rounded=0;whiteSpace=wrap;html=1;dashed=1;dashPattern=1 1;" parent="1" vertex="1">
          <mxGeometry x="484" y="1135" width="105" height="30" as="geometry" />
        </mxCell>
        <mxCell id="_oEkzCHgtPR4eLIxIRUh-285" value="HAS_TYPE_ARGUMENT&lt;br&gt;+ index: Integer" style="rounded=0;whiteSpace=wrap;html=1;dashed=1;dashPattern=1 1;" parent="1" vertex="1">
          <mxGeometry x="559" y="1250" width="150" height="30" as="geometry" />
        </mxCell>
        <mxCell id="_oEkzCHgtPR4eLIxIRUh-286" style="edgeStyle=orthogonalEdgeStyle;rounded=0;orthogonalLoop=1;jettySize=auto;html=1;exitX=0.5;exitY=1;exitDx=0;exitDy=0;entryX=0.5;entryY=0;entryDx=0;entryDy=0;" parent="1" edge="1">
          <mxGeometry relative="1" as="geometry">
            <mxPoint x="-70" y="406" as="sourcePoint" />
            <mxPoint x="-70" y="456" as="targetPoint" />
          </mxGeometry>
        </mxCell>
        <mxCell id="_oEkzCHgtPR4eLIxIRUh-287" value="DECLARES" style="edgeLabel;html=1;align=center;verticalAlign=middle;resizable=0;points=[];" parent="_oEkzCHgtPR4eLIxIRUh-286" vertex="1" connectable="0">
          <mxGeometry x="-0.1533" y="1" relative="1" as="geometry">
            <mxPoint y="2" as="offset" />
          </mxGeometry>
        </mxCell>
        <mxCell id="_oEkzCHgtPR4eLIxIRUh-288" value="1" style="edgeLabel;html=1;align=center;verticalAlign=middle;resizable=0;points=[];" parent="_oEkzCHgtPR4eLIxIRUh-286" vertex="1" connectable="0">
          <mxGeometry x="-0.7367" y="1" relative="1" as="geometry">
            <mxPoint x="9" as="offset" />
          </mxGeometry>
        </mxCell>
        <mxCell id="_oEkzCHgtPR4eLIxIRUh-289" value="N" style="edgeLabel;html=1;align=center;verticalAlign=middle;resizable=0;points=[];" parent="_oEkzCHgtPR4eLIxIRUh-286" vertex="1" connectable="0">
          <mxGeometry x="0.3633" relative="1" as="geometry">
            <mxPoint x="10" y="4" as="offset" />
          </mxGeometry>
        </mxCell>
        <mxCell id="_oEkzCHgtPR4eLIxIRUh-295" style="edgeStyle=orthogonalEdgeStyle;rounded=0;orthogonalLoop=1;jettySize=auto;html=1;entryX=0.002;entryY=0.14;entryDx=0;entryDy=0;entryPerimeter=0;" parent="1" edge="1">
          <mxGeometry relative="1" as="geometry">
            <mxPoint x="320.28" y="202.19999999999993" as="targetPoint" />
            <mxPoint x="260" y="92" as="sourcePoint" />
            <Array as="points">
              <mxPoint x="260" y="202" />
            </Array>
          </mxGeometry>
        </mxCell>
        <mxCell id="_oEkzCHgtPR4eLIxIRUh-296" value="N" style="edgeLabel;html=1;align=center;verticalAlign=middle;resizable=0;points=[];" parent="_oEkzCHgtPR4eLIxIRUh-295" vertex="1" connectable="0">
          <mxGeometry x="0.7166" y="-2" relative="1" as="geometry">
            <mxPoint x="12" y="-12" as="offset" />
          </mxGeometry>
        </mxCell>
        <mxCell id="_oEkzCHgtPR4eLIxIRUh-307" value="" style="endArrow=classic;html=1;rounded=0;edgeStyle=orthogonalEdgeStyle;entryX=0.5;entryY=0;entryDx=0;entryDy=0;" parent="1" target="_oEkzCHgtPR4eLIxIRUh-133" edge="1">
          <mxGeometry width="50" height="50" relative="1" as="geometry">
            <mxPoint x="620" y="520" as="sourcePoint" />
            <mxPoint x="740" y="460" as="targetPoint" />
          </mxGeometry>
        </mxCell>
        <mxCell id="_oEkzCHgtPR4eLIxIRUh-310" value="N" style="edgeLabel;html=1;align=center;verticalAlign=middle;resizable=0;points=[];" parent="_oEkzCHgtPR4eLIxIRUh-307" vertex="1" connectable="0">
          <mxGeometry x="0.8613" y="-1" relative="1" as="geometry">
            <mxPoint y="-4" as="offset" />
          </mxGeometry>
        </mxCell>
        <mxCell id="_oEkzCHgtPR4eLIxIRUh-313" value="" style="endArrow=classic;html=1;rounded=0;edgeStyle=orthogonalEdgeStyle;entryX=0.5;entryY=0;entryDx=0;entryDy=0;jumpStyle=none;exitX=1.001;exitY=0.067;exitDx=0;exitDy=0;exitPerimeter=0;" parent="1" source="_oEkzCHgtPR4eLIxIRUh-132" target="_oEkzCHgtPR4eLIxIRUh-154" edge="1">
          <mxGeometry width="50" height="50" relative="1" as="geometry">
            <mxPoint x="470" y="290" as="sourcePoint" />
            <mxPoint x="770" y="300" as="targetPoint" />
            <Array as="points">
              <mxPoint x="470" y="290" />
              <mxPoint x="770" y="290" />
            </Array>
          </mxGeometry>
        </mxCell>
        <mxCell id="_oEkzCHgtPR4eLIxIRUh-314" value="0..1" style="edgeLabel;html=1;align=center;verticalAlign=middle;resizable=0;points=[];" parent="_oEkzCHgtPR4eLIxIRUh-313" vertex="1" connectable="0">
          <mxGeometry x="0.8613" y="-1" relative="1" as="geometry">
            <mxPoint x="16" y="8" as="offset" />
          </mxGeometry>
        </mxCell>
        <mxCell id="_oEkzCHgtPR4eLIxIRUh-328" value="1" style="edgeLabel;html=1;align=center;verticalAlign=middle;resizable=0;points=[];" parent="_oEkzCHgtPR4eLIxIRUh-313" vertex="1" connectable="0">
          <mxGeometry x="-0.9302" relative="1" as="geometry">
            <mxPoint x="-1" as="offset" />
          </mxGeometry>
        </mxCell>
        <mxCell id="_oEkzCHgtPR4eLIxIRUh-329" value="DECLARES" style="edgeLabel;html=1;align=center;verticalAlign=middle;resizable=0;points=[];" parent="_oEkzCHgtPR4eLIxIRUh-313" vertex="1" connectable="0">
          <mxGeometry x="-0.6696" relative="1" as="geometry">
            <mxPoint x="2" as="offset" />
          </mxGeometry>
        </mxCell>
        <mxCell id="_oEkzCHgtPR4eLIxIRUh-330" value="" style="endArrow=classic;html=1;rounded=0;exitX=1.004;exitY=0.154;exitDx=0;exitDy=0;exitPerimeter=0;edgeStyle=orthogonalEdgeStyle;entryX=0;entryY=0.615;entryDx=0;entryDy=0;entryPerimeter=0;" parent="1" source="_oEkzCHgtPR4eLIxIRUh-182" target="_oEkzCHgtPR4eLIxIRUh-137" edge="1">
          <mxGeometry width="50" height="50" relative="1" as="geometry">
            <mxPoint x="640.38" y="847.26" as="sourcePoint" />
            <mxPoint x="660" y="810" as="targetPoint" />
            <Array as="points">
              <mxPoint x="640" y="860" />
              <mxPoint x="640" y="810" />
            </Array>
          </mxGeometry>
        </mxCell>
        <mxCell id="_oEkzCHgtPR4eLIxIRUh-331" value="1" style="edgeLabel;html=1;align=center;verticalAlign=middle;resizable=0;points=[];" parent="_oEkzCHgtPR4eLIxIRUh-330" vertex="1" connectable="0">
          <mxGeometry x="-0.8358" y="1" relative="1" as="geometry">
            <mxPoint x="-1" y="-9" as="offset" />
          </mxGeometry>
        </mxCell>
        <mxCell id="_oEkzCHgtPR4eLIxIRUh-332" value="0..1" style="edgeLabel;html=1;align=center;verticalAlign=middle;resizable=0;points=[];" parent="_oEkzCHgtPR4eLIxIRUh-330" vertex="1" connectable="0">
          <mxGeometry x="0.7419" y="1" relative="1" as="geometry">
            <mxPoint x="-3" y="-8" as="offset" />
          </mxGeometry>
        </mxCell>
        <mxCell id="_oEkzCHgtPR4eLIxIRUh-333" value="DECLARES" style="edgeLabel;html=1;align=center;verticalAlign=middle;resizable=0;points=[];" parent="_oEkzCHgtPR4eLIxIRUh-330" vertex="1" connectable="0">
          <mxGeometry x="-0.0607" y="-1" relative="1" as="geometry">
            <mxPoint x="-1" y="11" as="offset" />
          </mxGeometry>
        </mxCell>
        <mxCell id="_oEkzCHgtPR4eLIxIRUh-337" style="edgeStyle=orthogonalEdgeStyle;rounded=0;orthogonalLoop=1;jettySize=auto;html=1;entryX=-0.005;entryY=0.199;entryDx=0;entryDy=0;entryPerimeter=0;" parent="1" target="_oEkzCHgtPR4eLIxIRUh-1" edge="1">
          <mxGeometry relative="1" as="geometry">
            <mxPoint x="460" y="110" as="sourcePoint" />
            <mxPoint x="1090" y="50" as="targetPoint" />
            <Array as="points">
              <mxPoint x="860" y="110" />
              <mxPoint x="860" y="50" />
            </Array>
          </mxGeometry>
        </mxCell>
        <mxCell id="_oEkzCHgtPR4eLIxIRUh-338" value="1" style="edgeLabel;html=1;align=center;verticalAlign=middle;resizable=0;points=[];" parent="_oEkzCHgtPR4eLIxIRUh-337" vertex="1" connectable="0">
          <mxGeometry x="-0.7724" y="-1" relative="1" as="geometry">
            <mxPoint x="-69" y="-1" as="offset" />
          </mxGeometry>
        </mxCell>
        <mxCell id="_oEkzCHgtPR4eLIxIRUh-339" value="OF_TYPE" style="edgeLabel;html=1;align=center;verticalAlign=middle;resizable=0;points=[];" parent="_oEkzCHgtPR4eLIxIRUh-337" vertex="1" connectable="0">
          <mxGeometry x="-0.8783" relative="1" as="geometry">
            <mxPoint x="2" as="offset" />
          </mxGeometry>
        </mxCell>
        <mxCell id="_oEkzCHgtPR4eLIxIRUh-340" value="1" style="edgeLabel;html=1;align=center;verticalAlign=middle;resizable=0;points=[];" parent="_oEkzCHgtPR4eLIxIRUh-337" vertex="1" connectable="0">
          <mxGeometry x="0.9084" y="2" relative="1" as="geometry">
            <mxPoint x="18" y="-6" as="offset" />
          </mxGeometry>
        </mxCell>
        <mxCell id="_oEkzCHgtPR4eLIxIRUh-347" value="" style="endArrow=none;html=1;rounded=0;edgeStyle=orthogonalEdgeStyle;" parent="1" edge="1">
          <mxGeometry width="50" height="50" relative="1" as="geometry">
            <mxPoint x="320" y="1010" as="sourcePoint" />
            <mxPoint x="720" y="900" as="targetPoint" />
            <Array as="points">
              <mxPoint x="720" y="1010" />
            </Array>
          </mxGeometry>
        </mxCell>
        <mxCell id="_oEkzCHgtPR4eLIxIRUh-350" value="" style="endArrow=none;html=1;rounded=0;edgeStyle=orthogonalEdgeStyle;exitX=1.002;exitY=0.068;exitDx=0;exitDy=0;exitPerimeter=0;jumpStyle=arc;" parent="1" source="_oEkzCHgtPR4eLIxIRUh-133" edge="1">
          <mxGeometry width="50" height="50" relative="1" as="geometry">
            <mxPoint x="850" y="580" as="sourcePoint" />
            <mxPoint x="820" y="110" as="targetPoint" />
            <Array as="points">
              <mxPoint x="920" y="578" />
              <mxPoint x="920" y="260" />
              <mxPoint x="820" y="260" />
            </Array>
          </mxGeometry>
        </mxCell>
        <mxCell id="_oEkzCHgtPR4eLIxIRUh-351" value="1" style="edgeLabel;html=1;align=center;verticalAlign=middle;resizable=0;points=[];" parent="_oEkzCHgtPR4eLIxIRUh-350" vertex="1" connectable="0">
          <mxGeometry x="-0.987" y="1" relative="1" as="geometry">
            <mxPoint x="3" as="offset" />
          </mxGeometry>
        </mxCell>
        <mxCell id="_oEkzCHgtPR4eLIxIRUh-352" value="OF_TYPE" style="edgeLabel;html=1;align=center;verticalAlign=middle;resizable=0;points=[];" parent="_oEkzCHgtPR4eLIxIRUh-350" vertex="1" connectable="0">
          <mxGeometry x="-0.8508" y="-1" relative="1" as="geometry">
            <mxPoint x="-5" y="-2" as="offset" />
          </mxGeometry>
        </mxCell>
        <mxCell id="_oEkzCHgtPR4eLIxIRUh-353" value="" style="endArrow=none;html=1;rounded=0;edgeStyle=orthogonalEdgeStyle;jumpStyle=arc;" parent="1" edge="1">
          <mxGeometry width="50" height="50" relative="1" as="geometry">
            <mxPoint x="650" y="540" as="sourcePoint" />
            <mxPoint x="920" y="490" as="targetPoint" />
            <Array as="points">
              <mxPoint x="650" y="500" />
              <mxPoint x="920" y="500" />
            </Array>
          </mxGeometry>
        </mxCell>
        <mxCell id="_oEkzCHgtPR4eLIxIRUh-354" value="1" style="edgeLabel;html=1;align=center;verticalAlign=middle;resizable=0;points=[];" parent="_oEkzCHgtPR4eLIxIRUh-353" vertex="1" connectable="0">
          <mxGeometry x="-0.9255" y="-1" relative="1" as="geometry">
            <mxPoint x="5" y="3" as="offset" />
          </mxGeometry>
        </mxCell>
        <mxCell id="_oEkzCHgtPR4eLIxIRUh-355" value="RETURNS" style="edgeLabel;html=1;align=center;verticalAlign=middle;resizable=0;points=[];" parent="_oEkzCHgtPR4eLIxIRUh-353" vertex="1" connectable="0">
          <mxGeometry x="-0.4537" y="-2" relative="1" as="geometry">
            <mxPoint x="-7" y="-1" as="offset" />
          </mxGeometry>
        </mxCell>
        <mxCell id="_oEkzCHgtPR4eLIxIRUh-357" value="" style="endArrow=classic;html=1;rounded=0;entryX=0.429;entryY=0;entryDx=0;entryDy=0;entryPerimeter=0;edgeStyle=orthogonalEdgeStyle;" parent="1" target="_oEkzCHgtPR4eLIxIRUh-182" edge="1">
          <mxGeometry width="50" height="50" relative="1" as="geometry">
            <mxPoint x="540" y="810" as="sourcePoint" />
            <mxPoint x="570" y="780" as="targetPoint" />
            <Array as="points">
              <mxPoint x="540" y="810" />
            </Array>
          </mxGeometry>
        </mxCell>
        <mxCell id="_oEkzCHgtPR4eLIxIRUh-359" value="N" style="edgeLabel;html=1;align=center;verticalAlign=middle;resizable=0;points=[];" parent="_oEkzCHgtPR4eLIxIRUh-357" vertex="1" connectable="0">
          <mxGeometry x="0.5115" relative="1" as="geometry">
            <mxPoint x="12" y="-2" as="offset" />
          </mxGeometry>
        </mxCell>
        <mxCell id="_oEkzCHgtPR4eLIxIRUh-363" value="" style="endArrow=none;html=1;rounded=0;edgeStyle=orthogonalEdgeStyle;exitX=0.5;exitY=1;exitDx=0;exitDy=0;" parent="1" source="_oEkzCHgtPR4eLIxIRUh-144" edge="1">
          <mxGeometry width="50" height="50" relative="1" as="geometry">
            <mxPoint x="610" y="780" as="sourcePoint" />
            <mxPoint x="440" y="810" as="targetPoint" />
            <Array as="points">
              <mxPoint x="610" y="810" />
            </Array>
          </mxGeometry>
        </mxCell>
        <mxCell id="_oEkzCHgtPR4eLIxIRUh-364" value="1" style="edgeLabel;html=1;align=center;verticalAlign=middle;resizable=0;points=[];" parent="_oEkzCHgtPR4eLIxIRUh-363" vertex="1" connectable="0">
          <mxGeometry x="-0.9357" y="-1" relative="1" as="geometry">
            <mxPoint x="-5" as="offset" />
          </mxGeometry>
        </mxCell>
        <mxCell id="4Z44cfPewrelUsEEWlHX-18" value="HAS" style="edgeLabel;html=1;align=center;verticalAlign=middle;resizable=0;points=[];" parent="_oEkzCHgtPR4eLIxIRUh-363" vertex="1" connectable="0">
          <mxGeometry x="-0.805" y="-1" relative="1" as="geometry">
            <mxPoint y="2" as="offset" />
          </mxGeometry>
        </mxCell>
        <mxCell id="_oEkzCHgtPR4eLIxIRUh-182" value=":Parameter" style="swimlane;fontStyle=0;childLayout=stackLayout;horizontal=1;startSize=26;fillColor=#dae8fc;horizontalStack=0;resizeParent=1;resizeParentMax=0;resizeLast=0;collapsible=1;marginBottom=0;html=1;strokeColor=#6c8ebf;" parent="1" vertex="1">
          <mxGeometry x="480" y="840" width="140" height="130" as="geometry">
            <mxRectangle x="460" y="320" width="80" height="30" as="alternateBounds" />
          </mxGeometry>
        </mxCell>
        <mxCell id="_oEkzCHgtPR4eLIxIRUh-290" value="+ index: Integer" style="text;strokeColor=none;fillColor=none;align=left;verticalAlign=top;spacingLeft=4;spacingRight=4;overflow=hidden;rotatable=0;points=[[0,0.5],[1,0.5]];portConstraint=eastwest;whiteSpace=wrap;html=1;" parent="_oEkzCHgtPR4eLIxIRUh-182" vertex="1">
          <mxGeometry y="26" width="140" height="26" as="geometry" />
        </mxCell>
        <mxCell id="_oEkzCHgtPR4eLIxIRUh-184" value="+ name: String" style="text;strokeColor=none;fillColor=none;align=left;verticalAlign=top;spacingLeft=4;spacingRight=4;overflow=hidden;rotatable=0;points=[[0,0.5],[1,0.5]];portConstraint=eastwest;whiteSpace=wrap;html=1;" parent="_oEkzCHgtPR4eLIxIRUh-182" vertex="1">
          <mxGeometry y="52" width="140" height="26" as="geometry" />
        </mxCell>
        <mxCell id="_oEkzCHgtPR4eLIxIRUh-190" value="+ optional: Boolean" style="text;strokeColor=none;fillColor=none;align=left;verticalAlign=top;spacingLeft=4;spacingRight=4;overflow=hidden;rotatable=0;points=[[0,0.5],[1,0.5]];portConstraint=eastwest;whiteSpace=wrap;html=1;" parent="_oEkzCHgtPR4eLIxIRUh-182" vertex="1">
          <mxGeometry y="78" width="140" height="26" as="geometry" />
        </mxCell>
        <mxCell id="_oEkzCHgtPR4eLIxIRUh-189" value="&lt;i&gt;+ coordinates&lt;/i&gt;" style="text;strokeColor=none;fillColor=none;align=left;verticalAlign=top;spacingLeft=4;spacingRight=4;overflow=hidden;rotatable=0;points=[[0,0.5],[1,0.5]];portConstraint=eastwest;whiteSpace=wrap;html=1;" parent="_oEkzCHgtPR4eLIxIRUh-182" vertex="1">
          <mxGeometry y="104" width="140" height="26" as="geometry" />
        </mxCell>
        <mxCell id="_oEkzCHgtPR4eLIxIRUh-365" value="" style="endArrow=none;html=1;rounded=0;entryX=0.507;entryY=1.012;entryDx=0;entryDy=0;entryPerimeter=0;edgeStyle=orthogonalEdgeStyle;" parent="1" target="_oEkzCHgtPR4eLIxIRUh-189" edge="1">
          <mxGeometry width="50" height="50" relative="1" as="geometry">
            <mxPoint x="551" y="1010" as="sourcePoint" />
            <mxPoint x="550" y="980" as="targetPoint" />
            <Array as="points">
              <mxPoint x="551" y="1010" />
              <mxPoint x="551" y="971" />
            </Array>
          </mxGeometry>
        </mxCell>
        <mxCell id="_oEkzCHgtPR4eLIxIRUh-366" value="1" style="edgeLabel;html=1;align=center;verticalAlign=middle;resizable=0;points=[];" parent="_oEkzCHgtPR4eLIxIRUh-365" vertex="1" connectable="0">
          <mxGeometry x="0.7857" y="-1" relative="1" as="geometry">
            <mxPoint x="5" y="2" as="offset" />
          </mxGeometry>
        </mxCell>
        <mxCell id="_oEkzCHgtPR4eLIxIRUh-367" value="DECORATED_BY" style="edgeLabel;html=1;align=center;verticalAlign=middle;resizable=0;points=[];" parent="_oEkzCHgtPR4eLIxIRUh-365" vertex="1" connectable="0">
          <mxGeometry x="-0.0251" y="1" relative="1" as="geometry">
            <mxPoint as="offset" />
          </mxGeometry>
        </mxCell>
        <mxCell id="_oEkzCHgtPR4eLIxIRUh-379" value="" style="endArrow=none;html=1;rounded=0;edgeStyle=orthogonalEdgeStyle;exitX=0.214;exitY=0.985;exitDx=0;exitDy=0;exitPerimeter=0;" parent="1" source="_oEkzCHgtPR4eLIxIRUh-153" edge="1">
          <mxGeometry width="50" height="50" relative="1" as="geometry">
            <mxPoint x="570" y="780" as="sourcePoint" />
            <mxPoint x="440" y="790" as="targetPoint" />
            <Array as="points">
              <mxPoint x="570" y="790" />
            </Array>
          </mxGeometry>
        </mxCell>
        <mxCell id="_oEkzCHgtPR4eLIxIRUh-382" value="1" style="edgeLabel;html=1;align=center;verticalAlign=middle;resizable=0;points=[];" parent="_oEkzCHgtPR4eLIxIRUh-379" vertex="1" connectable="0">
          <mxGeometry x="-0.9299" y="-2" relative="1" as="geometry">
            <mxPoint x="-5" y="2" as="offset" />
          </mxGeometry>
        </mxCell>
        <mxCell id="EM1Qpl2ietJLJwzB0dMG-27" value="DECORATED_BY" style="edgeLabel;html=1;align=center;verticalAlign=middle;resizable=0;points=[];" parent="_oEkzCHgtPR4eLIxIRUh-379" vertex="1" connectable="0">
          <mxGeometry x="0.2661" y="-2" relative="1" as="geometry">
            <mxPoint x="12" y="1" as="offset" />
          </mxGeometry>
        </mxCell>
        <mxCell id="_oEkzCHgtPR4eLIxIRUh-397" value="" style="endArrow=none;html=1;rounded=0;edgeStyle=orthogonalEdgeStyle;exitX=1.003;exitY=0.615;exitDx=0;exitDy=0;exitPerimeter=0;jumpStyle=arc;" parent="1" source="_oEkzCHgtPR4eLIxIRUh-193" edge="1">
          <mxGeometry width="50" height="50" relative="1" as="geometry">
            <mxPoint x="470" y="410" as="sourcePoint" />
            <mxPoint x="650" y="240" as="targetPoint" />
            <Array as="points">
              <mxPoint x="650" y="410" />
            </Array>
          </mxGeometry>
        </mxCell>
        <mxCell id="_oEkzCHgtPR4eLIxIRUh-398" value="1" style="edgeLabel;html=1;align=center;verticalAlign=middle;resizable=0;points=[];" parent="_oEkzCHgtPR4eLIxIRUh-397" vertex="1" connectable="0">
          <mxGeometry x="-0.9379" relative="1" as="geometry">
            <mxPoint x="-2" as="offset" />
          </mxGeometry>
        </mxCell>
        <mxCell id="_oEkzCHgtPR4eLIxIRUh-399" value="EXTENDS" style="edgeLabel;html=1;align=center;verticalAlign=middle;resizable=0;points=[];" parent="_oEkzCHgtPR4eLIxIRUh-397" vertex="1" connectable="0">
          <mxGeometry x="-0.8103" relative="1" as="geometry">
            <mxPoint x="12" as="offset" />
          </mxGeometry>
        </mxCell>
        <mxCell id="_oEkzCHgtPR4eLIxIRUh-387" value="" style="endArrow=none;html=1;rounded=0;jumpStyle=arc;" parent="1" edge="1">
          <mxGeometry width="50" height="50" relative="1" as="geometry">
            <mxPoint x="630" y="540" as="sourcePoint" />
            <mxPoint x="630" y="140" as="targetPoint" />
          </mxGeometry>
        </mxCell>
        <mxCell id="_oEkzCHgtPR4eLIxIRUh-388" value="1" style="edgeLabel;html=1;align=center;verticalAlign=middle;resizable=0;points=[];" parent="_oEkzCHgtPR4eLIxIRUh-387" vertex="1" connectable="0">
          <mxGeometry x="-0.9313" relative="1" as="geometry">
            <mxPoint x="6" y="5" as="offset" />
          </mxGeometry>
        </mxCell>
        <mxCell id="_oEkzCHgtPR4eLIxIRUh-389" value="DECLARES" style="edgeLabel;html=1;align=center;verticalAlign=middle;resizable=0;points=[];" parent="_oEkzCHgtPR4eLIxIRUh-387" vertex="1" connectable="0">
          <mxGeometry x="-0.4919" relative="1" as="geometry">
            <mxPoint x="20" y="7" as="offset" />
          </mxGeometry>
        </mxCell>
        <mxCell id="_oEkzCHgtPR4eLIxIRUh-303" value="" style="endArrow=classic;html=1;rounded=0;edgeStyle=orthogonalEdgeStyle;entryX=0.5;entryY=0;entryDx=0;entryDy=0;jumpStyle=arc;" parent="1" target="_oEkzCHgtPR4eLIxIRUh-144" edge="1">
          <mxGeometry width="50" height="50" relative="1" as="geometry">
            <mxPoint x="460" y="270" as="sourcePoint" />
            <mxPoint x="550" y="240" as="targetPoint" />
            <Array as="points">
              <mxPoint x="460" y="270" />
              <mxPoint x="610" y="270" />
            </Array>
          </mxGeometry>
        </mxCell>
        <mxCell id="_oEkzCHgtPR4eLIxIRUh-304" value="1" style="edgeLabel;html=1;align=center;verticalAlign=middle;resizable=0;points=[];" parent="_oEkzCHgtPR4eLIxIRUh-303" vertex="1" connectable="0">
          <mxGeometry x="-0.8209" y="1" relative="1" as="geometry">
            <mxPoint x="-27" y="1" as="offset" />
          </mxGeometry>
        </mxCell>
        <mxCell id="_oEkzCHgtPR4eLIxIRUh-305" value="DECLARES" style="edgeLabel;html=1;align=center;verticalAlign=middle;resizable=0;points=[];" parent="_oEkzCHgtPR4eLIxIRUh-303" vertex="1" connectable="0">
          <mxGeometry x="-0.4389" relative="1" as="geometry">
            <mxPoint x="-60" as="offset" />
          </mxGeometry>
        </mxCell>
        <mxCell id="_oEkzCHgtPR4eLIxIRUh-306" value="N" style="edgeLabel;html=1;align=center;verticalAlign=middle;resizable=0;points=[];" parent="_oEkzCHgtPR4eLIxIRUh-303" vertex="1" connectable="0">
          <mxGeometry x="0.933" y="-2" relative="1" as="geometry">
            <mxPoint x="11" y="5" as="offset" />
          </mxGeometry>
        </mxCell>
        <mxCell id="_oEkzCHgtPR4eLIxIRUh-315" value="" style="endArrow=none;html=1;rounded=0;" parent="1" edge="1">
          <mxGeometry width="50" height="50" relative="1" as="geometry">
            <mxPoint x="460" y="390" as="sourcePoint" />
            <mxPoint x="610" y="390" as="targetPoint" />
          </mxGeometry>
        </mxCell>
        <mxCell id="_oEkzCHgtPR4eLIxIRUh-316" value="DECLARES" style="edgeLabel;html=1;align=center;verticalAlign=middle;resizable=0;points=[];" parent="_oEkzCHgtPR4eLIxIRUh-315" vertex="1" connectable="0">
          <mxGeometry x="-0.1838" y="-2" relative="1" as="geometry">
            <mxPoint x="-11" y="-2" as="offset" />
          </mxGeometry>
        </mxCell>
        <mxCell id="_oEkzCHgtPR4eLIxIRUh-317" value="1" style="edgeLabel;html=1;align=center;verticalAlign=middle;resizable=0;points=[];" parent="_oEkzCHgtPR4eLIxIRUh-315" vertex="1" connectable="0">
          <mxGeometry x="-0.9189" y="-2" relative="1" as="geometry">
            <mxPoint x="4" y="-2" as="offset" />
          </mxGeometry>
        </mxCell>
        <mxCell id="_oEkzCHgtPR4eLIxIRUh-334" value="" style="endArrow=none;html=1;rounded=0;edgeStyle=orthogonalEdgeStyle;jumpStyle=arc;" parent="1" edge="1">
          <mxGeometry width="50" height="50" relative="1" as="geometry">
            <mxPoint x="460" y="370" as="sourcePoint" />
            <mxPoint x="590" y="200" as="targetPoint" />
            <Array as="points">
              <mxPoint x="460" y="370" />
              <mxPoint x="590" y="370" />
            </Array>
          </mxGeometry>
        </mxCell>
        <mxCell id="_oEkzCHgtPR4eLIxIRUh-335" value="1" style="edgeLabel;html=1;align=center;verticalAlign=middle;resizable=0;points=[];" parent="_oEkzCHgtPR4eLIxIRUh-334" vertex="1" connectable="0">
          <mxGeometry x="-0.9273" relative="1" as="geometry">
            <mxPoint x="-1" as="offset" />
          </mxGeometry>
        </mxCell>
        <mxCell id="_oEkzCHgtPR4eLIxIRUh-336" value="DECLARES" style="edgeLabel;html=1;align=center;verticalAlign=middle;resizable=0;points=[];" parent="_oEkzCHgtPR4eLIxIRUh-334" vertex="1" connectable="0">
          <mxGeometry x="-0.7497" y="-1" relative="1" as="geometry">
            <mxPoint x="12" y="-1" as="offset" />
          </mxGeometry>
        </mxCell>
        <mxCell id="_oEkzCHgtPR4eLIxIRUh-268" style="edgeStyle=orthogonalEdgeStyle;rounded=0;orthogonalLoop=1;jettySize=auto;html=1;endArrow=classic;endFill=1;jumpStyle=arc;exitX=1;exitY=0.5;exitDx=0;exitDy=0;" parent="1" source="xKT61zbVaPUPAck2JpFk-12" edge="1">
          <mxGeometry relative="1" as="geometry">
            <mxPoint x="300" y="1090" as="targetPoint" />
            <Array as="points">
              <mxPoint x="290" y="1306" />
              <mxPoint x="290" y="1160" />
              <mxPoint x="270" y="1160" />
              <mxPoint x="270" y="1090" />
            </Array>
            <mxPoint x="290" y="1300" as="sourcePoint" />
          </mxGeometry>
        </mxCell>
        <mxCell id="_oEkzCHgtPR4eLIxIRUh-271" value="1" style="edgeLabel;html=1;align=center;verticalAlign=middle;resizable=0;points=[];" parent="_oEkzCHgtPR4eLIxIRUh-268" vertex="1" connectable="0">
          <mxGeometry x="-0.8651" y="1" relative="1" as="geometry">
            <mxPoint x="-3" y="15" as="offset" />
          </mxGeometry>
        </mxCell>
        <mxCell id="_oEkzCHgtPR4eLIxIRUh-272" value="1" style="edgeLabel;html=1;align=center;verticalAlign=middle;resizable=0;points=[];" parent="_oEkzCHgtPR4eLIxIRUh-268" vertex="1" connectable="0">
          <mxGeometry x="0.8269" y="-1" relative="1" as="geometry">
            <mxPoint x="7" y="-12" as="offset" />
          </mxGeometry>
        </mxCell>
        <mxCell id="xKT61zbVaPUPAck2JpFk-18" value="REFERENCES" style="edgeLabel;html=1;align=center;verticalAlign=middle;resizable=0;points=[];" parent="_oEkzCHgtPR4eLIxIRUh-268" vertex="1" connectable="0">
          <mxGeometry x="-0.6057" y="-1" relative="1" as="geometry">
            <mxPoint x="10" y="-10" as="offset" />
          </mxGeometry>
        </mxCell>
        <mxCell id="_oEkzCHgtPR4eLIxIRUh-401" value="" style="endArrow=classic;html=1;rounded=0;edgeStyle=orthogonalEdgeStyle;entryX=0.25;entryY=0;entryDx=0;entryDy=0;exitX=0.786;exitY=1.007;exitDx=0;exitDy=0;exitPerimeter=0;" parent="1" source="_oEkzCHgtPR4eLIxIRUh-215" target="_oEkzCHgtPR4eLIxIRUh-138" edge="1">
          <mxGeometry width="50" height="50" relative="1" as="geometry">
            <mxPoint x="-30" y="990" as="sourcePoint" />
            <mxPoint x="30" y="980" as="targetPoint" />
            <Array as="points">
              <mxPoint x="-30" y="1030" />
              <mxPoint x="334" y="1030" />
            </Array>
          </mxGeometry>
        </mxCell>
        <mxCell id="_oEkzCHgtPR4eLIxIRUh-402" value="1" style="edgeLabel;html=1;align=center;verticalAlign=middle;resizable=0;points=[];" parent="_oEkzCHgtPR4eLIxIRUh-401" vertex="1" connectable="0">
          <mxGeometry x="-0.9783" y="-1" relative="1" as="geometry">
            <mxPoint x="7" y="5" as="offset" />
          </mxGeometry>
        </mxCell>
        <mxCell id="_oEkzCHgtPR4eLIxIRUh-403" value="INITIALIZED_WITH" style="edgeLabel;html=1;align=center;verticalAlign=middle;resizable=0;points=[];" parent="_oEkzCHgtPR4eLIxIRUh-401" vertex="1" connectable="0">
          <mxGeometry x="-0.6927" relative="1" as="geometry">
            <mxPoint x="52" as="offset" />
          </mxGeometry>
        </mxCell>
        <mxCell id="_oEkzCHgtPR4eLIxIRUh-404" value="0..1" style="edgeLabel;html=1;align=center;verticalAlign=middle;resizable=0;points=[];" parent="_oEkzCHgtPR4eLIxIRUh-401" vertex="1" connectable="0">
          <mxGeometry x="0.9299" relative="1" as="geometry">
            <mxPoint x="15" y="-3" as="offset" />
          </mxGeometry>
        </mxCell>
        <mxCell id="_oEkzCHgtPR4eLIxIRUh-414" value="" style="endArrow=none;html=1;rounded=0;entryX=0;entryY=0.5;entryDx=0;entryDy=0;edgeStyle=orthogonalEdgeStyle;exitX=0.25;exitY=0;exitDx=0;exitDy=0;endFill=0;startArrow=classic;startFill=1;jumpStyle=arc;" parent="1" source="_oEkzCHgtPR4eLIxIRUh-59" target="_oEkzCHgtPR4eLIxIRUh-219" edge="1">
          <mxGeometry width="50" height="50" relative="1" as="geometry">
            <mxPoint x="330" y="30" as="sourcePoint" />
            <mxPoint x="-310" y="760" as="targetPoint" />
            <Array as="points">
              <mxPoint x="925" y="30" />
              <mxPoint x="-260" y="30" />
              <mxPoint x="-260" y="745" />
            </Array>
          </mxGeometry>
        </mxCell>
        <mxCell id="_oEkzCHgtPR4eLIxIRUh-416" value="DECLARES" style="edgeLabel;html=1;align=center;verticalAlign=middle;resizable=0;points=[];" parent="_oEkzCHgtPR4eLIxIRUh-414" vertex="1" connectable="0">
          <mxGeometry x="0.9061" y="-2" relative="1" as="geometry">
            <mxPoint x="39" y="-2" as="offset" />
          </mxGeometry>
        </mxCell>
        <mxCell id="_oEkzCHgtPR4eLIxIRUh-419" value="1" style="edgeLabel;html=1;align=center;verticalAlign=middle;resizable=0;points=[];" parent="_oEkzCHgtPR4eLIxIRUh-414" vertex="1" connectable="0">
          <mxGeometry x="0.9854" y="2" relative="1" as="geometry">
            <mxPoint x="7" y="-6" as="offset" />
          </mxGeometry>
        </mxCell>
        <mxCell id="_oEkzCHgtPR4eLIxIRUh-420" value="N" style="edgeLabel;html=1;align=center;verticalAlign=middle;resizable=0;points=[];" parent="_oEkzCHgtPR4eLIxIRUh-414" vertex="1" connectable="0">
          <mxGeometry x="-0.9797" relative="1" as="geometry">
            <mxPoint x="7" y="5" as="offset" />
          </mxGeometry>
        </mxCell>
        <mxCell id="_oEkzCHgtPR4eLIxIRUh-407" value="" style="endArrow=none;html=1;rounded=0;entryX=0;entryY=0.5;entryDx=0;entryDy=0;edgeStyle=orthogonalEdgeStyle;jumpStyle=arc;" parent="1" target="_oEkzCHgtPR4eLIxIRUh-213" edge="1">
          <mxGeometry width="50" height="50" relative="1" as="geometry">
            <mxPoint x="-240" y="720" as="sourcePoint" />
            <mxPoint x="-170" y="910" as="targetPoint" />
          </mxGeometry>
        </mxCell>
        <mxCell id="_oEkzCHgtPR4eLIxIRUh-408" value="OF_TYPE" style="edgeLabel;html=1;align=center;verticalAlign=middle;resizable=0;points=[];" parent="_oEkzCHgtPR4eLIxIRUh-407" vertex="1" connectable="0">
          <mxGeometry x="0.5051" y="-1" relative="1" as="geometry">
            <mxPoint x="4" y="-1" as="offset" />
          </mxGeometry>
        </mxCell>
        <mxCell id="_oEkzCHgtPR4eLIxIRUh-409" value="1" style="edgeLabel;html=1;align=center;verticalAlign=middle;resizable=0;points=[];" parent="_oEkzCHgtPR4eLIxIRUh-407" vertex="1" connectable="0">
          <mxGeometry x="0.8662" y="-1" relative="1" as="geometry">
            <mxPoint x="7" y="-10" as="offset" />
          </mxGeometry>
        </mxCell>
        <mxCell id="_oEkzCHgtPR4eLIxIRUh-421" value="" style="endArrow=none;html=1;rounded=0;exitX=0.71;exitY=1.002;exitDx=0;exitDy=0;exitPerimeter=0;edgeStyle=orthogonalEdgeStyle;endFill=0;jumpStyle=arc;" parent="1" source="_oEkzCHgtPR4eLIxIRUh-211" edge="1">
          <mxGeometry width="50" height="50" relative="1" as="geometry">
            <mxPoint x="-30" y="640" as="sourcePoint" />
            <mxPoint x="91" y="1030" as="targetPoint" />
            <Array as="points">
              <mxPoint x="-41" y="600" />
              <mxPoint x="91" y="600" />
              <mxPoint x="91" y="1020" />
            </Array>
          </mxGeometry>
        </mxCell>
        <mxCell id="_oEkzCHgtPR4eLIxIRUh-422" value="1" style="edgeLabel;html=1;align=center;verticalAlign=middle;resizable=0;points=[];" parent="_oEkzCHgtPR4eLIxIRUh-421" vertex="1" connectable="0">
          <mxGeometry x="-0.967" relative="1" as="geometry">
            <mxPoint x="8" y="-1" as="offset" />
          </mxGeometry>
        </mxCell>
        <mxCell id="_oEkzCHgtPR4eLIxIRUh-423" value="INITIALIZED_WITH" style="edgeLabel;html=1;align=center;verticalAlign=middle;resizable=0;points=[];" parent="_oEkzCHgtPR4eLIxIRUh-421" vertex="1" connectable="0">
          <mxGeometry x="-0.7921" y="-1" relative="1" as="geometry">
            <mxPoint x="-11" y="-14" as="offset" />
          </mxGeometry>
        </mxCell>
        <mxCell id="_oEkzCHgtPR4eLIxIRUh-300" value="" style="endArrow=classic;html=1;rounded=0;edgeStyle=orthogonalEdgeStyle;jumpStyle=arc;" parent="1" edge="1">
          <mxGeometry width="50" height="50" relative="1" as="geometry">
            <mxPoint x="50" y="690" as="sourcePoint" />
            <mxPoint y="850" as="targetPoint" />
            <Array as="points">
              <mxPoint x="50" y="850" />
            </Array>
          </mxGeometry>
        </mxCell>
        <mxCell id="_oEkzCHgtPR4eLIxIRUh-301" value="N" style="edgeLabel;html=1;align=center;verticalAlign=middle;resizable=0;points=[];" parent="_oEkzCHgtPR4eLIxIRUh-300" vertex="1" connectable="0">
          <mxGeometry x="0.8656" y="-2" relative="1" as="geometry">
            <mxPoint x="2" y="-6" as="offset" />
          </mxGeometry>
        </mxCell>
        <mxCell id="_oEkzCHgtPR4eLIxIRUh-291" style="edgeStyle=orthogonalEdgeStyle;rounded=0;orthogonalLoop=1;jettySize=auto;html=1;entryX=-0.003;entryY=0.061;entryDx=0;entryDy=0;entryPerimeter=0;jumpStyle=arc;" parent="1" edge="1">
          <mxGeometry relative="1" as="geometry">
            <mxPoint x="320" y="354" as="targetPoint" />
            <mxPoint x="260" y="202" as="sourcePoint" />
            <Array as="points">
              <mxPoint x="260" y="354" />
            </Array>
          </mxGeometry>
        </mxCell>
        <mxCell id="_oEkzCHgtPR4eLIxIRUh-294" value="N" style="edgeLabel;html=1;align=center;verticalAlign=middle;resizable=0;points=[];" parent="_oEkzCHgtPR4eLIxIRUh-291" vertex="1" connectable="0">
          <mxGeometry x="0.7166" y="-2" relative="1" as="geometry">
            <mxPoint x="15" y="-12" as="offset" />
          </mxGeometry>
        </mxCell>
        <mxCell id="_oEkzCHgtPR4eLIxIRUh-297" value="" style="endArrow=classic;html=1;rounded=0;" parent="1" edge="1">
          <mxGeometry width="50" height="50" relative="1" as="geometry">
            <mxPoint x="260" y="260" as="sourcePoint" />
            <mxPoint y="260" as="targetPoint" />
          </mxGeometry>
        </mxCell>
        <mxCell id="_oEkzCHgtPR4eLIxIRUh-298" value="N" style="edgeLabel;html=1;align=center;verticalAlign=middle;resizable=0;points=[];" parent="_oEkzCHgtPR4eLIxIRUh-297" vertex="1" connectable="0">
          <mxGeometry x="0.8498" relative="1" as="geometry">
            <mxPoint x="-4" y="-8" as="offset" />
          </mxGeometry>
        </mxCell>
        <mxCell id="_oEkzCHgtPR4eLIxIRUh-299" value="" style="endArrow=classic;html=1;rounded=0;edgeStyle=orthogonalEdgeStyle;jumpStyle=arc;" parent="1" edge="1">
          <mxGeometry width="50" height="50" relative="1" as="geometry">
            <mxPoint x="50" y="260" as="sourcePoint" />
            <mxPoint y="690" as="targetPoint" />
            <Array as="points">
              <mxPoint x="50" y="690" />
            </Array>
          </mxGeometry>
        </mxCell>
        <mxCell id="_oEkzCHgtPR4eLIxIRUh-302" value="N" style="edgeLabel;html=1;align=center;verticalAlign=middle;resizable=0;points=[];" parent="_oEkzCHgtPR4eLIxIRUh-299" vertex="1" connectable="0">
          <mxGeometry x="0.9375" relative="1" as="geometry">
            <mxPoint x="1" y="-8" as="offset" />
          </mxGeometry>
        </mxCell>
        <mxCell id="_oEkzCHgtPR4eLIxIRUh-113" style="edgeStyle=orthogonalEdgeStyle;rounded=0;orthogonalLoop=1;jettySize=auto;html=1;entryX=-0.004;entryY=0.076;entryDx=0;entryDy=0;entryPerimeter=0;exitX=0.5;exitY=1;exitDx=0;exitDy=0;jumpStyle=arc;" parent="1" source="_oEkzCHgtPR4eLIxIRUh-105" edge="1">
          <mxGeometry relative="1" as="geometry">
            <mxPoint x="320.00000000000006" y="99.88000000000011" as="targetPoint" />
            <mxPoint x="260" y="40" as="sourcePoint" />
            <Array as="points">
              <mxPoint x="260" y="100" />
            </Array>
          </mxGeometry>
        </mxCell>
        <mxCell id="_oEkzCHgtPR4eLIxIRUh-114" value="1" style="edgeLabel;html=1;align=center;verticalAlign=middle;resizable=0;points=[];" parent="_oEkzCHgtPR4eLIxIRUh-113" vertex="1" connectable="0">
          <mxGeometry x="-0.8485" relative="1" as="geometry">
            <mxPoint x="-8" y="-6" as="offset" />
          </mxGeometry>
        </mxCell>
        <mxCell id="_oEkzCHgtPR4eLIxIRUh-115" value="DECLARES" style="edgeLabel;html=1;align=center;verticalAlign=middle;resizable=0;points=[];" parent="_oEkzCHgtPR4eLIxIRUh-113" vertex="1" connectable="0">
          <mxGeometry x="-0.5667" y="-1" relative="1" as="geometry">
            <mxPoint y="-17" as="offset" />
          </mxGeometry>
        </mxCell>
        <mxCell id="_oEkzCHgtPR4eLIxIRUh-116" value="N" style="edgeLabel;html=1;align=center;verticalAlign=middle;resizable=0;points=[];" parent="_oEkzCHgtPR4eLIxIRUh-113" vertex="1" connectable="0">
          <mxGeometry x="0.7166" y="-2" relative="1" as="geometry">
            <mxPoint x="9" y="-10" as="offset" />
          </mxGeometry>
        </mxCell>
        <mxCell id="_oEkzCHgtPR4eLIxIRUh-65" style="edgeStyle=orthogonalEdgeStyle;rounded=0;orthogonalLoop=1;jettySize=auto;html=1;jumpStyle=arc;" parent="1" target="_oEkzCHgtPR4eLIxIRUh-97" edge="1">
          <mxGeometry relative="1" as="geometry">
            <mxPoint x="1140" y="690" as="sourcePoint" />
            <mxPoint x="970" y="220" as="targetPoint" />
            <Array as="points">
              <mxPoint x="1090" y="690" />
              <mxPoint x="1090" y="640" />
              <mxPoint x="970" y="640" />
            </Array>
          </mxGeometry>
        </mxCell>
        <mxCell id="_oEkzCHgtPR4eLIxIRUh-66" value="DECLARES" style="edgeLabel;html=1;align=center;verticalAlign=middle;resizable=0;points=[];" parent="_oEkzCHgtPR4eLIxIRUh-65" vertex="1" connectable="0">
          <mxGeometry x="-0.794" y="-2" relative="1" as="geometry">
            <mxPoint x="-42" y="-32" as="offset" />
          </mxGeometry>
        </mxCell>
        <mxCell id="_oEkzCHgtPR4eLIxIRUh-67" value="1" style="edgeLabel;html=1;align=center;verticalAlign=middle;resizable=0;points=[];" parent="_oEkzCHgtPR4eLIxIRUh-65" vertex="1" connectable="0">
          <mxGeometry x="-0.9755" y="-1" relative="1" as="geometry">
            <mxPoint x="-1" as="offset" />
          </mxGeometry>
        </mxCell>
        <mxCell id="_oEkzCHgtPR4eLIxIRUh-69" value="N" style="edgeLabel;html=1;align=center;verticalAlign=middle;resizable=0;points=[];" parent="_oEkzCHgtPR4eLIxIRUh-65" vertex="1" connectable="0">
          <mxGeometry x="0.9432" relative="1" as="geometry">
            <mxPoint x="9" y="-6" as="offset" />
          </mxGeometry>
        </mxCell>
        <mxCell id="_oEkzCHgtPR4eLIxIRUh-87" style="edgeStyle=orthogonalEdgeStyle;rounded=0;orthogonalLoop=1;jettySize=auto;html=1;endArrow=none;endFill=0;jumpStyle=arc;dashed=1;" parent="1" edge="1">
          <mxGeometry relative="1" as="geometry">
            <mxPoint x="1110" y="670" as="targetPoint" />
            <mxPoint x="1140" y="770" as="sourcePoint" />
            <Array as="points">
              <mxPoint x="1110" y="770" />
              <mxPoint x="1110" y="670" />
            </Array>
          </mxGeometry>
        </mxCell>
        <mxCell id="4Z44cfPewrelUsEEWlHX-3" value="" style="endArrow=none;html=1;rounded=0;edgeStyle=orthogonalEdgeStyle;entryX=0.001;entryY=0.401;entryDx=0;entryDy=0;entryPerimeter=0;jumpStyle=arc;" parent="1" target="_oEkzCHgtPR4eLIxIRUh-105" edge="1">
          <mxGeometry width="50" height="50" relative="1" as="geometry">
            <mxPoint x="260" y="80" as="sourcePoint" />
            <mxPoint x="190" y="-40" as="targetPoint" />
            <Array as="points">
              <mxPoint y="80" />
              <mxPoint y="-50" />
            </Array>
          </mxGeometry>
        </mxCell>
        <mxCell id="4Z44cfPewrelUsEEWlHX-6" value="1" style="edgeLabel;html=1;align=center;verticalAlign=middle;resizable=0;points=[];" parent="4Z44cfPewrelUsEEWlHX-3" vertex="1" connectable="0">
          <mxGeometry x="0.9547" y="1" relative="1" as="geometry">
            <mxPoint x="7" y="-7" as="offset" />
          </mxGeometry>
        </mxCell>
        <mxCell id="4Z44cfPewrelUsEEWlHX-4" value="EXPORTS&lt;br&gt;+ exportedName: String" style="rounded=0;whiteSpace=wrap;html=1;dashed=1;dashPattern=1 1;" parent="1" vertex="1">
          <mxGeometry x="19" y="-65" width="141" height="30" as="geometry" />
        </mxCell>
        <mxCell id="4Z44cfPewrelUsEEWlHX-7" value=":ExternalModule" style="swimlane;fontStyle=0;childLayout=stackLayout;horizontal=1;startSize=26;fillColor=#e1d5e7;horizontalStack=0;resizeParent=1;resizeParentMax=0;resizeLast=0;collapsible=1;marginBottom=0;html=1;strokeColor=#9673a6;" parent="1" vertex="1">
          <mxGeometry x="700" y="-72" width="140" height="52" as="geometry" />
        </mxCell>
        <mxCell id="OVr4s_sfS-ipXp2ctWE3-4" value="+ globalFqn: String" style="text;strokeColor=none;fillColor=none;align=left;verticalAlign=top;spacingLeft=4;spacingRight=4;overflow=hidden;rotatable=0;points=[[0,0.5],[1,0.5]];portConstraint=eastwest;whiteSpace=wrap;html=1;" parent="4Z44cfPewrelUsEEWlHX-7" vertex="1">
          <mxGeometry y="26" width="140" height="26" as="geometry" />
        </mxCell>
        <mxCell id="4Z44cfPewrelUsEEWlHX-11" style="edgeStyle=orthogonalEdgeStyle;rounded=0;orthogonalLoop=1;jettySize=auto;html=1;endArrow=none;endFill=0;startArrow=classic;startFill=1;" parent="1" edge="1">
          <mxGeometry relative="1" as="geometry">
            <mxPoint x="700" y="-50" as="sourcePoint" />
            <mxPoint x="580" y="-50.18" as="targetPoint" />
            <Array as="points">
              <mxPoint x="700" y="-50" />
            </Array>
          </mxGeometry>
        </mxCell>
        <mxCell id="4Z44cfPewrelUsEEWlHX-12" value="USES" style="edgeLabel;html=1;align=center;verticalAlign=middle;resizable=0;points=[];" parent="4Z44cfPewrelUsEEWlHX-11" vertex="1" connectable="0">
          <mxGeometry x="-0.1533" y="1" relative="1" as="geometry">
            <mxPoint x="-14" as="offset" />
          </mxGeometry>
        </mxCell>
        <mxCell id="4Z44cfPewrelUsEEWlHX-13" value="N" style="edgeLabel;html=1;align=center;verticalAlign=middle;resizable=0;points=[];" parent="4Z44cfPewrelUsEEWlHX-11" vertex="1" connectable="0">
          <mxGeometry x="-0.7367" y="1" relative="1" as="geometry">
            <mxPoint y="-10" as="offset" />
          </mxGeometry>
        </mxCell>
        <mxCell id="4Z44cfPewrelUsEEWlHX-14" value="1" style="edgeLabel;html=1;align=center;verticalAlign=middle;resizable=0;points=[];" parent="4Z44cfPewrelUsEEWlHX-11" vertex="1" connectable="0">
          <mxGeometry x="0.3633" relative="1" as="geometry">
            <mxPoint x="-32" y="-9" as="offset" />
          </mxGeometry>
        </mxCell>
        <mxCell id="4Z44cfPewrelUsEEWlHX-22" style="edgeStyle=orthogonalEdgeStyle;rounded=0;orthogonalLoop=1;jettySize=auto;html=1;endArrow=none;endFill=0;startArrow=classic;startFill=1;" parent="1" edge="1">
          <mxGeometry relative="1" as="geometry">
            <mxPoint x="1040" y="-50" as="sourcePoint" />
            <mxPoint x="840" y="-50.34" as="targetPoint" />
          </mxGeometry>
        </mxCell>
        <mxCell id="4Z44cfPewrelUsEEWlHX-24" value="N" style="edgeLabel;html=1;align=center;verticalAlign=middle;resizable=0;points=[];" parent="4Z44cfPewrelUsEEWlHX-22" vertex="1" connectable="0">
          <mxGeometry x="-0.7367" y="1" relative="1" as="geometry">
            <mxPoint x="11" y="-10" as="offset" />
          </mxGeometry>
        </mxCell>
        <mxCell id="4Z44cfPewrelUsEEWlHX-25" value="1" style="edgeLabel;html=1;align=center;verticalAlign=middle;resizable=0;points=[];" parent="4Z44cfPewrelUsEEWlHX-22" vertex="1" connectable="0">
          <mxGeometry x="0.3633" relative="1" as="geometry">
            <mxPoint x="-57" y="-9" as="offset" />
          </mxGeometry>
        </mxCell>
        <mxCell id="4Z44cfPewrelUsEEWlHX-26" value=":ExternalDeclaration" style="swimlane;fontStyle=0;childLayout=stackLayout;horizontal=1;startSize=26;fillColor=#e1d5e7;horizontalStack=0;resizeParent=1;resizeParentMax=0;resizeLast=0;collapsible=1;marginBottom=0;html=1;strokeColor=#9673a6;" parent="1" vertex="1">
          <mxGeometry x="1040" y="-72" width="140" height="52" as="geometry" />
        </mxCell>
        <mxCell id="4Z44cfPewrelUsEEWlHX-27" value="+ globalFqn: String" style="text;strokeColor=none;fillColor=none;align=left;verticalAlign=top;spacingLeft=4;spacingRight=4;overflow=hidden;rotatable=0;points=[[0,0.5],[1,0.5]];portConstraint=eastwest;whiteSpace=wrap;html=1;" parent="4Z44cfPewrelUsEEWlHX-26" vertex="1">
          <mxGeometry y="26" width="140" height="26" as="geometry" />
        </mxCell>
        <mxCell id="4Z44cfPewrelUsEEWlHX-29" value="" style="endArrow=none;html=1;rounded=0;" parent="1" edge="1">
          <mxGeometry width="50" height="50" relative="1" as="geometry">
            <mxPoint x="620" y="520" as="sourcePoint" />
            <mxPoint x="610" y="520" as="targetPoint" />
          </mxGeometry>
        </mxCell>
        <mxCell id="xKT61zbVaPUPAck2JpFk-2" value=":Type:TypeParameterReference" style="swimlane;fontStyle=0;childLayout=stackLayout;horizontal=1;startSize=26;fillColor=#f8cecc;horizontalStack=0;resizeParent=1;resizeParentMax=0;resizeLast=0;collapsible=1;marginBottom=0;html=1;strokeColor=#b85450;" parent="1" vertex="1">
          <mxGeometry x="880" y="700" width="200" height="52" as="geometry" />
        </mxCell>
        <mxCell id="xKT61zbVaPUPAck2JpFk-3" value="+ name: String" style="text;strokeColor=none;fillColor=none;align=left;verticalAlign=top;spacingLeft=4;spacingRight=4;overflow=hidden;rotatable=0;points=[[0,0.5],[1,0.5]];portConstraint=eastwest;whiteSpace=wrap;html=1;" parent="xKT61zbVaPUPAck2JpFk-2" vertex="1">
          <mxGeometry y="26" width="200" height="26" as="geometry" />
        </mxCell>
        <mxCell id="xKT61zbVaPUPAck2JpFk-5" value="" style="endArrow=none;dashed=1;html=1;rounded=0;" parent="1" edge="1">
          <mxGeometry width="50" height="50" relative="1" as="geometry">
            <mxPoint x="1080" y="710" as="sourcePoint" />
            <mxPoint x="1110" y="710" as="targetPoint" />
          </mxGeometry>
        </mxCell>
        <mxCell id="xKT61zbVaPUPAck2JpFk-6" value="" style="endArrow=classic;html=1;rounded=0;jumpStyle=arc;entryX=0.429;entryY=1.025;entryDx=0;entryDy=0;entryPerimeter=0;" parent="1" target="_oEkzCHgtPR4eLIxIRUh-97" edge="1">
          <mxGeometry width="50" height="50" relative="1" as="geometry">
            <mxPoint x="950" y="700" as="sourcePoint" />
            <mxPoint x="950" y="200" as="targetPoint" />
          </mxGeometry>
        </mxCell>
        <mxCell id="xKT61zbVaPUPAck2JpFk-8" value="1" style="edgeLabel;html=1;align=center;verticalAlign=middle;resizable=0;points=[];" parent="xKT61zbVaPUPAck2JpFk-6" vertex="1" connectable="0">
          <mxGeometry x="0.9507" y="1" relative="1" as="geometry">
            <mxPoint x="9" y="-1" as="offset" />
          </mxGeometry>
        </mxCell>
        <mxCell id="xKT61zbVaPUPAck2JpFk-9" value="REFERENCES" style="edgeLabel;html=1;align=center;verticalAlign=middle;resizable=0;points=[];" parent="xKT61zbVaPUPAck2JpFk-6" vertex="1" connectable="0">
          <mxGeometry x="-0.9358" relative="1" as="geometry">
            <mxPoint y="-9" as="offset" />
          </mxGeometry>
        </mxCell>
        <mxCell id="xKT61zbVaPUPAck2JpFk-10" value="1" style="edgeLabel;html=1;align=center;verticalAlign=middle;resizable=0;points=[];" parent="xKT61zbVaPUPAck2JpFk-6" vertex="1" connectable="0">
          <mxGeometry x="-0.959" y="1" relative="1" as="geometry">
            <mxPoint x="7" y="1" as="offset" />
          </mxGeometry>
        </mxCell>
        <mxCell id="xKT61zbVaPUPAck2JpFk-12" value=":Value:ObjectMember" style="swimlane;fontStyle=0;childLayout=stackLayout;horizontal=1;startSize=26;fillColor=#d5e8d4;horizontalStack=0;resizeParent=1;resizeParentMax=0;resizeLast=0;collapsible=1;marginBottom=0;html=1;strokeColor=#82b366;" parent="1" vertex="1">
          <mxGeometry x="139" y="1280" width="140" height="52" as="geometry" />
        </mxCell>
        <mxCell id="xKT61zbVaPUPAck2JpFk-13" value="+ name: String" style="text;strokeColor=none;fillColor=none;align=left;verticalAlign=top;spacingLeft=4;spacingRight=4;overflow=hidden;rotatable=0;points=[[0,0.5],[1,0.5]];portConstraint=eastwest;whiteSpace=wrap;html=1;" parent="xKT61zbVaPUPAck2JpFk-12" vertex="1">
          <mxGeometry y="26" width="140" height="26" as="geometry" />
        </mxCell>
        <mxCell id="xKT61zbVaPUPAck2JpFk-14" style="edgeStyle=orthogonalEdgeStyle;rounded=0;orthogonalLoop=1;jettySize=auto;html=1;exitX=0.5;exitY=1;exitDx=0;exitDy=0;entryX=0.5;entryY=0;entryDx=0;entryDy=0;" parent="1" edge="1">
          <mxGeometry relative="1" as="geometry">
            <mxPoint x="210" y="1230" as="sourcePoint" />
            <mxPoint x="210" y="1280" as="targetPoint" />
          </mxGeometry>
        </mxCell>
        <mxCell id="xKT61zbVaPUPAck2JpFk-15" value="HAS_MEMBER" style="edgeLabel;html=1;align=center;verticalAlign=middle;resizable=0;points=[];" parent="xKT61zbVaPUPAck2JpFk-14" vertex="1" connectable="0">
          <mxGeometry x="-0.1533" y="1" relative="1" as="geometry">
            <mxPoint y="2" as="offset" />
          </mxGeometry>
        </mxCell>
        <mxCell id="xKT61zbVaPUPAck2JpFk-16" value="1" style="edgeLabel;html=1;align=center;verticalAlign=middle;resizable=0;points=[];" parent="xKT61zbVaPUPAck2JpFk-14" vertex="1" connectable="0">
          <mxGeometry x="-0.7367" y="1" relative="1" as="geometry">
            <mxPoint x="9" as="offset" />
          </mxGeometry>
        </mxCell>
        <mxCell id="xKT61zbVaPUPAck2JpFk-17" value="N" style="edgeLabel;html=1;align=center;verticalAlign=middle;resizable=0;points=[];" parent="xKT61zbVaPUPAck2JpFk-14" vertex="1" connectable="0">
          <mxGeometry x="0.3633" relative="1" as="geometry">
            <mxPoint x="10" y="4" as="offset" />
          </mxGeometry>
        </mxCell>
        <mxCell id="xKT61zbVaPUPAck2JpFk-19" value="" style="endArrow=none;dashed=1;html=1;rounded=0;edgeStyle=orthogonalEdgeStyle;exitX=0;exitY=0.5;exitDx=0;exitDy=0;" parent="1" source="xKT61zbVaPUPAck2JpFk-12" edge="1">
          <mxGeometry width="50" height="50" relative="1" as="geometry">
            <mxPoint x="60" y="1350" as="sourcePoint" />
            <mxPoint x="130" y="1140" as="targetPoint" />
            <Array as="points">
              <mxPoint x="130" y="1306" />
            </Array>
          </mxGeometry>
        </mxCell>
        <mxCell id="xKT61zbVaPUPAck2JpFk-20" value="HAS_TYPE_ARGUMENT&lt;br&gt;+ index: Integer" style="rounded=0;whiteSpace=wrap;html=1;dashed=1;dashPattern=1 1;" parent="1" vertex="1">
          <mxGeometry x="1298" y="131" width="145" height="30" as="geometry" />
        </mxCell>
        <mxCell id="ialg9z_gfWiT8zl5qz28-1" value=":Decorator" style="swimlane;fontStyle=0;childLayout=stackLayout;horizontal=1;startSize=26;fillColor=#dae8fc;horizontalStack=0;resizeParent=1;resizeParentMax=0;resizeLast=0;collapsible=1;marginBottom=0;html=1;strokeColor=#6c8ebf;" parent="1" vertex="1">
          <mxGeometry x="820" y="920" width="140" height="52" as="geometry">
            <mxRectangle x="460" y="320" width="80" height="30" as="alternateBounds" />
          </mxGeometry>
        </mxCell>
        <mxCell id="ialg9z_gfWiT8zl5qz28-5" value="&lt;i&gt;+ coordinates&lt;/i&gt;" style="text;strokeColor=none;fillColor=none;align=left;verticalAlign=top;spacingLeft=4;spacingRight=4;overflow=hidden;rotatable=0;points=[[0,0.5],[1,0.5]];portConstraint=eastwest;whiteSpace=wrap;html=1;" parent="ialg9z_gfWiT8zl5qz28-1" vertex="1">
          <mxGeometry y="26" width="140" height="26" as="geometry" />
        </mxCell>
        <mxCell id="ialg9z_gfWiT8zl5qz28-6" value="" style="endArrow=classic;html=1;rounded=0;" parent="1" edge="1">
          <mxGeometry width="50" height="50" relative="1" as="geometry">
            <mxPoint x="720" y="930" as="sourcePoint" />
            <mxPoint x="820" y="930" as="targetPoint" />
          </mxGeometry>
        </mxCell>
        <mxCell id="ialg9z_gfWiT8zl5qz28-7" value="N" style="edgeLabel;html=1;align=center;verticalAlign=middle;resizable=0;points=[];" parent="ialg9z_gfWiT8zl5qz28-6" vertex="1" connectable="0">
          <mxGeometry x="0.4484" y="3" relative="1" as="geometry">
            <mxPoint x="10" y="-6" as="offset" />
          </mxGeometry>
        </mxCell>
        <mxCell id="ialg9z_gfWiT8zl5qz28-8" value="" style="endArrow=classic;html=1;rounded=0;edgeStyle=orthogonalEdgeStyle;exitX=0.527;exitY=1.04;exitDx=0;exitDy=0;exitPerimeter=0;entryX=0.75;entryY=0;entryDx=0;entryDy=0;" parent="1" source="ialg9z_gfWiT8zl5qz28-5" target="_oEkzCHgtPR4eLIxIRUh-138" edge="1">
          <mxGeometry width="50" height="50" relative="1" as="geometry">
            <mxPoint x="820" y="1060" as="sourcePoint" />
            <mxPoint x="870" y="1010" as="targetPoint" />
            <Array as="points">
              <mxPoint x="894" y="1030" />
              <mxPoint x="404" y="1030" />
            </Array>
          </mxGeometry>
        </mxCell>
        <mxCell id="ialg9z_gfWiT8zl5qz28-9" value="HAS_VALUE" style="edgeLabel;html=1;align=center;verticalAlign=middle;resizable=0;points=[];" parent="ialg9z_gfWiT8zl5qz28-8" vertex="1" connectable="0">
          <mxGeometry x="0.1099" y="-1" relative="1" as="geometry">
            <mxPoint x="254" y="-29" as="offset" />
          </mxGeometry>
        </mxCell>
        <mxCell id="ialg9z_gfWiT8zl5qz28-10" value="1" style="edgeLabel;html=1;align=center;verticalAlign=middle;resizable=0;points=[];" parent="ialg9z_gfWiT8zl5qz28-8" vertex="1" connectable="0">
          <mxGeometry x="-0.9638" relative="1" as="geometry">
            <mxPoint x="9" y="-3" as="offset" />
          </mxGeometry>
        </mxCell>
        <mxCell id="ialg9z_gfWiT8zl5qz28-11" value="0..1" style="edgeLabel;html=1;align=center;verticalAlign=middle;resizable=0;points=[];" parent="ialg9z_gfWiT8zl5qz28-8" vertex="1" connectable="0">
          <mxGeometry x="0.9206" y="1" relative="1" as="geometry">
            <mxPoint x="-16" y="1" as="offset" />
          </mxGeometry>
        </mxCell>
        <mxCell id="ialg9z_gfWiT8zl5qz28-13" value="" style="endArrow=none;html=1;rounded=0;jumpStyle=arc;" parent="1" edge="1">
          <mxGeometry width="50" height="50" relative="1" as="geometry">
            <mxPoint x="720" y="900" as="sourcePoint" />
            <mxPoint x="720" y="820" as="targetPoint" />
          </mxGeometry>
        </mxCell>
        <mxCell id="ialg9z_gfWiT8zl5qz28-14" value="DECORATED_BY" style="edgeLabel;html=1;align=center;verticalAlign=middle;resizable=0;points=[];" parent="ialg9z_gfWiT8zl5qz28-13" vertex="1" connectable="0">
          <mxGeometry x="0.6814" relative="1" as="geometry">
            <mxPoint y="17" as="offset" />
          </mxGeometry>
        </mxCell>
        <mxCell id="ialg9z_gfWiT8zl5qz28-15" value="1" style="edgeLabel;html=1;align=center;verticalAlign=middle;resizable=0;points=[];" parent="ialg9z_gfWiT8zl5qz28-13" vertex="1" connectable="0">
          <mxGeometry x="0.7163" y="-1" relative="1" as="geometry">
            <mxPoint x="6" y="-2" as="offset" />
          </mxGeometry>
        </mxCell>
        <mxCell id="EM1Qpl2ietJLJwzB0dMG-2" value=":AccessorProperty" style="swimlane;fontStyle=0;childLayout=stackLayout;horizontal=1;startSize=26;fillColor=#dae8fc;horizontalStack=0;resizeParent=1;resizeParentMax=0;resizeLast=0;collapsible=1;marginBottom=0;html=1;strokeColor=#6c8ebf;" parent="1" vertex="1">
          <mxGeometry x="380" y="560" width="140" height="78" as="geometry">
            <mxRectangle x="460" y="320" width="80" height="30" as="alternateBounds" />
          </mxGeometry>
        </mxCell>
        <mxCell id="EM1Qpl2ietJLJwzB0dMG-3" value="+ global/localFqn: String" style="text;strokeColor=none;fillColor=none;align=left;verticalAlign=top;spacingLeft=4;spacingRight=4;overflow=hidden;rotatable=0;points=[[0,0.5],[1,0.5]];portConstraint=eastwest;whiteSpace=wrap;html=1;" parent="EM1Qpl2ietJLJwzB0dMG-2" vertex="1">
          <mxGeometry y="26" width="140" height="26" as="geometry" />
        </mxCell>
        <mxCell id="EM1Qpl2ietJLJwzB0dMG-4" value="+ name: String" style="text;strokeColor=none;fillColor=none;align=left;verticalAlign=top;spacingLeft=4;spacingRight=4;overflow=hidden;rotatable=0;points=[[0,0.5],[1,0.5]];portConstraint=eastwest;whiteSpace=wrap;html=1;" parent="EM1Qpl2ietJLJwzB0dMG-2" vertex="1">
          <mxGeometry y="52" width="140" height="26" as="geometry" />
        </mxCell>
        <mxCell id="EM1Qpl2ietJLJwzB0dMG-25" value="" style="endArrow=none;html=1;rounded=0;" parent="1" edge="1">
          <mxGeometry width="50" height="50" relative="1" as="geometry">
            <mxPoint x="120" y="790" as="sourcePoint" />
            <mxPoint x="130" y="790" as="targetPoint" />
          </mxGeometry>
        </mxCell>
        <mxCell id="EM1Qpl2ietJLJwzB0dMG-26" value="" style="endArrow=none;html=1;rounded=0;" parent="1" edge="1">
          <mxGeometry width="50" height="50" relative="1" as="geometry">
            <mxPoint x="290" y="810" as="sourcePoint" />
            <mxPoint x="440" y="810" as="targetPoint" />
          </mxGeometry>
        </mxCell>
        <mxCell id="EM1Qpl2ietJLJwzB0dMG-36" value=":AutoAccessor" style="swimlane;fontStyle=0;childLayout=stackLayout;horizontal=1;startSize=26;fillColor=#dae8fc;horizontalStack=0;resizeParent=1;resizeParentMax=0;resizeLast=0;collapsible=1;marginBottom=0;html=1;strokeColor=#6c8ebf;" parent="1" vertex="1">
          <mxGeometry x="220" y="560" width="140" height="156" as="geometry">
            <mxRectangle x="460" y="320" width="80" height="30" as="alternateBounds" />
          </mxGeometry>
        </mxCell>
        <mxCell id="EM1Qpl2ietJLJwzB0dMG-37" value="+ visibility: String" style="text;strokeColor=none;fillColor=none;align=left;verticalAlign=top;spacingLeft=4;spacingRight=4;overflow=hidden;rotatable=0;points=[[0,0.5],[1,0.5]];portConstraint=eastwest;whiteSpace=wrap;html=1;" parent="EM1Qpl2ietJLJwzB0dMG-36" vertex="1">
          <mxGeometry y="26" width="140" height="26" as="geometry" />
        </mxCell>
        <mxCell id="EM1Qpl2ietJLJwzB0dMG-38" value="+ static: Boolean" style="text;strokeColor=none;fillColor=none;align=left;verticalAlign=top;spacingLeft=4;spacingRight=4;overflow=hidden;rotatable=0;points=[[0,0.5],[1,0.5]];portConstraint=eastwest;whiteSpace=wrap;html=1;" parent="EM1Qpl2ietJLJwzB0dMG-36" vertex="1">
          <mxGeometry y="52" width="140" height="26" as="geometry" />
        </mxCell>
        <mxCell id="EM1Qpl2ietJLJwzB0dMG-39" value="+ abstract: Boolean" style="text;strokeColor=none;fillColor=none;align=left;verticalAlign=top;spacingLeft=4;spacingRight=4;overflow=hidden;rotatable=0;points=[[0,0.5],[1,0.5]];portConstraint=eastwest;whiteSpace=wrap;html=1;" parent="EM1Qpl2ietJLJwzB0dMG-36" vertex="1">
          <mxGeometry y="78" width="140" height="26" as="geometry" />
        </mxCell>
        <mxCell id="EM1Qpl2ietJLJwzB0dMG-40" value="+ override: Boolean" style="text;strokeColor=none;fillColor=none;align=left;verticalAlign=top;spacingLeft=4;spacingRight=4;overflow=hidden;rotatable=0;points=[[0,0.5],[1,0.5]];portConstraint=eastwest;whiteSpace=wrap;html=1;" parent="EM1Qpl2ietJLJwzB0dMG-36" vertex="1">
          <mxGeometry y="104" width="140" height="26" as="geometry" />
        </mxCell>
        <mxCell id="EM1Qpl2ietJLJwzB0dMG-41" value="&lt;i&gt;+ coordinates&lt;/i&gt;" style="text;strokeColor=none;fillColor=none;align=left;verticalAlign=top;spacingLeft=4;spacingRight=4;overflow=hidden;rotatable=0;points=[[0,0.5],[1,0.5]];portConstraint=eastwest;whiteSpace=wrap;html=1;" parent="EM1Qpl2ietJLJwzB0dMG-36" vertex="1">
          <mxGeometry y="130" width="140" height="26" as="geometry" />
        </mxCell>
        <mxCell id="EM1Qpl2ietJLJwzB0dMG-42" value="" style="endArrow=classic;html=1;rounded=0;strokeColor=default;edgeStyle=orthogonalEdgeStyle;entryX=0.5;entryY=0;entryDx=0;entryDy=0;" parent="1" target="EM1Qpl2ietJLJwzB0dMG-2" edge="1">
          <mxGeometry width="50" height="50" relative="1" as="geometry">
            <mxPoint x="610" y="520" as="sourcePoint" />
            <mxPoint x="450" y="510" as="targetPoint" />
          </mxGeometry>
        </mxCell>
        <mxCell id="EM1Qpl2ietJLJwzB0dMG-43" value="N" style="edgeLabel;html=1;align=center;verticalAlign=middle;resizable=0;points=[];" parent="EM1Qpl2ietJLJwzB0dMG-42" vertex="1" connectable="0">
          <mxGeometry x="0.8218" relative="1" as="geometry">
            <mxPoint as="offset" />
          </mxGeometry>
        </mxCell>
        <mxCell id="EM1Qpl2ietJLJwzB0dMG-44" value="" style="endArrow=classic;html=1;rounded=0;edgeStyle=orthogonalEdgeStyle;jumpStyle=arc;" parent="1" edge="1">
          <mxGeometry width="50" height="50" relative="1" as="geometry">
            <mxPoint x="440" y="640" as="sourcePoint" />
            <mxPoint x="440" y="840" as="targetPoint" />
            <Array as="points">
              <mxPoint x="440" y="638" />
            </Array>
          </mxGeometry>
        </mxCell>
        <mxCell id="EM1Qpl2ietJLJwzB0dMG-48" value="0..1" style="edgeLabel;html=1;align=center;verticalAlign=middle;resizable=0;points=[];" parent="EM1Qpl2ietJLJwzB0dMG-44" vertex="1" connectable="0">
          <mxGeometry x="0.8371" y="1" relative="1" as="geometry">
            <mxPoint x="14" y="7" as="offset" />
          </mxGeometry>
        </mxCell>
        <mxCell id="EM1Qpl2ietJLJwzB0dMG-50" value="DESCRIBED_BY_&lt;i&gt;X&lt;/i&gt;" style="edgeLabel;html=1;align=center;verticalAlign=middle;resizable=0;points=[];" parent="EM1Qpl2ietJLJwzB0dMG-44" vertex="1" connectable="0">
          <mxGeometry x="-0.7565" y="1" relative="1" as="geometry">
            <mxPoint as="offset" />
          </mxGeometry>
        </mxCell>
        <mxCell id="EM1Qpl2ietJLJwzB0dMG-51" value="1" style="edgeLabel;html=1;align=center;verticalAlign=middle;resizable=0;points=[];" parent="EM1Qpl2ietJLJwzB0dMG-44" vertex="1" connectable="0">
          <mxGeometry x="-0.9614" y="-1" relative="1" as="geometry">
            <mxPoint x="8" y="5" as="offset" />
          </mxGeometry>
        </mxCell>
        <mxCell id="EM1Qpl2ietJLJwzB0dMG-45" value="" style="endArrow=none;html=1;rounded=0;jumpStyle=arc;" parent="1" edge="1">
          <mxGeometry width="50" height="50" relative="1" as="geometry">
            <mxPoint x="400" y="840" as="sourcePoint" />
            <mxPoint x="400" y="790" as="targetPoint" />
          </mxGeometry>
        </mxCell>
        <mxCell id="EM1Qpl2ietJLJwzB0dMG-47" value="1" style="edgeLabel;html=1;align=center;verticalAlign=middle;resizable=0;points=[];" parent="EM1Qpl2ietJLJwzB0dMG-45" vertex="1" connectable="0">
          <mxGeometry x="-0.5275" y="-1" relative="1" as="geometry">
            <mxPoint x="5" y="2" as="offset" />
          </mxGeometry>
        </mxCell>
        <mxCell id="EM1Qpl2ietJLJwzB0dMG-46" value="" style="endArrow=none;html=1;rounded=0;jumpStyle=arc;" parent="1" edge="1">
          <mxGeometry width="50" height="50" relative="1" as="geometry">
            <mxPoint x="229.99999999999997" y="840" as="sourcePoint" />
            <mxPoint x="230" y="790" as="targetPoint" />
          </mxGeometry>
        </mxCell>
        <mxCell id="EM1Qpl2ietJLJwzB0dMG-59" value="1" style="edgeLabel;html=1;align=center;verticalAlign=middle;resizable=0;points=[];" parent="EM1Qpl2ietJLJwzB0dMG-46" vertex="1" connectable="0">
          <mxGeometry x="-0.6238" y="-1" relative="1" as="geometry">
            <mxPoint x="5" as="offset" />
          </mxGeometry>
        </mxCell>
        <mxCell id="EM1Qpl2ietJLJwzB0dMG-49" value="" style="endArrow=classic;html=1;rounded=0;" parent="1" edge="1">
          <mxGeometry width="50" height="50" relative="1" as="geometry">
            <mxPoint x="440" y="690" as="sourcePoint" />
            <mxPoint x="360" y="689.83" as="targetPoint" />
          </mxGeometry>
        </mxCell>
        <mxCell id="EM1Qpl2ietJLJwzB0dMG-58" value="0..1" style="edgeLabel;html=1;align=center;verticalAlign=middle;resizable=0;points=[];" parent="EM1Qpl2ietJLJwzB0dMG-49" vertex="1" connectable="0">
          <mxGeometry x="0.6585" y="-1" relative="1" as="geometry">
            <mxPoint x="6" y="-7" as="offset" />
          </mxGeometry>
        </mxCell>
        <mxCell id="EM1Qpl2ietJLJwzB0dMG-52" value="" style="endArrow=classic;html=1;rounded=0;edgeStyle=orthogonalEdgeStyle;jumpStyle=arc;entryX=0.864;entryY=0;entryDx=0;entryDy=0;entryPerimeter=0;" parent="1" target="_oEkzCHgtPR4eLIxIRUh-166" edge="1">
          <mxGeometry width="50" height="50" relative="1" as="geometry">
            <mxPoint x="440" y="770" as="sourcePoint" />
            <mxPoint x="340" y="740" as="targetPoint" />
          </mxGeometry>
        </mxCell>
        <mxCell id="EM1Qpl2ietJLJwzB0dMG-53" value="0..1" style="edgeLabel;html=1;align=center;verticalAlign=middle;resizable=0;points=[];" parent="EM1Qpl2ietJLJwzB0dMG-52" vertex="1" connectable="0">
          <mxGeometry x="0.8675" y="-1" relative="1" as="geometry">
            <mxPoint x="16" y="5" as="offset" />
          </mxGeometry>
        </mxCell>
        <mxCell id="EM1Qpl2ietJLJwzB0dMG-56" value="" style="endArrow=none;html=1;rounded=0;jumpStyle=arc;edgeStyle=orthogonalEdgeStyle;" parent="1" edge="1">
          <mxGeometry width="50" height="50" relative="1" as="geometry">
            <mxPoint x="170" y="840" as="sourcePoint" />
            <mxPoint x="170" y="500" as="targetPoint" />
          </mxGeometry>
        </mxCell>
        <mxCell id="EM1Qpl2ietJLJwzB0dMG-66" value="RETURNS" style="edgeLabel;html=1;align=center;verticalAlign=middle;resizable=0;points=[];rotation=-90;" parent="EM1Qpl2ietJLJwzB0dMG-56" vertex="1" connectable="0">
          <mxGeometry x="-0.1877" y="-1" relative="1" as="geometry">
            <mxPoint x="-1" as="offset" />
          </mxGeometry>
        </mxCell>
        <mxCell id="EM1Qpl2ietJLJwzB0dMG-67" value="1" style="edgeLabel;html=1;align=center;verticalAlign=middle;resizable=0;points=[];" parent="EM1Qpl2ietJLJwzB0dMG-56" vertex="1" connectable="0">
          <mxGeometry x="-0.9542" relative="1" as="geometry">
            <mxPoint x="6" y="-1" as="offset" />
          </mxGeometry>
        </mxCell>
        <mxCell id="EM1Qpl2ietJLJwzB0dMG-60" value="" style="endArrow=none;html=1;rounded=0;" parent="1" edge="1">
          <mxGeometry width="50" height="50" relative="1" as="geometry">
            <mxPoint x="360" y="840" as="sourcePoint" />
            <mxPoint x="360" y="810" as="targetPoint" />
          </mxGeometry>
        </mxCell>
        <mxCell id="EM1Qpl2ietJLJwzB0dMG-61" value="1" style="edgeLabel;html=1;align=center;verticalAlign=middle;resizable=0;points=[];" parent="EM1Qpl2ietJLJwzB0dMG-60" vertex="1" connectable="0">
          <mxGeometry x="-0.5299" relative="1" as="geometry">
            <mxPoint x="6" y="-3" as="offset" />
          </mxGeometry>
        </mxCell>
        <mxCell id="EM1Qpl2ietJLJwzB0dMG-62" value="HAS" style="edgeLabel;html=1;align=center;verticalAlign=middle;resizable=0;points=[];" parent="EM1Qpl2ietJLJwzB0dMG-60" vertex="1" connectable="0">
          <mxGeometry x="0.6071" relative="1" as="geometry">
            <mxPoint x="19" y="-7" as="offset" />
          </mxGeometry>
        </mxCell>
        <mxCell id="EM1Qpl2ietJLJwzB0dMG-69" value="" style="endArrow=none;html=1;rounded=0;" parent="1" edge="1">
          <mxGeometry width="50" height="50" relative="1" as="geometry">
            <mxPoint x="250" y="790" as="sourcePoint" />
            <mxPoint x="250" y="716" as="targetPoint" />
          </mxGeometry>
        </mxCell>
        <mxCell id="EM1Qpl2ietJLJwzB0dMG-70" value="1" style="edgeLabel;html=1;align=center;verticalAlign=middle;resizable=0;points=[];" parent="EM1Qpl2ietJLJwzB0dMG-69" vertex="1" connectable="0">
          <mxGeometry x="0.7704" y="-1" relative="1" as="geometry">
            <mxPoint x="5" as="offset" />
          </mxGeometry>
        </mxCell>
        <mxCell id="EM1Qpl2ietJLJwzB0dMG-71" value="DECORATED_BY" style="edgeLabel;html=1;align=center;verticalAlign=middle;resizable=0;points=[];" parent="EM1Qpl2ietJLJwzB0dMG-69" vertex="1" connectable="0">
          <mxGeometry x="0.2967" y="-1" relative="1" as="geometry">
            <mxPoint as="offset" />
          </mxGeometry>
        </mxCell>
        <mxCell id="EM1Qpl2ietJLJwzB0dMG-72" value="" style="endArrow=none;html=1;rounded=0;" parent="1" edge="1">
          <mxGeometry width="50" height="50" relative="1" as="geometry">
            <mxPoint x="320" y="560" as="sourcePoint" />
            <mxPoint x="320" y="500" as="targetPoint" />
          </mxGeometry>
        </mxCell>
        <mxCell id="EM1Qpl2ietJLJwzB0dMG-73" value="1" style="edgeLabel;html=1;align=center;verticalAlign=middle;resizable=0;points=[];" parent="EM1Qpl2ietJLJwzB0dMG-72" vertex="1" connectable="0">
          <mxGeometry x="-0.7136" y="1" relative="1" as="geometry">
            <mxPoint x="8" y="-1" as="offset" />
          </mxGeometry>
        </mxCell>
        <mxCell id="EM1Qpl2ietJLJwzB0dMG-74" value="OF_TYPE" style="edgeLabel;html=1;align=center;verticalAlign=middle;resizable=0;points=[];" parent="EM1Qpl2ietJLJwzB0dMG-72" vertex="1" connectable="0">
          <mxGeometry x="-0.0061" y="1" relative="1" as="geometry">
            <mxPoint y="3" as="offset" />
          </mxGeometry>
        </mxCell>
        <mxCell id="_oEkzCHgtPR4eLIxIRUh-318" value="" style="endArrow=none;html=1;rounded=0;edgeStyle=orthogonalEdgeStyle;jumpStyle=arc;exitX=1.005;exitY=0.116;exitDx=0;exitDy=0;exitPerimeter=0;" parent="1" edge="1">
          <mxGeometry width="50" height="50" relative="1" as="geometry">
            <mxPoint x="460.70000000000005" y="200.07999999999993" as="sourcePoint" />
            <mxPoint x="590" y="140" as="targetPoint" />
            <Array as="points">
              <mxPoint x="590" y="200" />
            </Array>
          </mxGeometry>
        </mxCell>
        <mxCell id="_oEkzCHgtPR4eLIxIRUh-321" value="1" style="edgeLabel;html=1;align=center;verticalAlign=middle;resizable=0;points=[];" parent="_oEkzCHgtPR4eLIxIRUh-318" vertex="1" connectable="0">
          <mxGeometry x="-0.9273" relative="1" as="geometry">
            <mxPoint x="3" as="offset" />
          </mxGeometry>
        </mxCell>
        <mxCell id="_oEkzCHgtPR4eLIxIRUh-322" value="DECLARES" style="edgeLabel;html=1;align=center;verticalAlign=middle;resizable=0;points=[];" parent="_oEkzCHgtPR4eLIxIRUh-318" vertex="1" connectable="0">
          <mxGeometry x="-0.7497" y="-1" relative="1" as="geometry">
            <mxPoint x="33" y="-1" as="offset" />
          </mxGeometry>
        </mxCell>
        <mxCell id="_Yk3-agBSiOb5xMYfiSH-1" value="EXPORTS&lt;br&gt;+ exportedName: String" style="rounded=0;whiteSpace=wrap;html=1;dashed=1;dashPattern=1 1;" parent="1" vertex="1">
          <mxGeometry x="865" y="-65" width="141" height="30" as="geometry" />
        </mxCell>
        <mxCell id="zfgLrbxeJxRSBf-Gvt9w-3" value="" style="endArrow=classic;html=1;rounded=0;edgeStyle=orthogonalEdgeStyle;exitX=1;exitY=0.5;exitDx=0;exitDy=0;entryX=1;entryY=0.5;entryDx=0;entryDy=0;jumpStyle=arc;" parent="1" source="_oEkzCHgtPR4eLIxIRUh-236" target="_oEkzCHgtPR4eLIxIRUh-138" edge="1">
          <mxGeometry width="50" height="50" relative="1" as="geometry">
            <mxPoint x="620" y="1201" as="sourcePoint" />
            <mxPoint x="640" y="1100" as="targetPoint" />
            <Array as="points">
              <mxPoint x="640" y="1205" />
              <mxPoint x="640" y="1075" />
            </Array>
          </mxGeometry>
        </mxCell>
        <mxCell id="zfgLrbxeJxRSBf-Gvt9w-4" value="1" style="edgeLabel;html=1;align=center;verticalAlign=middle;resizable=0;points=[];" parent="zfgLrbxeJxRSBf-Gvt9w-3" vertex="1" connectable="0">
          <mxGeometry x="0.879" y="-1" relative="1" as="geometry">
            <mxPoint x="-7" y="-7" as="offset" />
          </mxGeometry>
        </mxCell>
        <mxCell id="zfgLrbxeJxRSBf-Gvt9w-6" value="CALLS" style="edgeLabel;html=1;align=center;verticalAlign=middle;resizable=0;points=[];" parent="zfgLrbxeJxRSBf-Gvt9w-3" vertex="1" connectable="0">
          <mxGeometry x="0.4854" y="-2" relative="1" as="geometry">
            <mxPoint x="105" y="77" as="offset" />
          </mxGeometry>
        </mxCell>
        <mxCell id="zfgLrbxeJxRSBf-Gvt9w-7" value="N" style="edgeLabel;html=1;align=center;verticalAlign=middle;resizable=0;points=[];" parent="zfgLrbxeJxRSBf-Gvt9w-3" vertex="1" connectable="0">
          <mxGeometry x="-0.9474" y="2" relative="1" as="geometry">
            <mxPoint y="-6" as="offset" />
          </mxGeometry>
        </mxCell>
        <mxCell id="Lfl8hkbjUXuFjadJsUI8-6" style="edgeStyle=orthogonalEdgeStyle;rounded=0;orthogonalLoop=1;jettySize=auto;html=1;exitX=0;exitY=0.5;exitDx=0;exitDy=0;endArrow=block;endFill=0;dashed=1;entryX=1;entryY=0.5;entryDx=0;entryDy=0;" parent="1" target="Lfl8hkbjUXuFjadJsUI8-24" edge="1">
          <mxGeometry relative="1" as="geometry">
            <mxPoint x="190.55999999999995" y="-165.60199999999998" as="targetPoint" />
            <mxPoint x="309.5" y="-166.5" as="sourcePoint" />
            <Array as="points">
              <mxPoint x="251" y="-166" />
            </Array>
          </mxGeometry>
        </mxCell>
        <mxCell id="Lfl8hkbjUXuFjadJsUI8-17" style="edgeStyle=orthogonalEdgeStyle;rounded=0;orthogonalLoop=1;jettySize=auto;html=1;" parent="1" edge="1">
          <mxGeometry relative="1" as="geometry">
            <mxPoint x="460" y="-20" as="sourcePoint" />
            <mxPoint x="560" y="-20" as="targetPoint" />
            <Array as="points">
              <mxPoint x="460" y="10" />
              <mxPoint x="560" y="10" />
              <mxPoint x="560" y="-20" />
            </Array>
          </mxGeometry>
        </mxCell>
        <mxCell id="Lfl8hkbjUXuFjadJsUI8-18" value="REFERENCES" style="edgeLabel;html=1;align=center;verticalAlign=middle;resizable=0;points=[];" parent="Lfl8hkbjUXuFjadJsUI8-17" vertex="1" connectable="0">
          <mxGeometry x="-0.0479" y="-2" relative="1" as="geometry">
            <mxPoint x="4" y="-2" as="offset" />
          </mxGeometry>
        </mxCell>
        <mxCell id="Lfl8hkbjUXuFjadJsUI8-19" value="M" style="edgeLabel;html=1;align=center;verticalAlign=middle;resizable=0;points=[];" parent="Lfl8hkbjUXuFjadJsUI8-17" vertex="1" connectable="0">
          <mxGeometry x="0.7268" y="1" relative="1" as="geometry">
            <mxPoint x="12" y="-12" as="offset" />
          </mxGeometry>
        </mxCell>
        <mxCell id="Lfl8hkbjUXuFjadJsUI8-20" value="N" style="edgeLabel;html=1;align=center;verticalAlign=middle;resizable=0;points=[];" parent="Lfl8hkbjUXuFjadJsUI8-17" vertex="1" connectable="0">
          <mxGeometry x="-0.848" y="-3" relative="1" as="geometry">
            <mxPoint x="-5" y="-1" as="offset" />
          </mxGeometry>
        </mxCell>
        <mxCell id="Lfl8hkbjUXuFjadJsUI8-24" value=":File" style="swimlane;fontStyle=0;childLayout=stackLayout;horizontal=1;startSize=26;fillColor=#f5f5f5;horizontalStack=0;resizeParent=1;resizeParentMax=0;resizeLast=0;collapsible=1;marginBottom=0;html=1;strokeColor=#666666;fontColor=#333333;" parent="1" vertex="1">
          <mxGeometry x="80" y="-192" width="140" height="52" as="geometry" />
        </mxCell>
        <mxCell id="Lfl8hkbjUXuFjadJsUI8-25" value="+ fileName: String" style="text;strokeColor=none;fillColor=none;align=left;verticalAlign=top;spacingLeft=4;spacingRight=4;overflow=hidden;rotatable=0;points=[[0,0.5],[1,0.5]];portConstraint=eastwest;whiteSpace=wrap;html=1;" parent="Lfl8hkbjUXuFjadJsUI8-24" vertex="1">
          <mxGeometry y="26" width="140" height="26" as="geometry" />
        </mxCell>
        <mxCell id="dm0H9T0WZqMc4V13grVB-10" value="" style="endArrow=none;html=1;rounded=0;exitX=0.5;exitY=0;exitDx=0;exitDy=0;edgeStyle=orthogonalEdgeStyle;dashed=1;" parent="1" edge="1">
          <mxGeometry width="50" height="50" relative="1" as="geometry">
            <mxPoint x="1230" y="1180" as="sourcePoint" />
            <mxPoint x="1070" y="1140" as="targetPoint" />
            <Array as="points">
              <mxPoint x="1230" y="1140" />
              <mxPoint x="1130" y="1140" />
            </Array>
          </mxGeometry>
        </mxCell>
        <mxCell id="dm0H9T0WZqMc4V13grVB-11" value="" style="endArrow=none;html=1;rounded=0;exitX=0.5;exitY=0;exitDx=0;exitDy=0;edgeStyle=orthogonalEdgeStyle;dashed=1;" parent="1" edge="1">
          <mxGeometry width="50" height="50" relative="1" as="geometry">
            <mxPoint x="1390" y="1180" as="sourcePoint" />
            <mxPoint x="1230" y="1140" as="targetPoint" />
            <Array as="points">
              <mxPoint x="1390" y="1140" />
              <mxPoint x="1290" y="1140" />
            </Array>
          </mxGeometry>
        </mxCell>
        <mxCell id="6X9Y526NMBtAlw3n-G0Q-4" value=":File:Local" style="swimlane;fontStyle=0;childLayout=stackLayout;horizontal=1;startSize=26;fillColor=#f5f5f5;horizontalStack=0;resizeParent=1;resizeParentMax=0;resizeLast=0;collapsible=1;marginBottom=0;html=1;strokeColor=#666666;fontColor=#333333;" parent="1" vertex="1">
          <mxGeometry x="309.5" y="-192" width="161" height="52" as="geometry" />
        </mxCell>
        <mxCell id="6X9Y526NMBtAlw3n-G0Q-5" value="+ absoluteFileName: String" style="text;strokeColor=none;fillColor=none;align=left;verticalAlign=top;spacingLeft=4;spacingRight=4;overflow=hidden;rotatable=0;points=[[0,0.5],[1,0.5]];portConstraint=eastwest;whiteSpace=wrap;html=1;" parent="6X9Y526NMBtAlw3n-G0Q-4" vertex="1">
          <mxGeometry y="26" width="161" height="26" as="geometry" />
        </mxCell>
      </root>
    </mxGraphModel>
  </diagram>
</mxfile>
